%TF.GenerationSoftware,KiCad,Pcbnew,(6.0.0)*%
%TF.CreationDate,2022-04-24T20:10:25+02:00*%
%TF.ProjectId,ZorroDebug,5a6f7272-6f44-4656-9275-672e6b696361,rev?*%
%TF.SameCoordinates,Original*%
%TF.FileFunction,Legend,Bot*%
%TF.FilePolarity,Positive*%
%FSLAX46Y46*%
G04 Gerber Fmt 4.6, Leading zero omitted, Abs format (unit mm)*
G04 Created by KiCad (PCBNEW (6.0.0)) date 2022-04-24 20:10:25*
%MOMM*%
%LPD*%
G01*
G04 APERTURE LIST*
%ADD10C,0.150000*%
%ADD11C,0.600000*%
G04 APERTURE END LIST*
D10*
X145742380Y-87181904D02*
X144742380Y-87181904D01*
X144742380Y-87420000D01*
X144790000Y-87562857D01*
X144885238Y-87658095D01*
X144980476Y-87705714D01*
X145170952Y-87753333D01*
X145313809Y-87753333D01*
X145504285Y-87705714D01*
X145599523Y-87658095D01*
X145694761Y-87562857D01*
X145742380Y-87420000D01*
X145742380Y-87181904D01*
X145075714Y-88610476D02*
X145742380Y-88610476D01*
X144694761Y-88372380D02*
X145409047Y-88134285D01*
X145409047Y-88753333D01*
X160982380Y-86705714D02*
X159982380Y-86705714D01*
X159982380Y-86943809D01*
X160030000Y-87086666D01*
X160125238Y-87181904D01*
X160220476Y-87229523D01*
X160410952Y-87277142D01*
X160553809Y-87277142D01*
X160744285Y-87229523D01*
X160839523Y-87181904D01*
X160934761Y-87086666D01*
X160982380Y-86943809D01*
X160982380Y-86705714D01*
X160982380Y-88229523D02*
X160982380Y-87658095D01*
X160982380Y-87943809D02*
X159982380Y-87943809D01*
X160125238Y-87848571D01*
X160220476Y-87753333D01*
X160268095Y-87658095D01*
X160982380Y-89181904D02*
X160982380Y-88610476D01*
X160982380Y-88896190D02*
X159982380Y-88896190D01*
X160125238Y-88800952D01*
X160220476Y-88705714D01*
X160268095Y-88610476D01*
X241881428Y-101874285D02*
X241881428Y-102636190D01*
X241262380Y-103588571D02*
X241262380Y-103112380D01*
X241738571Y-103064761D01*
X241690952Y-103112380D01*
X241643333Y-103207619D01*
X241643333Y-103445714D01*
X241690952Y-103540952D01*
X241738571Y-103588571D01*
X241833809Y-103636190D01*
X242071904Y-103636190D01*
X242167142Y-103588571D01*
X242214761Y-103540952D01*
X242262380Y-103445714D01*
X242262380Y-103207619D01*
X242214761Y-103112380D01*
X242167142Y-103064761D01*
X241262380Y-103921904D02*
X242262380Y-104255238D01*
X241262380Y-104588571D01*
X192720000Y-101207619D02*
X192720000Y-102207619D01*
X193478571Y-101779047D02*
X193526190Y-101921904D01*
X193573809Y-101969523D01*
X193669047Y-102017142D01*
X193811904Y-102017142D01*
X193907142Y-101969523D01*
X193954761Y-101921904D01*
X194002380Y-101826666D01*
X194002380Y-101445714D01*
X193002380Y-101445714D01*
X193002380Y-101779047D01*
X193050000Y-101874285D01*
X193097619Y-101921904D01*
X193192857Y-101969523D01*
X193288095Y-101969523D01*
X193383333Y-101921904D01*
X193430952Y-101874285D01*
X193478571Y-101779047D01*
X193478571Y-101445714D01*
X192720000Y-102207619D02*
X192720000Y-103112380D01*
X193478571Y-102445714D02*
X193478571Y-102779047D01*
X194002380Y-102921904D02*
X194002380Y-102445714D01*
X193002380Y-102445714D01*
X193002380Y-102921904D01*
X192720000Y-103112380D02*
X192720000Y-104112380D01*
X194002380Y-103921904D02*
X193526190Y-103588571D01*
X194002380Y-103350476D02*
X193002380Y-103350476D01*
X193002380Y-103731428D01*
X193050000Y-103826666D01*
X193097619Y-103874285D01*
X193192857Y-103921904D01*
X193335714Y-103921904D01*
X193430952Y-103874285D01*
X193478571Y-103826666D01*
X193526190Y-103731428D01*
X193526190Y-103350476D01*
X192720000Y-104112380D02*
X192720000Y-105112380D01*
X194002380Y-104921904D02*
X193526190Y-104588571D01*
X194002380Y-104350476D02*
X193002380Y-104350476D01*
X193002380Y-104731428D01*
X193050000Y-104826666D01*
X193097619Y-104874285D01*
X193192857Y-104921904D01*
X193335714Y-104921904D01*
X193430952Y-104874285D01*
X193478571Y-104826666D01*
X193526190Y-104731428D01*
X193526190Y-104350476D01*
X182560000Y-86562857D02*
X182560000Y-87562857D01*
X183842380Y-87372380D02*
X183366190Y-87039047D01*
X183842380Y-86800952D02*
X182842380Y-86800952D01*
X182842380Y-87181904D01*
X182890000Y-87277142D01*
X182937619Y-87324761D01*
X183032857Y-87372380D01*
X183175714Y-87372380D01*
X183270952Y-87324761D01*
X183318571Y-87277142D01*
X183366190Y-87181904D01*
X183366190Y-86800952D01*
X182560000Y-87562857D02*
X182560000Y-88515238D01*
X183794761Y-87753333D02*
X183842380Y-87896190D01*
X183842380Y-88134285D01*
X183794761Y-88229523D01*
X183747142Y-88277142D01*
X183651904Y-88324761D01*
X183556666Y-88324761D01*
X183461428Y-88277142D01*
X183413809Y-88229523D01*
X183366190Y-88134285D01*
X183318571Y-87943809D01*
X183270952Y-87848571D01*
X183223333Y-87800952D01*
X183128095Y-87753333D01*
X183032857Y-87753333D01*
X182937619Y-87800952D01*
X182890000Y-87848571D01*
X182842380Y-87943809D01*
X182842380Y-88181904D01*
X182890000Y-88324761D01*
X182560000Y-88515238D02*
X182560000Y-89277142D01*
X182842380Y-88610476D02*
X182842380Y-89181904D01*
X183842380Y-88896190D02*
X182842380Y-88896190D01*
X203210000Y-87158095D02*
X203162380Y-87062857D01*
X203162380Y-86920000D01*
X203210000Y-86777142D01*
X203305238Y-86681904D01*
X203400476Y-86634285D01*
X203590952Y-86586666D01*
X203733809Y-86586666D01*
X203924285Y-86634285D01*
X204019523Y-86681904D01*
X204114761Y-86777142D01*
X204162380Y-86920000D01*
X204162380Y-87015238D01*
X204114761Y-87158095D01*
X204067142Y-87205714D01*
X203733809Y-87205714D01*
X203733809Y-87015238D01*
X204162380Y-87634285D02*
X203162380Y-87634285D01*
X204162380Y-88205714D01*
X203162380Y-88205714D01*
X204162380Y-88681904D02*
X203162380Y-88681904D01*
X203162380Y-88920000D01*
X203210000Y-89062857D01*
X203305238Y-89158095D01*
X203400476Y-89205714D01*
X203590952Y-89253333D01*
X203733809Y-89253333D01*
X203924285Y-89205714D01*
X204019523Y-89158095D01*
X204114761Y-89062857D01*
X204162380Y-88920000D01*
X204162380Y-88681904D01*
X206416666Y-101969523D02*
X206416666Y-102445714D01*
X206702380Y-101874285D02*
X205702380Y-102207619D01*
X206702380Y-102540952D01*
X206702380Y-103398095D02*
X206702380Y-102826666D01*
X206702380Y-103112380D02*
X205702380Y-103112380D01*
X205845238Y-103017142D01*
X205940476Y-102921904D01*
X205988095Y-102826666D01*
X206702380Y-104350476D02*
X206702380Y-103779047D01*
X206702380Y-104064761D02*
X205702380Y-104064761D01*
X205845238Y-103969523D01*
X205940476Y-103874285D01*
X205988095Y-103779047D01*
X235900000Y-85062857D02*
X235900000Y-86062857D01*
X237087142Y-85872380D02*
X237134761Y-85824761D01*
X237182380Y-85681904D01*
X237182380Y-85586666D01*
X237134761Y-85443809D01*
X237039523Y-85348571D01*
X236944285Y-85300952D01*
X236753809Y-85253333D01*
X236610952Y-85253333D01*
X236420476Y-85300952D01*
X236325238Y-85348571D01*
X236230000Y-85443809D01*
X236182380Y-85586666D01*
X236182380Y-85681904D01*
X236230000Y-85824761D01*
X236277619Y-85872380D01*
X235900000Y-86062857D02*
X235900000Y-86920000D01*
X236658571Y-86634285D02*
X236658571Y-86300952D01*
X237182380Y-86300952D02*
X236182380Y-86300952D01*
X236182380Y-86777142D01*
X235900000Y-86920000D02*
X235900000Y-87920000D01*
X236230000Y-87681904D02*
X236182380Y-87586666D01*
X236182380Y-87443809D01*
X236230000Y-87300952D01*
X236325238Y-87205714D01*
X236420476Y-87158095D01*
X236610952Y-87110476D01*
X236753809Y-87110476D01*
X236944285Y-87158095D01*
X237039523Y-87205714D01*
X237134761Y-87300952D01*
X237182380Y-87443809D01*
X237182380Y-87539047D01*
X237134761Y-87681904D01*
X237087142Y-87729523D01*
X236753809Y-87729523D01*
X236753809Y-87539047D01*
X235900000Y-87920000D02*
X235900000Y-88967619D01*
X236182380Y-88348571D02*
X236182380Y-88539047D01*
X236230000Y-88634285D01*
X236325238Y-88729523D01*
X236515714Y-88777142D01*
X236849047Y-88777142D01*
X237039523Y-88729523D01*
X237134761Y-88634285D01*
X237182380Y-88539047D01*
X237182380Y-88348571D01*
X237134761Y-88253333D01*
X237039523Y-88158095D01*
X236849047Y-88110476D01*
X236515714Y-88110476D01*
X236325238Y-88158095D01*
X236230000Y-88253333D01*
X236182380Y-88348571D01*
X235900000Y-88967619D02*
X235900000Y-90015238D01*
X236182380Y-89205714D02*
X236991904Y-89205714D01*
X237087142Y-89253333D01*
X237134761Y-89300952D01*
X237182380Y-89396190D01*
X237182380Y-89586666D01*
X237134761Y-89681904D01*
X237087142Y-89729523D01*
X236991904Y-89777142D01*
X236182380Y-89777142D01*
X235900000Y-90015238D02*
X235900000Y-90777142D01*
X236182380Y-90110476D02*
X236182380Y-90681904D01*
X237182380Y-90396190D02*
X236182380Y-90396190D01*
X195260000Y-101088571D02*
X195260000Y-101993333D01*
X196018571Y-101326666D02*
X196018571Y-101660000D01*
X196542380Y-101802857D02*
X196542380Y-101326666D01*
X195542380Y-101326666D01*
X195542380Y-101802857D01*
X195260000Y-101993333D02*
X195260000Y-102469523D01*
X196542380Y-102231428D02*
X195542380Y-102231428D01*
X195260000Y-102469523D02*
X195260000Y-103517142D01*
X196542380Y-102707619D02*
X195542380Y-102707619D01*
X196542380Y-103279047D01*
X195542380Y-103279047D01*
X195260000Y-103517142D02*
X195260000Y-104279047D01*
X195542380Y-103612380D02*
X195542380Y-104183809D01*
X196542380Y-103898095D02*
X195542380Y-103898095D01*
X195260000Y-104279047D02*
X195260000Y-105231428D01*
X195875714Y-104945714D02*
X196542380Y-104945714D01*
X195494761Y-104707619D02*
X196209047Y-104469523D01*
X196209047Y-105088571D01*
X129220000Y-86420000D02*
X129220000Y-87420000D01*
X129550000Y-87181904D02*
X129502380Y-87086666D01*
X129502380Y-86943809D01*
X129550000Y-86800952D01*
X129645238Y-86705714D01*
X129740476Y-86658095D01*
X129930952Y-86610476D01*
X130073809Y-86610476D01*
X130264285Y-86658095D01*
X130359523Y-86705714D01*
X130454761Y-86800952D01*
X130502380Y-86943809D01*
X130502380Y-87039047D01*
X130454761Y-87181904D01*
X130407142Y-87229523D01*
X130073809Y-87229523D01*
X130073809Y-87039047D01*
X129220000Y-87420000D02*
X129220000Y-88420000D01*
X129978571Y-87991428D02*
X130026190Y-88134285D01*
X130073809Y-88181904D01*
X130169047Y-88229523D01*
X130311904Y-88229523D01*
X130407142Y-88181904D01*
X130454761Y-88134285D01*
X130502380Y-88039047D01*
X130502380Y-87658095D01*
X129502380Y-87658095D01*
X129502380Y-87991428D01*
X129550000Y-88086666D01*
X129597619Y-88134285D01*
X129692857Y-88181904D01*
X129788095Y-88181904D01*
X129883333Y-88134285D01*
X129930952Y-88086666D01*
X129978571Y-87991428D01*
X129978571Y-87658095D01*
X129220000Y-88420000D02*
X129220000Y-89420000D01*
X129550000Y-89181904D02*
X129502380Y-89086666D01*
X129502380Y-88943809D01*
X129550000Y-88800952D01*
X129645238Y-88705714D01*
X129740476Y-88658095D01*
X129930952Y-88610476D01*
X130073809Y-88610476D01*
X130264285Y-88658095D01*
X130359523Y-88705714D01*
X130454761Y-88800952D01*
X130502380Y-88943809D01*
X130502380Y-89039047D01*
X130454761Y-89181904D01*
X130407142Y-89229523D01*
X130073809Y-89229523D01*
X130073809Y-89039047D01*
X226641428Y-101398095D02*
X226641428Y-102160000D01*
X227022380Y-103160000D02*
X227022380Y-102588571D01*
X227022380Y-102874285D02*
X226022380Y-102874285D01*
X226165238Y-102779047D01*
X226260476Y-102683809D01*
X226308095Y-102588571D01*
X226117619Y-103540952D02*
X226070000Y-103588571D01*
X226022380Y-103683809D01*
X226022380Y-103921904D01*
X226070000Y-104017142D01*
X226117619Y-104064761D01*
X226212857Y-104112380D01*
X226308095Y-104112380D01*
X226450952Y-104064761D01*
X227022380Y-103493333D01*
X227022380Y-104112380D01*
X226022380Y-104398095D02*
X227022380Y-104731428D01*
X226022380Y-105064761D01*
X131760000Y-100302857D02*
X131760000Y-101302857D01*
X132518571Y-100874285D02*
X132566190Y-101017142D01*
X132613809Y-101064761D01*
X132709047Y-101112380D01*
X132851904Y-101112380D01*
X132947142Y-101064761D01*
X132994761Y-101017142D01*
X133042380Y-100921904D01*
X133042380Y-100540952D01*
X132042380Y-100540952D01*
X132042380Y-100874285D01*
X132090000Y-100969523D01*
X132137619Y-101017142D01*
X132232857Y-101064761D01*
X132328095Y-101064761D01*
X132423333Y-101017142D01*
X132470952Y-100969523D01*
X132518571Y-100874285D01*
X132518571Y-100540952D01*
X131760000Y-101302857D02*
X131760000Y-102350476D01*
X132042380Y-101540952D02*
X132851904Y-101540952D01*
X132947142Y-101588571D01*
X132994761Y-101636190D01*
X133042380Y-101731428D01*
X133042380Y-101921904D01*
X132994761Y-102017142D01*
X132947142Y-102064761D01*
X132851904Y-102112380D01*
X132042380Y-102112380D01*
X131760000Y-102350476D02*
X131760000Y-103302857D01*
X132994761Y-102540952D02*
X133042380Y-102683809D01*
X133042380Y-102921904D01*
X132994761Y-103017142D01*
X132947142Y-103064761D01*
X132851904Y-103112380D01*
X132756666Y-103112380D01*
X132661428Y-103064761D01*
X132613809Y-103017142D01*
X132566190Y-102921904D01*
X132518571Y-102731428D01*
X132470952Y-102636190D01*
X132423333Y-102588571D01*
X132328095Y-102540952D01*
X132232857Y-102540952D01*
X132137619Y-102588571D01*
X132090000Y-102636190D01*
X132042380Y-102731428D01*
X132042380Y-102969523D01*
X132090000Y-103112380D01*
X131760000Y-103302857D02*
X131760000Y-104302857D01*
X133042380Y-104112380D02*
X132566190Y-103779047D01*
X133042380Y-103540952D02*
X132042380Y-103540952D01*
X132042380Y-103921904D01*
X132090000Y-104017142D01*
X132137619Y-104064761D01*
X132232857Y-104112380D01*
X132375714Y-104112380D01*
X132470952Y-104064761D01*
X132518571Y-104017142D01*
X132566190Y-103921904D01*
X132566190Y-103540952D01*
X131760000Y-104302857D02*
X131760000Y-105255238D01*
X132994761Y-104493333D02*
X133042380Y-104636190D01*
X133042380Y-104874285D01*
X132994761Y-104969523D01*
X132947142Y-105017142D01*
X132851904Y-105064761D01*
X132756666Y-105064761D01*
X132661428Y-105017142D01*
X132613809Y-104969523D01*
X132566190Y-104874285D01*
X132518571Y-104683809D01*
X132470952Y-104588571D01*
X132423333Y-104540952D01*
X132328095Y-104493333D01*
X132232857Y-104493333D01*
X132137619Y-104540952D01*
X132090000Y-104588571D01*
X132042380Y-104683809D01*
X132042380Y-104921904D01*
X132090000Y-105064761D01*
X131760000Y-105255238D02*
X131760000Y-106017142D01*
X132042380Y-105350476D02*
X132042380Y-105921904D01*
X133042380Y-105636190D02*
X132042380Y-105636190D01*
X148282380Y-102421904D02*
X147282380Y-102421904D01*
X147282380Y-102660000D01*
X147330000Y-102802857D01*
X147425238Y-102898095D01*
X147520476Y-102945714D01*
X147710952Y-102993333D01*
X147853809Y-102993333D01*
X148044285Y-102945714D01*
X148139523Y-102898095D01*
X148234761Y-102802857D01*
X148282380Y-102660000D01*
X148282380Y-102421904D01*
X147282380Y-103326666D02*
X147282380Y-103993333D01*
X148282380Y-103564761D01*
X216576666Y-102445714D02*
X216576666Y-102921904D01*
X216862380Y-102350476D02*
X215862380Y-102683809D01*
X216862380Y-103017142D01*
X215862380Y-103255238D02*
X215862380Y-103921904D01*
X216862380Y-103493333D01*
X185382380Y-86586666D02*
X186382380Y-86920000D01*
X185382380Y-87253333D01*
X186382380Y-87586666D02*
X185382380Y-87586666D01*
X186096666Y-87920000D01*
X185382380Y-88253333D01*
X186382380Y-88253333D01*
X186096666Y-88681904D02*
X186096666Y-89158095D01*
X186382380Y-88586666D02*
X185382380Y-88920000D01*
X186382380Y-89253333D01*
X163522380Y-86705714D02*
X162522380Y-86705714D01*
X162522380Y-86943809D01*
X162570000Y-87086666D01*
X162665238Y-87181904D01*
X162760476Y-87229523D01*
X162950952Y-87277142D01*
X163093809Y-87277142D01*
X163284285Y-87229523D01*
X163379523Y-87181904D01*
X163474761Y-87086666D01*
X163522380Y-86943809D01*
X163522380Y-86705714D01*
X163522380Y-88229523D02*
X163522380Y-87658095D01*
X163522380Y-87943809D02*
X162522380Y-87943809D01*
X162665238Y-87848571D01*
X162760476Y-87753333D01*
X162808095Y-87658095D01*
X162617619Y-88610476D02*
X162570000Y-88658095D01*
X162522380Y-88753333D01*
X162522380Y-88991428D01*
X162570000Y-89086666D01*
X162617619Y-89134285D01*
X162712857Y-89181904D01*
X162808095Y-89181904D01*
X162950952Y-89134285D01*
X163522380Y-88562857D01*
X163522380Y-89181904D01*
X167320000Y-100850476D02*
X167320000Y-101850476D01*
X168602380Y-101088571D02*
X167602380Y-101088571D01*
X167602380Y-101326666D01*
X167650000Y-101469523D01*
X167745238Y-101564761D01*
X167840476Y-101612380D01*
X168030952Y-101660000D01*
X168173809Y-101660000D01*
X168364285Y-101612380D01*
X168459523Y-101564761D01*
X168554761Y-101469523D01*
X168602380Y-101326666D01*
X168602380Y-101088571D01*
X167320000Y-101850476D02*
X167320000Y-102612380D01*
X167602380Y-101945714D02*
X167602380Y-102517142D01*
X168602380Y-102231428D02*
X167602380Y-102231428D01*
X167320000Y-102612380D02*
X167320000Y-103469523D01*
X168316666Y-102802857D02*
X168316666Y-103279047D01*
X168602380Y-102707619D02*
X167602380Y-103040952D01*
X168602380Y-103374285D01*
X167320000Y-103469523D02*
X167320000Y-104469523D01*
X168507142Y-104279047D02*
X168554761Y-104231428D01*
X168602380Y-104088571D01*
X168602380Y-103993333D01*
X168554761Y-103850476D01*
X168459523Y-103755238D01*
X168364285Y-103707619D01*
X168173809Y-103660000D01*
X168030952Y-103660000D01*
X167840476Y-103707619D01*
X167745238Y-103755238D01*
X167650000Y-103850476D01*
X167602380Y-103993333D01*
X167602380Y-104088571D01*
X167650000Y-104231428D01*
X167697619Y-104279047D01*
X167320000Y-104469523D02*
X167320000Y-105469523D01*
X168602380Y-104707619D02*
X167602380Y-104707619D01*
X168602380Y-105279047D02*
X168030952Y-104850476D01*
X167602380Y-105279047D02*
X168173809Y-104707619D01*
X139710000Y-87158095D02*
X139662380Y-87062857D01*
X139662380Y-86920000D01*
X139710000Y-86777142D01*
X139805238Y-86681904D01*
X139900476Y-86634285D01*
X140090952Y-86586666D01*
X140233809Y-86586666D01*
X140424285Y-86634285D01*
X140519523Y-86681904D01*
X140614761Y-86777142D01*
X140662380Y-86920000D01*
X140662380Y-87015238D01*
X140614761Y-87158095D01*
X140567142Y-87205714D01*
X140233809Y-87205714D01*
X140233809Y-87015238D01*
X140662380Y-87634285D02*
X139662380Y-87634285D01*
X140662380Y-88205714D01*
X139662380Y-88205714D01*
X140662380Y-88681904D02*
X139662380Y-88681904D01*
X139662380Y-88920000D01*
X139710000Y-89062857D01*
X139805238Y-89158095D01*
X139900476Y-89205714D01*
X140090952Y-89253333D01*
X140233809Y-89253333D01*
X140424285Y-89205714D01*
X140519523Y-89158095D01*
X140614761Y-89062857D01*
X140662380Y-88920000D01*
X140662380Y-88681904D01*
X221656666Y-87205714D02*
X221656666Y-87681904D01*
X221942380Y-87110476D02*
X220942380Y-87443809D01*
X221942380Y-87777142D01*
X220942380Y-88539047D02*
X220942380Y-88348571D01*
X220990000Y-88253333D01*
X221037619Y-88205714D01*
X221180476Y-88110476D01*
X221370952Y-88062857D01*
X221751904Y-88062857D01*
X221847142Y-88110476D01*
X221894761Y-88158095D01*
X221942380Y-88253333D01*
X221942380Y-88443809D01*
X221894761Y-88539047D01*
X221847142Y-88586666D01*
X221751904Y-88634285D01*
X221513809Y-88634285D01*
X221418571Y-88586666D01*
X221370952Y-88539047D01*
X221323333Y-88443809D01*
X221323333Y-88253333D01*
X221370952Y-88158095D01*
X221418571Y-88110476D01*
X221513809Y-88062857D01*
X128216387Y-102493325D02*
X128216387Y-102683801D01*
X128168768Y-102779039D01*
X128121149Y-102826658D01*
X127978292Y-102921896D01*
X127787816Y-102969515D01*
X127406864Y-102969515D01*
X127311626Y-102921896D01*
X127264007Y-102874277D01*
X127216387Y-102779039D01*
X127216387Y-102588563D01*
X127264007Y-102493325D01*
X127311626Y-102445706D01*
X127406864Y-102398087D01*
X127644959Y-102398087D01*
X127740197Y-102445706D01*
X127787816Y-102493325D01*
X127835435Y-102588563D01*
X127835435Y-102779039D01*
X127787816Y-102874277D01*
X127740197Y-102921896D01*
X127644959Y-102969515D01*
X127644959Y-103540944D02*
X127597340Y-103445706D01*
X127549721Y-103398087D01*
X127454483Y-103350468D01*
X127406864Y-103350468D01*
X127311626Y-103398087D01*
X127264007Y-103445706D01*
X127216387Y-103540944D01*
X127216387Y-103731420D01*
X127264007Y-103826658D01*
X127311626Y-103874277D01*
X127406864Y-103921896D01*
X127454483Y-103921896D01*
X127549721Y-103874277D01*
X127597340Y-103826658D01*
X127644959Y-103731420D01*
X127644959Y-103540944D01*
X127692578Y-103445706D01*
X127740197Y-103398087D01*
X127835435Y-103350468D01*
X128025911Y-103350468D01*
X128121149Y-103398087D01*
X128168768Y-103445706D01*
X128216387Y-103540944D01*
X128216387Y-103731420D01*
X128168768Y-103826658D01*
X128121149Y-103874277D01*
X128025911Y-103921896D01*
X127835435Y-103921896D01*
X127740197Y-103874277D01*
X127692578Y-103826658D01*
X127644959Y-103731420D01*
X178476666Y-86729523D02*
X178476666Y-87205714D01*
X178762380Y-86634285D02*
X177762380Y-86967619D01*
X178762380Y-87300952D01*
X177857619Y-87586666D02*
X177810000Y-87634285D01*
X177762380Y-87729523D01*
X177762380Y-87967619D01*
X177810000Y-88062857D01*
X177857619Y-88110476D01*
X177952857Y-88158095D01*
X178048095Y-88158095D01*
X178190952Y-88110476D01*
X178762380Y-87539047D01*
X178762380Y-88158095D01*
X177857619Y-88539047D02*
X177810000Y-88586666D01*
X177762380Y-88681904D01*
X177762380Y-88920000D01*
X177810000Y-89015238D01*
X177857619Y-89062857D01*
X177952857Y-89110476D01*
X178048095Y-89110476D01*
X178190952Y-89062857D01*
X178762380Y-88491428D01*
X178762380Y-89110476D01*
X142250000Y-87158095D02*
X142202380Y-87062857D01*
X142202380Y-86920000D01*
X142250000Y-86777142D01*
X142345238Y-86681904D01*
X142440476Y-86634285D01*
X142630952Y-86586666D01*
X142773809Y-86586666D01*
X142964285Y-86634285D01*
X143059523Y-86681904D01*
X143154761Y-86777142D01*
X143202380Y-86920000D01*
X143202380Y-87015238D01*
X143154761Y-87158095D01*
X143107142Y-87205714D01*
X142773809Y-87205714D01*
X142773809Y-87015238D01*
X143202380Y-87634285D02*
X142202380Y-87634285D01*
X143202380Y-88205714D01*
X142202380Y-88205714D01*
X143202380Y-88681904D02*
X142202380Y-88681904D01*
X142202380Y-88920000D01*
X142250000Y-89062857D01*
X142345238Y-89158095D01*
X142440476Y-89205714D01*
X142630952Y-89253333D01*
X142773809Y-89253333D01*
X142964285Y-89205714D01*
X143059523Y-89158095D01*
X143154761Y-89062857D01*
X143202380Y-88920000D01*
X143202380Y-88681904D01*
X233690000Y-87158095D02*
X233642380Y-87062857D01*
X233642380Y-86920000D01*
X233690000Y-86777142D01*
X233785238Y-86681904D01*
X233880476Y-86634285D01*
X234070952Y-86586666D01*
X234213809Y-86586666D01*
X234404285Y-86634285D01*
X234499523Y-86681904D01*
X234594761Y-86777142D01*
X234642380Y-86920000D01*
X234642380Y-87015238D01*
X234594761Y-87158095D01*
X234547142Y-87205714D01*
X234213809Y-87205714D01*
X234213809Y-87015238D01*
X234642380Y-87634285D02*
X233642380Y-87634285D01*
X234642380Y-88205714D01*
X233642380Y-88205714D01*
X234642380Y-88681904D02*
X233642380Y-88681904D01*
X233642380Y-88920000D01*
X233690000Y-89062857D01*
X233785238Y-89158095D01*
X233880476Y-89205714D01*
X234070952Y-89253333D01*
X234213809Y-89253333D01*
X234404285Y-89205714D01*
X234499523Y-89158095D01*
X234594761Y-89062857D01*
X234642380Y-88920000D01*
X234642380Y-88681904D01*
X203876666Y-101969523D02*
X203876666Y-102445714D01*
X204162380Y-101874285D02*
X203162380Y-102207619D01*
X204162380Y-102540952D01*
X204162380Y-103398095D02*
X204162380Y-102826666D01*
X204162380Y-103112380D02*
X203162380Y-103112380D01*
X203305238Y-103017142D01*
X203400476Y-102921904D01*
X203448095Y-102826666D01*
X203257619Y-103779047D02*
X203210000Y-103826666D01*
X203162380Y-103921904D01*
X203162380Y-104160000D01*
X203210000Y-104255238D01*
X203257619Y-104302857D01*
X203352857Y-104350476D01*
X203448095Y-104350476D01*
X203590952Y-104302857D01*
X204162380Y-103731428D01*
X204162380Y-104350476D01*
X221656666Y-102445714D02*
X221656666Y-102921904D01*
X221942380Y-102350476D02*
X220942380Y-102683809D01*
X221942380Y-103017142D01*
X221275714Y-103779047D02*
X221942380Y-103779047D01*
X220894761Y-103540952D02*
X221609047Y-103302857D01*
X221609047Y-103921904D01*
X218450000Y-87158095D02*
X218402380Y-87062857D01*
X218402380Y-86920000D01*
X218450000Y-86777142D01*
X218545238Y-86681904D01*
X218640476Y-86634285D01*
X218830952Y-86586666D01*
X218973809Y-86586666D01*
X219164285Y-86634285D01*
X219259523Y-86681904D01*
X219354761Y-86777142D01*
X219402380Y-86920000D01*
X219402380Y-87015238D01*
X219354761Y-87158095D01*
X219307142Y-87205714D01*
X218973809Y-87205714D01*
X218973809Y-87015238D01*
X219402380Y-87634285D02*
X218402380Y-87634285D01*
X219402380Y-88205714D01*
X218402380Y-88205714D01*
X219402380Y-88681904D02*
X218402380Y-88681904D01*
X218402380Y-88920000D01*
X218450000Y-89062857D01*
X218545238Y-89158095D01*
X218640476Y-89205714D01*
X218830952Y-89253333D01*
X218973809Y-89253333D01*
X219164285Y-89205714D01*
X219259523Y-89158095D01*
X219354761Y-89062857D01*
X219402380Y-88920000D01*
X219402380Y-88681904D01*
X124470000Y-87158095D02*
X124422380Y-87062857D01*
X124422380Y-86920000D01*
X124470000Y-86777142D01*
X124565238Y-86681904D01*
X124660476Y-86634285D01*
X124850952Y-86586666D01*
X124993809Y-86586666D01*
X125184285Y-86634285D01*
X125279523Y-86681904D01*
X125374761Y-86777142D01*
X125422380Y-86920000D01*
X125422380Y-87015238D01*
X125374761Y-87158095D01*
X125327142Y-87205714D01*
X124993809Y-87205714D01*
X124993809Y-87015238D01*
X125422380Y-87634285D02*
X124422380Y-87634285D01*
X125422380Y-88205714D01*
X124422380Y-88205714D01*
X125422380Y-88681904D02*
X124422380Y-88681904D01*
X124422380Y-88920000D01*
X124470000Y-89062857D01*
X124565238Y-89158095D01*
X124660476Y-89205714D01*
X124850952Y-89253333D01*
X124993809Y-89253333D01*
X125184285Y-89205714D01*
X125279523Y-89158095D01*
X125374761Y-89062857D01*
X125422380Y-88920000D01*
X125422380Y-88681904D01*
X172400000Y-100731428D02*
X172400000Y-101731428D01*
X173158571Y-101302857D02*
X173206190Y-101445714D01*
X173253809Y-101493333D01*
X173349047Y-101540952D01*
X173491904Y-101540952D01*
X173587142Y-101493333D01*
X173634761Y-101445714D01*
X173682380Y-101350476D01*
X173682380Y-100969523D01*
X172682380Y-100969523D01*
X172682380Y-101302857D01*
X172730000Y-101398095D01*
X172777619Y-101445714D01*
X172872857Y-101493333D01*
X172968095Y-101493333D01*
X173063333Y-101445714D01*
X173110952Y-101398095D01*
X173158571Y-101302857D01*
X173158571Y-100969523D01*
X172400000Y-101731428D02*
X172400000Y-102731428D01*
X172730000Y-102493333D02*
X172682380Y-102398095D01*
X172682380Y-102255238D01*
X172730000Y-102112380D01*
X172825238Y-102017142D01*
X172920476Y-101969523D01*
X173110952Y-101921904D01*
X173253809Y-101921904D01*
X173444285Y-101969523D01*
X173539523Y-102017142D01*
X173634761Y-102112380D01*
X173682380Y-102255238D01*
X173682380Y-102350476D01*
X173634761Y-102493333D01*
X173587142Y-102540952D01*
X173253809Y-102540952D01*
X173253809Y-102350476D01*
X172400000Y-102731428D02*
X172400000Y-103588571D01*
X173396666Y-102921904D02*
X173396666Y-103398095D01*
X173682380Y-102826666D02*
X172682380Y-103160000D01*
X173682380Y-103493333D01*
X172400000Y-103588571D02*
X172400000Y-104588571D01*
X173587142Y-104398095D02*
X173634761Y-104350476D01*
X173682380Y-104207619D01*
X173682380Y-104112380D01*
X173634761Y-103969523D01*
X173539523Y-103874285D01*
X173444285Y-103826666D01*
X173253809Y-103779047D01*
X173110952Y-103779047D01*
X172920476Y-103826666D01*
X172825238Y-103874285D01*
X172730000Y-103969523D01*
X172682380Y-104112380D01*
X172682380Y-104207619D01*
X172730000Y-104350476D01*
X172777619Y-104398095D01*
X172400000Y-104588571D02*
X172400000Y-105588571D01*
X173682380Y-104826666D02*
X172682380Y-104826666D01*
X173682380Y-105398095D02*
X173110952Y-104969523D01*
X172682380Y-105398095D02*
X173253809Y-104826666D01*
X219116666Y-102445714D02*
X219116666Y-102921904D01*
X219402380Y-102350476D02*
X218402380Y-102683809D01*
X219402380Y-103017142D01*
X218402380Y-103255238D02*
X218402380Y-103874285D01*
X218783333Y-103540952D01*
X218783333Y-103683809D01*
X218830952Y-103779047D01*
X218878571Y-103826666D01*
X218973809Y-103874285D01*
X219211904Y-103874285D01*
X219307142Y-103826666D01*
X219354761Y-103779047D01*
X219402380Y-103683809D01*
X219402380Y-103398095D01*
X219354761Y-103302857D01*
X219307142Y-103255238D01*
X166062380Y-86705714D02*
X165062380Y-86705714D01*
X165062380Y-86943809D01*
X165110000Y-87086666D01*
X165205238Y-87181904D01*
X165300476Y-87229523D01*
X165490952Y-87277142D01*
X165633809Y-87277142D01*
X165824285Y-87229523D01*
X165919523Y-87181904D01*
X166014761Y-87086666D01*
X166062380Y-86943809D01*
X166062380Y-86705714D01*
X166062380Y-88229523D02*
X166062380Y-87658095D01*
X166062380Y-87943809D02*
X165062380Y-87943809D01*
X165205238Y-87848571D01*
X165300476Y-87753333D01*
X165348095Y-87658095D01*
X165062380Y-88562857D02*
X165062380Y-89181904D01*
X165443333Y-88848571D01*
X165443333Y-88991428D01*
X165490952Y-89086666D01*
X165538571Y-89134285D01*
X165633809Y-89181904D01*
X165871904Y-89181904D01*
X165967142Y-89134285D01*
X166014761Y-89086666D01*
X166062380Y-88991428D01*
X166062380Y-88705714D01*
X166014761Y-88610476D01*
X165967142Y-88562857D01*
X246390000Y-102398095D02*
X246342380Y-102302857D01*
X246342380Y-102160000D01*
X246390000Y-102017142D01*
X246485238Y-101921904D01*
X246580476Y-101874285D01*
X246770952Y-101826666D01*
X246913809Y-101826666D01*
X247104285Y-101874285D01*
X247199523Y-101921904D01*
X247294761Y-102017142D01*
X247342380Y-102160000D01*
X247342380Y-102255238D01*
X247294761Y-102398095D01*
X247247142Y-102445714D01*
X246913809Y-102445714D01*
X246913809Y-102255238D01*
X247342380Y-102874285D02*
X246342380Y-102874285D01*
X247342380Y-103445714D01*
X246342380Y-103445714D01*
X247342380Y-103921904D02*
X246342380Y-103921904D01*
X246342380Y-104160000D01*
X246390000Y-104302857D01*
X246485238Y-104398095D01*
X246580476Y-104445714D01*
X246770952Y-104493333D01*
X246913809Y-104493333D01*
X247104285Y-104445714D01*
X247199523Y-104398095D01*
X247294761Y-104302857D01*
X247342380Y-104160000D01*
X247342380Y-103921904D01*
X135487142Y-101517142D02*
X135534761Y-101469523D01*
X135582380Y-101326666D01*
X135582380Y-101231428D01*
X135534761Y-101088571D01*
X135439523Y-100993333D01*
X135344285Y-100945714D01*
X135153809Y-100898095D01*
X135010952Y-100898095D01*
X134820476Y-100945714D01*
X134725238Y-100993333D01*
X134630000Y-101088571D01*
X134582380Y-101231428D01*
X134582380Y-101326666D01*
X134630000Y-101469523D01*
X134677619Y-101517142D01*
X135582380Y-102421904D02*
X135582380Y-101945714D01*
X134582380Y-101945714D01*
X135582380Y-102755238D02*
X134582380Y-102755238D01*
X135582380Y-103326666D02*
X135010952Y-102898095D01*
X134582380Y-103326666D02*
X135153809Y-102755238D01*
X134582380Y-103660000D02*
X134582380Y-104326666D01*
X135582380Y-103898095D01*
X135582380Y-104707619D02*
X134582380Y-104707619D01*
X135296666Y-105040952D01*
X134582380Y-105374285D01*
X135582380Y-105374285D01*
X206178571Y-87086666D02*
X206178571Y-86753333D01*
X206702380Y-86753333D02*
X205702380Y-86753333D01*
X205702380Y-87229523D01*
X206607142Y-88181904D02*
X206654761Y-88134285D01*
X206702380Y-87991428D01*
X206702380Y-87896190D01*
X206654761Y-87753333D01*
X206559523Y-87658095D01*
X206464285Y-87610476D01*
X206273809Y-87562857D01*
X206130952Y-87562857D01*
X205940476Y-87610476D01*
X205845238Y-87658095D01*
X205750000Y-87753333D01*
X205702380Y-87896190D01*
X205702380Y-87991428D01*
X205750000Y-88134285D01*
X205797619Y-88181904D01*
X205797619Y-88562857D02*
X205750000Y-88610476D01*
X205702380Y-88705714D01*
X205702380Y-88943809D01*
X205750000Y-89039047D01*
X205797619Y-89086666D01*
X205892857Y-89134285D01*
X205988095Y-89134285D01*
X206130952Y-89086666D01*
X206702380Y-88515238D01*
X206702380Y-89134285D01*
X190462380Y-101898095D02*
X191462380Y-102231428D01*
X190462380Y-102564761D01*
X191462380Y-102898095D02*
X190462380Y-102898095D01*
X190462380Y-103279047D01*
X190510000Y-103374285D01*
X190557619Y-103421904D01*
X190652857Y-103469523D01*
X190795714Y-103469523D01*
X190890952Y-103421904D01*
X190938571Y-103374285D01*
X190986190Y-103279047D01*
X190986190Y-102898095D01*
X191176666Y-103850476D02*
X191176666Y-104326666D01*
X191462380Y-103755238D02*
X190462380Y-104088571D01*
X191462380Y-104421904D01*
X169860000Y-102160000D02*
X169860000Y-103160000D01*
X170618571Y-102731428D02*
X170666190Y-102874285D01*
X170713809Y-102921904D01*
X170809047Y-102969523D01*
X170951904Y-102969523D01*
X171047142Y-102921904D01*
X171094761Y-102874285D01*
X171142380Y-102779047D01*
X171142380Y-102398095D01*
X170142380Y-102398095D01*
X170142380Y-102731428D01*
X170190000Y-102826666D01*
X170237619Y-102874285D01*
X170332857Y-102921904D01*
X170428095Y-102921904D01*
X170523333Y-102874285D01*
X170570952Y-102826666D01*
X170618571Y-102731428D01*
X170618571Y-102398095D01*
X169860000Y-103160000D02*
X169860000Y-104160000D01*
X170190000Y-103921904D02*
X170142380Y-103826666D01*
X170142380Y-103683809D01*
X170190000Y-103540952D01*
X170285238Y-103445714D01*
X170380476Y-103398095D01*
X170570952Y-103350476D01*
X170713809Y-103350476D01*
X170904285Y-103398095D01*
X170999523Y-103445714D01*
X171094761Y-103540952D01*
X171142380Y-103683809D01*
X171142380Y-103779047D01*
X171094761Y-103921904D01*
X171047142Y-103969523D01*
X170713809Y-103969523D01*
X170713809Y-103779047D01*
X174940000Y-102160000D02*
X174940000Y-103160000D01*
X175698571Y-102731428D02*
X175746190Y-102874285D01*
X175793809Y-102921904D01*
X175889047Y-102969523D01*
X176031904Y-102969523D01*
X176127142Y-102921904D01*
X176174761Y-102874285D01*
X176222380Y-102779047D01*
X176222380Y-102398095D01*
X175222380Y-102398095D01*
X175222380Y-102731428D01*
X175270000Y-102826666D01*
X175317619Y-102874285D01*
X175412857Y-102921904D01*
X175508095Y-102921904D01*
X175603333Y-102874285D01*
X175650952Y-102826666D01*
X175698571Y-102731428D01*
X175698571Y-102398095D01*
X174940000Y-103160000D02*
X174940000Y-104160000D01*
X176222380Y-103969523D02*
X175746190Y-103636190D01*
X176222380Y-103398095D02*
X175222380Y-103398095D01*
X175222380Y-103779047D01*
X175270000Y-103874285D01*
X175317619Y-103921904D01*
X175412857Y-103969523D01*
X175555714Y-103969523D01*
X175650952Y-103921904D01*
X175698571Y-103874285D01*
X175746190Y-103779047D01*
X175746190Y-103398095D01*
X150675851Y-102394312D02*
X149675851Y-102394312D01*
X149675851Y-102632408D01*
X149723471Y-102775265D01*
X149818709Y-102870503D01*
X149913947Y-102918122D01*
X150104423Y-102965741D01*
X150247280Y-102965741D01*
X150437756Y-102918122D01*
X150532994Y-102870503D01*
X150628232Y-102775265D01*
X150675851Y-102632408D01*
X150675851Y-102394312D01*
X150104423Y-103537169D02*
X150056804Y-103441931D01*
X150009185Y-103394312D01*
X149913947Y-103346693D01*
X149866328Y-103346693D01*
X149771090Y-103394312D01*
X149723471Y-103441931D01*
X149675851Y-103537169D01*
X149675851Y-103727646D01*
X149723471Y-103822884D01*
X149771090Y-103870503D01*
X149866328Y-103918122D01*
X149913947Y-103918122D01*
X150009185Y-103870503D01*
X150056804Y-103822884D01*
X150104423Y-103727646D01*
X150104423Y-103537169D01*
X150152042Y-103441931D01*
X150199661Y-103394312D01*
X150294899Y-103346693D01*
X150485375Y-103346693D01*
X150580613Y-103394312D01*
X150628232Y-103441931D01*
X150675851Y-103537169D01*
X150675851Y-103727646D01*
X150628232Y-103822884D01*
X150580613Y-103870503D01*
X150485375Y-103918122D01*
X150294899Y-103918122D01*
X150199661Y-103870503D01*
X150152042Y-103822884D01*
X150104423Y-103727646D01*
X238440000Y-85729523D02*
X238440000Y-86681904D01*
X239674761Y-85920000D02*
X239722380Y-86062857D01*
X239722380Y-86300952D01*
X239674761Y-86396190D01*
X239627142Y-86443809D01*
X239531904Y-86491428D01*
X239436666Y-86491428D01*
X239341428Y-86443809D01*
X239293809Y-86396190D01*
X239246190Y-86300952D01*
X239198571Y-86110476D01*
X239150952Y-86015238D01*
X239103333Y-85967619D01*
X239008095Y-85920000D01*
X238912857Y-85920000D01*
X238817619Y-85967619D01*
X238770000Y-86015238D01*
X238722380Y-86110476D01*
X238722380Y-86348571D01*
X238770000Y-86491428D01*
X238440000Y-86681904D02*
X238440000Y-87491428D01*
X239722380Y-87396190D02*
X239722380Y-86920000D01*
X238722380Y-86920000D01*
X238440000Y-87491428D02*
X238440000Y-88348571D01*
X239436666Y-87681904D02*
X239436666Y-88158095D01*
X239722380Y-87586666D02*
X238722380Y-87920000D01*
X239722380Y-88253333D01*
X238440000Y-88348571D02*
X238440000Y-89205714D01*
X238722380Y-88443809D02*
X239722380Y-88777142D01*
X238722380Y-89110476D01*
X238440000Y-89205714D02*
X238440000Y-90110476D01*
X239198571Y-89443809D02*
X239198571Y-89777142D01*
X239722380Y-89920000D02*
X239722380Y-89443809D01*
X238722380Y-89443809D01*
X238722380Y-89920000D01*
X200469878Y-101027763D02*
X200469878Y-101932525D01*
X201228449Y-101265858D02*
X201228449Y-101599192D01*
X201752258Y-101742049D02*
X201752258Y-101265858D01*
X200752258Y-101265858D01*
X200752258Y-101742049D01*
X200469878Y-101932525D02*
X200469878Y-102408715D01*
X201752258Y-102170620D02*
X200752258Y-102170620D01*
X200469878Y-102408715D02*
X200469878Y-103456334D01*
X201752258Y-102646811D02*
X200752258Y-102646811D01*
X201752258Y-103218239D01*
X200752258Y-103218239D01*
X200469878Y-103456334D02*
X200469878Y-104218239D01*
X200752258Y-103551572D02*
X200752258Y-104123001D01*
X201752258Y-103837287D02*
X200752258Y-103837287D01*
X200469878Y-104218239D02*
X200469878Y-105170620D01*
X200752258Y-104361096D02*
X200752258Y-105027763D01*
X201752258Y-104599192D01*
X137170000Y-87158095D02*
X137122380Y-87062857D01*
X137122380Y-86920000D01*
X137170000Y-86777142D01*
X137265238Y-86681904D01*
X137360476Y-86634285D01*
X137550952Y-86586666D01*
X137693809Y-86586666D01*
X137884285Y-86634285D01*
X137979523Y-86681904D01*
X138074761Y-86777142D01*
X138122380Y-86920000D01*
X138122380Y-87015238D01*
X138074761Y-87158095D01*
X138027142Y-87205714D01*
X137693809Y-87205714D01*
X137693809Y-87015238D01*
X138122380Y-87634285D02*
X137122380Y-87634285D01*
X138122380Y-88205714D01*
X137122380Y-88205714D01*
X138122380Y-88681904D02*
X137122380Y-88681904D01*
X137122380Y-88920000D01*
X137170000Y-89062857D01*
X137265238Y-89158095D01*
X137360476Y-89205714D01*
X137550952Y-89253333D01*
X137693809Y-89253333D01*
X137884285Y-89205714D01*
X137979523Y-89158095D01*
X138074761Y-89062857D01*
X138122380Y-88920000D01*
X138122380Y-88681904D01*
X208956666Y-101969523D02*
X208956666Y-102445714D01*
X209242380Y-101874285D02*
X208242380Y-102207619D01*
X209242380Y-102540952D01*
X209242380Y-103398095D02*
X209242380Y-102826666D01*
X209242380Y-103112380D02*
X208242380Y-103112380D01*
X208385238Y-103017142D01*
X208480476Y-102921904D01*
X208528095Y-102826666D01*
X208242380Y-104017142D02*
X208242380Y-104112380D01*
X208290000Y-104207619D01*
X208337619Y-104255238D01*
X208432857Y-104302857D01*
X208623333Y-104350476D01*
X208861428Y-104350476D01*
X209051904Y-104302857D01*
X209147142Y-104255238D01*
X209194761Y-104207619D01*
X209242380Y-104112380D01*
X209242380Y-104017142D01*
X209194761Y-103921904D01*
X209147142Y-103874285D01*
X209051904Y-103826666D01*
X208861428Y-103779047D01*
X208623333Y-103779047D01*
X208432857Y-103826666D01*
X208337619Y-103874285D01*
X208290000Y-103921904D01*
X208242380Y-104017142D01*
X171142380Y-86705714D02*
X170142380Y-86705714D01*
X170142380Y-86943809D01*
X170190000Y-87086666D01*
X170285238Y-87181904D01*
X170380476Y-87229523D01*
X170570952Y-87277142D01*
X170713809Y-87277142D01*
X170904285Y-87229523D01*
X170999523Y-87181904D01*
X171094761Y-87086666D01*
X171142380Y-86943809D01*
X171142380Y-86705714D01*
X171142380Y-88229523D02*
X171142380Y-87658095D01*
X171142380Y-87943809D02*
X170142380Y-87943809D01*
X170285238Y-87848571D01*
X170380476Y-87753333D01*
X170428095Y-87658095D01*
X170142380Y-89134285D02*
X170142380Y-88658095D01*
X170618571Y-88610476D01*
X170570952Y-88658095D01*
X170523333Y-88753333D01*
X170523333Y-88991428D01*
X170570952Y-89086666D01*
X170618571Y-89134285D01*
X170713809Y-89181904D01*
X170951904Y-89181904D01*
X171047142Y-89134285D01*
X171094761Y-89086666D01*
X171142380Y-88991428D01*
X171142380Y-88753333D01*
X171094761Y-88658095D01*
X171047142Y-88610476D01*
X235900000Y-100969523D02*
X235900000Y-101969523D01*
X237087142Y-101779047D02*
X237134761Y-101731428D01*
X237182380Y-101588571D01*
X237182380Y-101493333D01*
X237134761Y-101350476D01*
X237039523Y-101255238D01*
X236944285Y-101207619D01*
X236753809Y-101160000D01*
X236610952Y-101160000D01*
X236420476Y-101207619D01*
X236325238Y-101255238D01*
X236230000Y-101350476D01*
X236182380Y-101493333D01*
X236182380Y-101588571D01*
X236230000Y-101731428D01*
X236277619Y-101779047D01*
X235900000Y-101969523D02*
X235900000Y-102826666D01*
X236658571Y-102540952D02*
X236658571Y-102207619D01*
X237182380Y-102207619D02*
X236182380Y-102207619D01*
X236182380Y-102683809D01*
X235900000Y-102826666D02*
X235900000Y-103826666D01*
X236230000Y-103588571D02*
X236182380Y-103493333D01*
X236182380Y-103350476D01*
X236230000Y-103207619D01*
X236325238Y-103112380D01*
X236420476Y-103064761D01*
X236610952Y-103017142D01*
X236753809Y-103017142D01*
X236944285Y-103064761D01*
X237039523Y-103112380D01*
X237134761Y-103207619D01*
X237182380Y-103350476D01*
X237182380Y-103445714D01*
X237134761Y-103588571D01*
X237087142Y-103636190D01*
X236753809Y-103636190D01*
X236753809Y-103445714D01*
X235900000Y-103826666D02*
X235900000Y-104302857D01*
X237182380Y-104064761D02*
X236182380Y-104064761D01*
X235900000Y-104302857D02*
X235900000Y-105350476D01*
X237182380Y-104540952D02*
X236182380Y-104540952D01*
X237182380Y-105112380D01*
X236182380Y-105112380D01*
X148282380Y-87181904D02*
X147282380Y-87181904D01*
X147282380Y-87420000D01*
X147330000Y-87562857D01*
X147425238Y-87658095D01*
X147520476Y-87705714D01*
X147710952Y-87753333D01*
X147853809Y-87753333D01*
X148044285Y-87705714D01*
X148139523Y-87658095D01*
X148234761Y-87562857D01*
X148282380Y-87420000D01*
X148282380Y-87181904D01*
X147282380Y-88086666D02*
X147282380Y-88705714D01*
X147663333Y-88372380D01*
X147663333Y-88515238D01*
X147710952Y-88610476D01*
X147758571Y-88658095D01*
X147853809Y-88705714D01*
X148091904Y-88705714D01*
X148187142Y-88658095D01*
X148234761Y-88610476D01*
X148282380Y-88515238D01*
X148282380Y-88229523D01*
X148234761Y-88134285D01*
X148187142Y-88086666D01*
X187970000Y-87158095D02*
X187922380Y-87062857D01*
X187922380Y-86920000D01*
X187970000Y-86777142D01*
X188065238Y-86681904D01*
X188160476Y-86634285D01*
X188350952Y-86586666D01*
X188493809Y-86586666D01*
X188684285Y-86634285D01*
X188779523Y-86681904D01*
X188874761Y-86777142D01*
X188922380Y-86920000D01*
X188922380Y-87015238D01*
X188874761Y-87158095D01*
X188827142Y-87205714D01*
X188493809Y-87205714D01*
X188493809Y-87015238D01*
X188922380Y-87634285D02*
X187922380Y-87634285D01*
X188922380Y-88205714D01*
X187922380Y-88205714D01*
X188922380Y-88681904D02*
X187922380Y-88681904D01*
X187922380Y-88920000D01*
X187970000Y-89062857D01*
X188065238Y-89158095D01*
X188160476Y-89205714D01*
X188350952Y-89253333D01*
X188493809Y-89253333D01*
X188684285Y-89205714D01*
X188779523Y-89158095D01*
X188874761Y-89062857D01*
X188922380Y-88920000D01*
X188922380Y-88681904D01*
X228280000Y-86467619D02*
X228280000Y-87515238D01*
X228562380Y-86896190D02*
X228562380Y-87086666D01*
X228610000Y-87181904D01*
X228705238Y-87277142D01*
X228895714Y-87324761D01*
X229229047Y-87324761D01*
X229419523Y-87277142D01*
X229514761Y-87181904D01*
X229562380Y-87086666D01*
X229562380Y-86896190D01*
X229514761Y-86800952D01*
X229419523Y-86705714D01*
X229229047Y-86658095D01*
X228895714Y-86658095D01*
X228705238Y-86705714D01*
X228610000Y-86800952D01*
X228562380Y-86896190D01*
X228280000Y-87515238D02*
X228280000Y-88372380D01*
X228562380Y-87610476D02*
X229562380Y-87943809D01*
X228562380Y-88277142D01*
X228280000Y-88372380D02*
X228280000Y-89372380D01*
X229562380Y-89181904D02*
X229086190Y-88848571D01*
X229562380Y-88610476D02*
X228562380Y-88610476D01*
X228562380Y-88991428D01*
X228610000Y-89086666D01*
X228657619Y-89134285D01*
X228752857Y-89181904D01*
X228895714Y-89181904D01*
X228990952Y-89134285D01*
X229038571Y-89086666D01*
X229086190Y-88991428D01*
X229086190Y-88610476D01*
X211485797Y-102412133D02*
X211485797Y-102888323D01*
X211771511Y-102316895D02*
X210771511Y-102650228D01*
X211771511Y-102983561D01*
X211771511Y-103364514D02*
X211771511Y-103554990D01*
X211723892Y-103650228D01*
X211676273Y-103697847D01*
X211533416Y-103793085D01*
X211342940Y-103840704D01*
X210961988Y-103840704D01*
X210866750Y-103793085D01*
X210819131Y-103745466D01*
X210771511Y-103650228D01*
X210771511Y-103459752D01*
X210819131Y-103364514D01*
X210866750Y-103316895D01*
X210961988Y-103269276D01*
X211200083Y-103269276D01*
X211295321Y-103316895D01*
X211342940Y-103364514D01*
X211390559Y-103459752D01*
X211390559Y-103650228D01*
X211342940Y-103745466D01*
X211295321Y-103793085D01*
X211200083Y-103840704D01*
X157160000Y-102255238D02*
X157160000Y-103112380D01*
X158156666Y-102445714D02*
X158156666Y-102921904D01*
X158442380Y-102350476D02*
X157442380Y-102683809D01*
X158442380Y-103017142D01*
X157160000Y-103112380D02*
X157160000Y-104064761D01*
X158394761Y-103302857D02*
X158442380Y-103445714D01*
X158442380Y-103683809D01*
X158394761Y-103779047D01*
X158347142Y-103826666D01*
X158251904Y-103874285D01*
X158156666Y-103874285D01*
X158061428Y-103826666D01*
X158013809Y-103779047D01*
X157966190Y-103683809D01*
X157918571Y-103493333D01*
X157870952Y-103398095D01*
X157823333Y-103350476D01*
X157728095Y-103302857D01*
X157632857Y-103302857D01*
X157537619Y-103350476D01*
X157490000Y-103398095D01*
X157442380Y-103493333D01*
X157442380Y-103731428D01*
X157490000Y-103874285D01*
X233360000Y-102183809D02*
X233360000Y-103183809D01*
X234547142Y-102993333D02*
X234594761Y-102945714D01*
X234642380Y-102802857D01*
X234642380Y-102707619D01*
X234594761Y-102564761D01*
X234499523Y-102469523D01*
X234404285Y-102421904D01*
X234213809Y-102374285D01*
X234070952Y-102374285D01*
X233880476Y-102421904D01*
X233785238Y-102469523D01*
X233690000Y-102564761D01*
X233642380Y-102707619D01*
X233642380Y-102802857D01*
X233690000Y-102945714D01*
X233737619Y-102993333D01*
X233360000Y-103183809D02*
X233360000Y-104136190D01*
X233642380Y-103326666D02*
X233642380Y-103945714D01*
X234023333Y-103612380D01*
X234023333Y-103755238D01*
X234070952Y-103850476D01*
X234118571Y-103898095D01*
X234213809Y-103945714D01*
X234451904Y-103945714D01*
X234547142Y-103898095D01*
X234594761Y-103850476D01*
X234642380Y-103755238D01*
X234642380Y-103469523D01*
X234594761Y-103374285D01*
X234547142Y-103326666D01*
X244421428Y-86634285D02*
X244421428Y-87396190D01*
X244802380Y-87015238D02*
X244040476Y-87015238D01*
X243802380Y-88348571D02*
X243802380Y-87872380D01*
X244278571Y-87824761D01*
X244230952Y-87872380D01*
X244183333Y-87967619D01*
X244183333Y-88205714D01*
X244230952Y-88300952D01*
X244278571Y-88348571D01*
X244373809Y-88396190D01*
X244611904Y-88396190D01*
X244707142Y-88348571D01*
X244754761Y-88300952D01*
X244802380Y-88205714D01*
X244802380Y-87967619D01*
X244754761Y-87872380D01*
X244707142Y-87824761D01*
X243802380Y-88681904D02*
X244802380Y-89015238D01*
X243802380Y-89348571D01*
X196256666Y-86729523D02*
X196256666Y-87205714D01*
X196542380Y-86634285D02*
X195542380Y-86967619D01*
X196542380Y-87300952D01*
X196542380Y-88158095D02*
X196542380Y-87586666D01*
X196542380Y-87872380D02*
X195542380Y-87872380D01*
X195685238Y-87777142D01*
X195780476Y-87681904D01*
X195828095Y-87586666D01*
X195542380Y-89062857D02*
X195542380Y-88586666D01*
X196018571Y-88539047D01*
X195970952Y-88586666D01*
X195923333Y-88681904D01*
X195923333Y-88920000D01*
X195970952Y-89015238D01*
X196018571Y-89062857D01*
X196113809Y-89110476D01*
X196351904Y-89110476D01*
X196447142Y-89062857D01*
X196494761Y-89015238D01*
X196542380Y-88920000D01*
X196542380Y-88681904D01*
X196494761Y-88586666D01*
X196447142Y-88539047D01*
X214036666Y-87205714D02*
X214036666Y-87681904D01*
X214322380Y-87110476D02*
X213322380Y-87443809D01*
X214322380Y-87777142D01*
X214322380Y-88634285D02*
X214322380Y-88062857D01*
X214322380Y-88348571D02*
X213322380Y-88348571D01*
X213465238Y-88253333D01*
X213560476Y-88158095D01*
X213608095Y-88062857D01*
X157490000Y-87158095D02*
X157442380Y-87062857D01*
X157442380Y-86920000D01*
X157490000Y-86777142D01*
X157585238Y-86681904D01*
X157680476Y-86634285D01*
X157870952Y-86586666D01*
X158013809Y-86586666D01*
X158204285Y-86634285D01*
X158299523Y-86681904D01*
X158394761Y-86777142D01*
X158442380Y-86920000D01*
X158442380Y-87015238D01*
X158394761Y-87158095D01*
X158347142Y-87205714D01*
X158013809Y-87205714D01*
X158013809Y-87015238D01*
X158442380Y-87634285D02*
X157442380Y-87634285D01*
X158442380Y-88205714D01*
X157442380Y-88205714D01*
X158442380Y-88681904D02*
X157442380Y-88681904D01*
X157442380Y-88920000D01*
X157490000Y-89062857D01*
X157585238Y-89158095D01*
X157680476Y-89205714D01*
X157870952Y-89253333D01*
X158013809Y-89253333D01*
X158204285Y-89205714D01*
X158299523Y-89158095D01*
X158394761Y-89062857D01*
X158442380Y-88920000D01*
X158442380Y-88681904D01*
X197800000Y-101088571D02*
X197800000Y-101993333D01*
X198558571Y-101326666D02*
X198558571Y-101660000D01*
X199082380Y-101802857D02*
X199082380Y-101326666D01*
X198082380Y-101326666D01*
X198082380Y-101802857D01*
X197800000Y-101993333D02*
X197800000Y-102469523D01*
X199082380Y-102231428D02*
X198082380Y-102231428D01*
X197800000Y-102469523D02*
X197800000Y-103517142D01*
X199082380Y-102707619D02*
X198082380Y-102707619D01*
X199082380Y-103279047D01*
X198082380Y-103279047D01*
X197800000Y-103517142D02*
X197800000Y-104279047D01*
X198082380Y-103612380D02*
X198082380Y-104183809D01*
X199082380Y-103898095D02*
X198082380Y-103898095D01*
X197800000Y-104279047D02*
X197800000Y-105231428D01*
X198082380Y-104993333D02*
X198082380Y-104517142D01*
X198558571Y-104469523D01*
X198510952Y-104517142D01*
X198463333Y-104612380D01*
X198463333Y-104850476D01*
X198510952Y-104945714D01*
X198558571Y-104993333D01*
X198653809Y-105040952D01*
X198891904Y-105040952D01*
X198987142Y-104993333D01*
X199034761Y-104945714D01*
X199082380Y-104850476D01*
X199082380Y-104612380D01*
X199034761Y-104517142D01*
X198987142Y-104469523D01*
X129220000Y-101088571D02*
X129220000Y-101993333D01*
X129978571Y-101326666D02*
X129978571Y-101660000D01*
X130502380Y-101802857D02*
X130502380Y-101326666D01*
X129502380Y-101326666D01*
X129502380Y-101802857D01*
X129220000Y-101993333D02*
X129220000Y-102469523D01*
X130502380Y-102231428D02*
X129502380Y-102231428D01*
X129220000Y-102469523D02*
X129220000Y-103517142D01*
X130502380Y-102707619D02*
X129502380Y-102707619D01*
X130502380Y-103279047D01*
X129502380Y-103279047D01*
X129220000Y-103517142D02*
X129220000Y-104279047D01*
X129502380Y-103612380D02*
X129502380Y-104183809D01*
X130502380Y-103898095D02*
X129502380Y-103898095D01*
X129220000Y-104279047D02*
X129220000Y-105231428D01*
X130502380Y-105040952D02*
X130502380Y-104469523D01*
X130502380Y-104755238D02*
X129502380Y-104755238D01*
X129645238Y-104660000D01*
X129740476Y-104564761D01*
X129788095Y-104469523D01*
X180020000Y-86181904D02*
X180020000Y-87229523D01*
X181302380Y-86420000D02*
X180302380Y-86420000D01*
X180778571Y-86420000D02*
X180778571Y-86991428D01*
X181302380Y-86991428D02*
X180302380Y-86991428D01*
X180020000Y-87229523D02*
X180020000Y-88086666D01*
X181016666Y-87420000D02*
X181016666Y-87896190D01*
X181302380Y-87324761D02*
X180302380Y-87658095D01*
X181302380Y-87991428D01*
X180020000Y-88086666D02*
X180020000Y-88896190D01*
X181302380Y-88800952D02*
X181302380Y-88324761D01*
X180302380Y-88324761D01*
X180020000Y-88896190D02*
X180020000Y-89658095D01*
X180302380Y-88991428D02*
X180302380Y-89562857D01*
X181302380Y-89277142D02*
X180302380Y-89277142D01*
X201336666Y-86729523D02*
X201336666Y-87205714D01*
X201622380Y-86634285D02*
X200622380Y-86967619D01*
X201622380Y-87300952D01*
X201622380Y-88158095D02*
X201622380Y-87586666D01*
X201622380Y-87872380D02*
X200622380Y-87872380D01*
X200765238Y-87777142D01*
X200860476Y-87681904D01*
X200908095Y-87586666D01*
X200622380Y-88491428D02*
X200622380Y-89110476D01*
X201003333Y-88777142D01*
X201003333Y-88920000D01*
X201050952Y-89015238D01*
X201098571Y-89062857D01*
X201193809Y-89110476D01*
X201431904Y-89110476D01*
X201527142Y-89062857D01*
X201574761Y-89015238D01*
X201622380Y-88920000D01*
X201622380Y-88634285D01*
X201574761Y-88539047D01*
X201527142Y-88491428D01*
X186096666Y-101969523D02*
X186096666Y-102445714D01*
X186382380Y-101874285D02*
X185382380Y-102207619D01*
X186382380Y-102540952D01*
X186382380Y-103398095D02*
X186382380Y-102826666D01*
X186382380Y-103112380D02*
X185382380Y-103112380D01*
X185525238Y-103017142D01*
X185620476Y-102921904D01*
X185668095Y-102826666D01*
X185810952Y-103969523D02*
X185763333Y-103874285D01*
X185715714Y-103826666D01*
X185620476Y-103779047D01*
X185572857Y-103779047D01*
X185477619Y-103826666D01*
X185430000Y-103874285D01*
X185382380Y-103969523D01*
X185382380Y-104160000D01*
X185430000Y-104255238D01*
X185477619Y-104302857D01*
X185572857Y-104350476D01*
X185620476Y-104350476D01*
X185715714Y-104302857D01*
X185763333Y-104255238D01*
X185810952Y-104160000D01*
X185810952Y-103969523D01*
X185858571Y-103874285D01*
X185906190Y-103826666D01*
X186001428Y-103779047D01*
X186191904Y-103779047D01*
X186287142Y-103826666D01*
X186334761Y-103874285D01*
X186382380Y-103969523D01*
X186382380Y-104160000D01*
X186334761Y-104255238D01*
X186287142Y-104302857D01*
X186191904Y-104350476D01*
X186001428Y-104350476D01*
X185906190Y-104302857D01*
X185858571Y-104255238D01*
X185810952Y-104160000D01*
X246390000Y-87158095D02*
X246342380Y-87062857D01*
X246342380Y-86920000D01*
X246390000Y-86777142D01*
X246485238Y-86681904D01*
X246580476Y-86634285D01*
X246770952Y-86586666D01*
X246913809Y-86586666D01*
X247104285Y-86634285D01*
X247199523Y-86681904D01*
X247294761Y-86777142D01*
X247342380Y-86920000D01*
X247342380Y-87015238D01*
X247294761Y-87158095D01*
X247247142Y-87205714D01*
X246913809Y-87205714D01*
X246913809Y-87015238D01*
X247342380Y-87634285D02*
X246342380Y-87634285D01*
X247342380Y-88205714D01*
X246342380Y-88205714D01*
X247342380Y-88681904D02*
X246342380Y-88681904D01*
X246342380Y-88920000D01*
X246390000Y-89062857D01*
X246485238Y-89158095D01*
X246580476Y-89205714D01*
X246770952Y-89253333D01*
X246913809Y-89253333D01*
X247104285Y-89205714D01*
X247199523Y-89158095D01*
X247294761Y-89062857D01*
X247342380Y-88920000D01*
X247342380Y-88681904D01*
D11*
X146027142Y-110565714D02*
X147027142Y-110565714D01*
X147027142Y-112137142D02*
X147027142Y-109137142D01*
X145598571Y-109137142D01*
X142741428Y-112137142D02*
X143741428Y-110708571D01*
X144455714Y-112137142D02*
X144455714Y-109137142D01*
X143312857Y-109137142D01*
X143027142Y-109280000D01*
X142884285Y-109422857D01*
X142741428Y-109708571D01*
X142741428Y-110137142D01*
X142884285Y-110422857D01*
X143027142Y-110565714D01*
X143312857Y-110708571D01*
X144455714Y-110708571D01*
X140884285Y-109137142D02*
X140312857Y-109137142D01*
X140027142Y-109280000D01*
X139741428Y-109565714D01*
X139598571Y-110137142D01*
X139598571Y-111137142D01*
X139741428Y-111708571D01*
X140027142Y-111994285D01*
X140312857Y-112137142D01*
X140884285Y-112137142D01*
X141170000Y-111994285D01*
X141455714Y-111708571D01*
X141598571Y-111137142D01*
X141598571Y-110137142D01*
X141455714Y-109565714D01*
X141170000Y-109280000D01*
X140884285Y-109137142D01*
X138312857Y-112137142D02*
X138312857Y-109137142D01*
X136598571Y-112137142D01*
X136598571Y-109137142D01*
X135598571Y-109137142D02*
X133884285Y-109137142D01*
X134741428Y-112137142D02*
X134741428Y-109137142D01*
X130598571Y-110137142D02*
X128312857Y-110994285D01*
X130598571Y-111851428D01*
D10*
X128216387Y-87253325D02*
X128216387Y-87443801D01*
X128168768Y-87539039D01*
X128121149Y-87586658D01*
X127978292Y-87681896D01*
X127787816Y-87729515D01*
X127406864Y-87729515D01*
X127311626Y-87681896D01*
X127264007Y-87634277D01*
X127216387Y-87539039D01*
X127216387Y-87348563D01*
X127264007Y-87253325D01*
X127311626Y-87205706D01*
X127406864Y-87158087D01*
X127644959Y-87158087D01*
X127740197Y-87205706D01*
X127787816Y-87253325D01*
X127835435Y-87348563D01*
X127835435Y-87539039D01*
X127787816Y-87634277D01*
X127740197Y-87681896D01*
X127644959Y-87729515D01*
X127216387Y-88062849D02*
X127216387Y-88729515D01*
X128216387Y-88300944D01*
X191176666Y-86729523D02*
X191176666Y-87205714D01*
X191462380Y-86634285D02*
X190462380Y-86967619D01*
X191462380Y-87300952D01*
X191462380Y-88158095D02*
X191462380Y-87586666D01*
X191462380Y-87872380D02*
X190462380Y-87872380D01*
X190605238Y-87777142D01*
X190700476Y-87681904D01*
X190748095Y-87586666D01*
X190462380Y-88491428D02*
X190462380Y-89158095D01*
X191462380Y-88729523D01*
X133042380Y-86681904D02*
X132042380Y-86681904D01*
X132042380Y-86920000D01*
X132090000Y-87062857D01*
X132185238Y-87158095D01*
X132280476Y-87205714D01*
X132470952Y-87253333D01*
X132613809Y-87253333D01*
X132804285Y-87205714D01*
X132899523Y-87158095D01*
X132994761Y-87062857D01*
X133042380Y-86920000D01*
X133042380Y-86681904D01*
X132042380Y-87872380D02*
X132042380Y-88062857D01*
X132090000Y-88158095D01*
X132185238Y-88253333D01*
X132375714Y-88300952D01*
X132709047Y-88300952D01*
X132899523Y-88253333D01*
X132994761Y-88158095D01*
X133042380Y-88062857D01*
X133042380Y-87872380D01*
X132994761Y-87777142D01*
X132899523Y-87681904D01*
X132709047Y-87634285D01*
X132375714Y-87634285D01*
X132185238Y-87681904D01*
X132090000Y-87777142D01*
X132042380Y-87872380D01*
X132518571Y-88729523D02*
X132518571Y-89062857D01*
X133042380Y-89205714D02*
X133042380Y-88729523D01*
X132042380Y-88729523D01*
X132042380Y-89205714D01*
X208718571Y-87086666D02*
X208718571Y-86753333D01*
X209242380Y-86753333D02*
X208242380Y-86753333D01*
X208242380Y-87229523D01*
X209147142Y-88181904D02*
X209194761Y-88134285D01*
X209242380Y-87991428D01*
X209242380Y-87896190D01*
X209194761Y-87753333D01*
X209099523Y-87658095D01*
X209004285Y-87610476D01*
X208813809Y-87562857D01*
X208670952Y-87562857D01*
X208480476Y-87610476D01*
X208385238Y-87658095D01*
X208290000Y-87753333D01*
X208242380Y-87896190D01*
X208242380Y-87991428D01*
X208290000Y-88134285D01*
X208337619Y-88181904D01*
X209242380Y-89134285D02*
X209242380Y-88562857D01*
X209242380Y-88848571D02*
X208242380Y-88848571D01*
X208385238Y-88753333D01*
X208480476Y-88658095D01*
X208528095Y-88562857D01*
X162240000Y-101779047D02*
X162240000Y-102588571D01*
X163522380Y-102493333D02*
X163522380Y-102017142D01*
X162522380Y-102017142D01*
X162240000Y-102588571D02*
X162240000Y-103588571D01*
X163522380Y-102826666D02*
X162522380Y-102826666D01*
X162522380Y-103064761D01*
X162570000Y-103207619D01*
X162665238Y-103302857D01*
X162760476Y-103350476D01*
X162950952Y-103398095D01*
X163093809Y-103398095D01*
X163284285Y-103350476D01*
X163379523Y-103302857D01*
X163474761Y-103207619D01*
X163522380Y-103064761D01*
X163522380Y-102826666D01*
X162240000Y-103588571D02*
X162240000Y-104540952D01*
X163474761Y-103779047D02*
X163522380Y-103921904D01*
X163522380Y-104160000D01*
X163474761Y-104255238D01*
X163427142Y-104302857D01*
X163331904Y-104350476D01*
X163236666Y-104350476D01*
X163141428Y-104302857D01*
X163093809Y-104255238D01*
X163046190Y-104160000D01*
X162998571Y-103969523D01*
X162950952Y-103874285D01*
X162903333Y-103826666D01*
X162808095Y-103779047D01*
X162712857Y-103779047D01*
X162617619Y-103826666D01*
X162570000Y-103874285D01*
X162522380Y-103969523D01*
X162522380Y-104207619D01*
X162570000Y-104350476D01*
X198796666Y-86729523D02*
X198796666Y-87205714D01*
X199082380Y-86634285D02*
X198082380Y-86967619D01*
X199082380Y-87300952D01*
X199082380Y-88158095D02*
X199082380Y-87586666D01*
X199082380Y-87872380D02*
X198082380Y-87872380D01*
X198225238Y-87777142D01*
X198320476Y-87681904D01*
X198368095Y-87586666D01*
X198415714Y-89015238D02*
X199082380Y-89015238D01*
X198034761Y-88777142D02*
X198749047Y-88539047D01*
X198749047Y-89158095D01*
X172593504Y-87151041D02*
X172545884Y-87055803D01*
X172545884Y-86912946D01*
X172593504Y-86770088D01*
X172688742Y-86674850D01*
X172783980Y-86627231D01*
X172974456Y-86579612D01*
X173117313Y-86579612D01*
X173307789Y-86627231D01*
X173403027Y-86674850D01*
X173498265Y-86770088D01*
X173545884Y-86912946D01*
X173545884Y-87008184D01*
X173498265Y-87151041D01*
X173450646Y-87198660D01*
X173117313Y-87198660D01*
X173117313Y-87008184D01*
X173545884Y-87627231D02*
X172545884Y-87627231D01*
X173545884Y-88198660D01*
X172545884Y-88198660D01*
X173545884Y-88674850D02*
X172545884Y-88674850D01*
X172545884Y-88912946D01*
X172593504Y-89055803D01*
X172688742Y-89151041D01*
X172783980Y-89198660D01*
X172974456Y-89246279D01*
X173117313Y-89246279D01*
X173307789Y-89198660D01*
X173403027Y-89151041D01*
X173498265Y-89055803D01*
X173545884Y-88912946D01*
X173545884Y-88674850D01*
X178476666Y-101969523D02*
X178476666Y-102445714D01*
X178762380Y-101874285D02*
X177762380Y-102207619D01*
X178762380Y-102540952D01*
X177857619Y-102826666D02*
X177810000Y-102874285D01*
X177762380Y-102969523D01*
X177762380Y-103207619D01*
X177810000Y-103302857D01*
X177857619Y-103350476D01*
X177952857Y-103398095D01*
X178048095Y-103398095D01*
X178190952Y-103350476D01*
X178762380Y-102779047D01*
X178762380Y-103398095D01*
X178762380Y-104350476D02*
X178762380Y-103779047D01*
X178762380Y-104064761D02*
X177762380Y-104064761D01*
X177905238Y-103969523D01*
X178000476Y-103874285D01*
X178048095Y-103779047D01*
X168602380Y-86705714D02*
X167602380Y-86705714D01*
X167602380Y-86943809D01*
X167650000Y-87086666D01*
X167745238Y-87181904D01*
X167840476Y-87229523D01*
X168030952Y-87277142D01*
X168173809Y-87277142D01*
X168364285Y-87229523D01*
X168459523Y-87181904D01*
X168554761Y-87086666D01*
X168602380Y-86943809D01*
X168602380Y-86705714D01*
X168602380Y-88229523D02*
X168602380Y-87658095D01*
X168602380Y-87943809D02*
X167602380Y-87943809D01*
X167745238Y-87848571D01*
X167840476Y-87753333D01*
X167888095Y-87658095D01*
X167935714Y-89086666D02*
X168602380Y-89086666D01*
X167554761Y-88848571D02*
X168269047Y-88610476D01*
X168269047Y-89229523D01*
X155902380Y-101945714D02*
X154902380Y-101945714D01*
X154902380Y-102183809D01*
X154950000Y-102326666D01*
X155045238Y-102421904D01*
X155140476Y-102469523D01*
X155330952Y-102517142D01*
X155473809Y-102517142D01*
X155664285Y-102469523D01*
X155759523Y-102421904D01*
X155854761Y-102326666D01*
X155902380Y-102183809D01*
X155902380Y-101945714D01*
X155902380Y-103469523D02*
X155902380Y-102898095D01*
X155902380Y-103183809D02*
X154902380Y-103183809D01*
X155045238Y-103088571D01*
X155140476Y-102993333D01*
X155188095Y-102898095D01*
X154902380Y-104088571D02*
X154902380Y-104183809D01*
X154950000Y-104279047D01*
X154997619Y-104326666D01*
X155092857Y-104374285D01*
X155283333Y-104421904D01*
X155521428Y-104421904D01*
X155711904Y-104374285D01*
X155807142Y-104326666D01*
X155854761Y-104279047D01*
X155902380Y-104183809D01*
X155902380Y-104088571D01*
X155854761Y-103993333D01*
X155807142Y-103945714D01*
X155711904Y-103898095D01*
X155521428Y-103850476D01*
X155283333Y-103850476D01*
X155092857Y-103898095D01*
X154997619Y-103945714D01*
X154950000Y-103993333D01*
X154902380Y-104088571D01*
X193716666Y-86729523D02*
X193716666Y-87205714D01*
X194002380Y-86634285D02*
X193002380Y-86967619D01*
X194002380Y-87300952D01*
X194002380Y-88158095D02*
X194002380Y-87586666D01*
X194002380Y-87872380D02*
X193002380Y-87872380D01*
X193145238Y-87777142D01*
X193240476Y-87681904D01*
X193288095Y-87586666D01*
X193002380Y-89015238D02*
X193002380Y-88824761D01*
X193050000Y-88729523D01*
X193097619Y-88681904D01*
X193240476Y-88586666D01*
X193430952Y-88539047D01*
X193811904Y-88539047D01*
X193907142Y-88586666D01*
X193954761Y-88634285D01*
X194002380Y-88729523D01*
X194002380Y-88920000D01*
X193954761Y-89015238D01*
X193907142Y-89062857D01*
X193811904Y-89110476D01*
X193573809Y-89110476D01*
X193478571Y-89062857D01*
X193430952Y-89015238D01*
X193383333Y-88920000D01*
X193383333Y-88729523D01*
X193430952Y-88634285D01*
X193478571Y-88586666D01*
X193573809Y-88539047D01*
X239341428Y-101398095D02*
X239341428Y-102160000D01*
X239722380Y-101779047D02*
X238960476Y-101779047D01*
X239722380Y-103160000D02*
X239722380Y-102588571D01*
X239722380Y-102874285D02*
X238722380Y-102874285D01*
X238865238Y-102779047D01*
X238960476Y-102683809D01*
X239008095Y-102588571D01*
X238817619Y-103540952D02*
X238770000Y-103588571D01*
X238722380Y-103683809D01*
X238722380Y-103921904D01*
X238770000Y-104017142D01*
X238817619Y-104064761D01*
X238912857Y-104112380D01*
X239008095Y-104112380D01*
X239150952Y-104064761D01*
X239722380Y-103493333D01*
X239722380Y-104112380D01*
X238722380Y-104398095D02*
X239722380Y-104731428D01*
X238722380Y-105064761D01*
X159700000Y-101660000D02*
X159700000Y-102707619D01*
X159982380Y-101898095D02*
X160791904Y-101898095D01*
X160887142Y-101945714D01*
X160934761Y-101993333D01*
X160982380Y-102088571D01*
X160982380Y-102279047D01*
X160934761Y-102374285D01*
X160887142Y-102421904D01*
X160791904Y-102469523D01*
X159982380Y-102469523D01*
X159700000Y-102707619D02*
X159700000Y-103707619D01*
X160982380Y-102945714D02*
X159982380Y-102945714D01*
X159982380Y-103183809D01*
X160030000Y-103326666D01*
X160125238Y-103421904D01*
X160220476Y-103469523D01*
X160410952Y-103517142D01*
X160553809Y-103517142D01*
X160744285Y-103469523D01*
X160839523Y-103421904D01*
X160934761Y-103326666D01*
X160982380Y-103183809D01*
X160982380Y-102945714D01*
X159700000Y-103707619D02*
X159700000Y-104660000D01*
X160934761Y-103898095D02*
X160982380Y-104040952D01*
X160982380Y-104279047D01*
X160934761Y-104374285D01*
X160887142Y-104421904D01*
X160791904Y-104469523D01*
X160696666Y-104469523D01*
X160601428Y-104421904D01*
X160553809Y-104374285D01*
X160506190Y-104279047D01*
X160458571Y-104088571D01*
X160410952Y-103993333D01*
X160363333Y-103945714D01*
X160268095Y-103898095D01*
X160172857Y-103898095D01*
X160077619Y-103945714D01*
X160030000Y-103993333D01*
X159982380Y-104088571D01*
X159982380Y-104326666D01*
X160030000Y-104469523D01*
X143202380Y-102421904D02*
X142202380Y-102421904D01*
X142202380Y-102660000D01*
X142250000Y-102802857D01*
X142345238Y-102898095D01*
X142440476Y-102945714D01*
X142630952Y-102993333D01*
X142773809Y-102993333D01*
X142964285Y-102945714D01*
X143059523Y-102898095D01*
X143154761Y-102802857D01*
X143202380Y-102660000D01*
X143202380Y-102421904D01*
X142202380Y-103898095D02*
X142202380Y-103421904D01*
X142678571Y-103374285D01*
X142630952Y-103421904D01*
X142583333Y-103517142D01*
X142583333Y-103755238D01*
X142630952Y-103850476D01*
X142678571Y-103898095D01*
X142773809Y-103945714D01*
X143011904Y-103945714D01*
X143107142Y-103898095D01*
X143154761Y-103850476D01*
X143202380Y-103755238D01*
X143202380Y-103517142D01*
X143154761Y-103421904D01*
X143107142Y-103374285D01*
X175936666Y-86729523D02*
X175936666Y-87205714D01*
X176222380Y-86634285D02*
X175222380Y-86967619D01*
X176222380Y-87300952D01*
X175317619Y-87586666D02*
X175270000Y-87634285D01*
X175222380Y-87729523D01*
X175222380Y-87967619D01*
X175270000Y-88062857D01*
X175317619Y-88110476D01*
X175412857Y-88158095D01*
X175508095Y-88158095D01*
X175650952Y-88110476D01*
X176222380Y-87539047D01*
X176222380Y-88158095D01*
X175222380Y-88491428D02*
X175222380Y-89110476D01*
X175603333Y-88777142D01*
X175603333Y-88920000D01*
X175650952Y-89015238D01*
X175698571Y-89062857D01*
X175793809Y-89110476D01*
X176031904Y-89110476D01*
X176127142Y-89062857D01*
X176174761Y-89015238D01*
X176222380Y-88920000D01*
X176222380Y-88634285D01*
X176174761Y-88539047D01*
X176127142Y-88491428D01*
X135534761Y-86681904D02*
X135582380Y-86824761D01*
X135582380Y-87062857D01*
X135534761Y-87158095D01*
X135487142Y-87205714D01*
X135391904Y-87253333D01*
X135296666Y-87253333D01*
X135201428Y-87205714D01*
X135153809Y-87158095D01*
X135106190Y-87062857D01*
X135058571Y-86872380D01*
X135010952Y-86777142D01*
X134963333Y-86729523D01*
X134868095Y-86681904D01*
X134772857Y-86681904D01*
X134677619Y-86729523D01*
X134630000Y-86777142D01*
X134582380Y-86872380D01*
X134582380Y-87110476D01*
X134630000Y-87253333D01*
X134582380Y-87586666D02*
X134582380Y-88253333D01*
X135582380Y-87586666D01*
X135582380Y-88253333D01*
X134582380Y-88539047D02*
X134582380Y-89158095D01*
X134963333Y-88824761D01*
X134963333Y-88967619D01*
X135010952Y-89062857D01*
X135058571Y-89110476D01*
X135153809Y-89158095D01*
X135391904Y-89158095D01*
X135487142Y-89110476D01*
X135534761Y-89062857D01*
X135582380Y-88967619D01*
X135582380Y-88681904D01*
X135534761Y-88586666D01*
X135487142Y-88539047D01*
X244421428Y-101874285D02*
X244421428Y-102636190D01*
X244802380Y-102255238D02*
X244040476Y-102255238D01*
X243802380Y-103588571D02*
X243802380Y-103112380D01*
X244278571Y-103064761D01*
X244230952Y-103112380D01*
X244183333Y-103207619D01*
X244183333Y-103445714D01*
X244230952Y-103540952D01*
X244278571Y-103588571D01*
X244373809Y-103636190D01*
X244611904Y-103636190D01*
X244707142Y-103588571D01*
X244754761Y-103540952D01*
X244802380Y-103445714D01*
X244802380Y-103207619D01*
X244754761Y-103112380D01*
X244707142Y-103064761D01*
X243802380Y-103921904D02*
X244802380Y-104255238D01*
X243802380Y-104588571D01*
X139710000Y-102398095D02*
X139662380Y-102302857D01*
X139662380Y-102160000D01*
X139710000Y-102017142D01*
X139805238Y-101921904D01*
X139900476Y-101874285D01*
X140090952Y-101826666D01*
X140233809Y-101826666D01*
X140424285Y-101874285D01*
X140519523Y-101921904D01*
X140614761Y-102017142D01*
X140662380Y-102160000D01*
X140662380Y-102255238D01*
X140614761Y-102398095D01*
X140567142Y-102445714D01*
X140233809Y-102445714D01*
X140233809Y-102255238D01*
X140662380Y-102874285D02*
X139662380Y-102874285D01*
X140662380Y-103445714D01*
X139662380Y-103445714D01*
X140662380Y-103921904D02*
X139662380Y-103921904D01*
X139662380Y-104160000D01*
X139710000Y-104302857D01*
X139805238Y-104398095D01*
X139900476Y-104445714D01*
X140090952Y-104493333D01*
X140233809Y-104493333D01*
X140424285Y-104445714D01*
X140519523Y-104398095D01*
X140614761Y-104302857D01*
X140662380Y-104160000D01*
X140662380Y-103921904D01*
X240980000Y-86300952D02*
X240980000Y-87348571D01*
X241262380Y-86729523D02*
X241262380Y-86920000D01*
X241310000Y-87015238D01*
X241405238Y-87110476D01*
X241595714Y-87158095D01*
X241929047Y-87158095D01*
X242119523Y-87110476D01*
X242214761Y-87015238D01*
X242262380Y-86920000D01*
X242262380Y-86729523D01*
X242214761Y-86634285D01*
X242119523Y-86539047D01*
X241929047Y-86491428D01*
X241595714Y-86491428D01*
X241405238Y-86539047D01*
X241310000Y-86634285D01*
X241262380Y-86729523D01*
X240980000Y-87348571D02*
X240980000Y-88491428D01*
X241262380Y-87491428D02*
X242262380Y-87729523D01*
X241548095Y-87920000D01*
X242262380Y-88110476D01*
X241262380Y-88348571D01*
X240980000Y-88491428D02*
X240980000Y-89539047D01*
X242262380Y-88729523D02*
X241262380Y-88729523D01*
X242262380Y-89300952D01*
X241262380Y-89300952D01*
X214036666Y-102445714D02*
X214036666Y-102921904D01*
X214322380Y-102350476D02*
X213322380Y-102683809D01*
X214322380Y-103017142D01*
X213750952Y-103493333D02*
X213703333Y-103398095D01*
X213655714Y-103350476D01*
X213560476Y-103302857D01*
X213512857Y-103302857D01*
X213417619Y-103350476D01*
X213370000Y-103398095D01*
X213322380Y-103493333D01*
X213322380Y-103683809D01*
X213370000Y-103779047D01*
X213417619Y-103826666D01*
X213512857Y-103874285D01*
X213560476Y-103874285D01*
X213655714Y-103826666D01*
X213703333Y-103779047D01*
X213750952Y-103683809D01*
X213750952Y-103493333D01*
X213798571Y-103398095D01*
X213846190Y-103350476D01*
X213941428Y-103302857D01*
X214131904Y-103302857D01*
X214227142Y-103350476D01*
X214274761Y-103398095D01*
X214322380Y-103493333D01*
X214322380Y-103683809D01*
X214274761Y-103779047D01*
X214227142Y-103826666D01*
X214131904Y-103874285D01*
X213941428Y-103874285D01*
X213846190Y-103826666D01*
X213798571Y-103779047D01*
X213750952Y-103683809D01*
X223200000Y-101540952D02*
X223200000Y-102017142D01*
X224482380Y-101779047D02*
X223482380Y-101779047D01*
X223200000Y-102017142D02*
X223200000Y-103064761D01*
X224482380Y-102255238D02*
X223482380Y-102255238D01*
X224482380Y-102826666D01*
X223482380Y-102826666D01*
X223200000Y-103064761D02*
X223200000Y-103826666D01*
X223482380Y-103160000D02*
X223482380Y-103731428D01*
X224482380Y-103445714D02*
X223482380Y-103445714D01*
X223200000Y-103826666D02*
X223200000Y-104779047D01*
X223482380Y-104493333D02*
X223482380Y-104302857D01*
X223530000Y-104207619D01*
X223577619Y-104160000D01*
X223720476Y-104064761D01*
X223910952Y-104017142D01*
X224291904Y-104017142D01*
X224387142Y-104064761D01*
X224434761Y-104112380D01*
X224482380Y-104207619D01*
X224482380Y-104398095D01*
X224434761Y-104493333D01*
X224387142Y-104540952D01*
X224291904Y-104588571D01*
X224053809Y-104588571D01*
X223958571Y-104540952D01*
X223910952Y-104493333D01*
X223863333Y-104398095D01*
X223863333Y-104207619D01*
X223910952Y-104112380D01*
X223958571Y-104064761D01*
X224053809Y-104017142D01*
X153362380Y-102421904D02*
X152362380Y-102421904D01*
X152362380Y-102660000D01*
X152410000Y-102802857D01*
X152505238Y-102898095D01*
X152600476Y-102945714D01*
X152790952Y-102993333D01*
X152933809Y-102993333D01*
X153124285Y-102945714D01*
X153219523Y-102898095D01*
X153314761Y-102802857D01*
X153362380Y-102660000D01*
X153362380Y-102421904D01*
X153362380Y-103469523D02*
X153362380Y-103660000D01*
X153314761Y-103755238D01*
X153267142Y-103802857D01*
X153124285Y-103898095D01*
X152933809Y-103945714D01*
X152552857Y-103945714D01*
X152457619Y-103898095D01*
X152410000Y-103850476D01*
X152362380Y-103755238D01*
X152362380Y-103564761D01*
X152410000Y-103469523D01*
X152457619Y-103421904D01*
X152552857Y-103374285D01*
X152790952Y-103374285D01*
X152886190Y-103421904D01*
X152933809Y-103469523D01*
X152981428Y-103564761D01*
X152981428Y-103755238D01*
X152933809Y-103850476D01*
X152886190Y-103898095D01*
X152790952Y-103945714D01*
X225740000Y-86300952D02*
X225740000Y-86777142D01*
X227022380Y-86539047D02*
X226022380Y-86539047D01*
X225740000Y-86777142D02*
X225740000Y-87824761D01*
X227022380Y-87015238D02*
X226022380Y-87015238D01*
X227022380Y-87586666D01*
X226022380Y-87586666D01*
X225740000Y-87824761D02*
X225740000Y-88586666D01*
X226022380Y-87920000D02*
X226022380Y-88491428D01*
X227022380Y-88205714D02*
X226022380Y-88205714D01*
X225740000Y-88586666D02*
X225740000Y-89539047D01*
X226117619Y-88777142D02*
X226070000Y-88824761D01*
X226022380Y-88920000D01*
X226022380Y-89158095D01*
X226070000Y-89253333D01*
X226117619Y-89300952D01*
X226212857Y-89348571D01*
X226308095Y-89348571D01*
X226450952Y-89300952D01*
X227022380Y-88729523D01*
X227022380Y-89348571D01*
X150822380Y-87181904D02*
X149822380Y-87181904D01*
X149822380Y-87420000D01*
X149870000Y-87562857D01*
X149965238Y-87658095D01*
X150060476Y-87705714D01*
X150250952Y-87753333D01*
X150393809Y-87753333D01*
X150584285Y-87705714D01*
X150679523Y-87658095D01*
X150774761Y-87562857D01*
X150822380Y-87420000D01*
X150822380Y-87181904D01*
X149917619Y-88134285D02*
X149870000Y-88181904D01*
X149822380Y-88277142D01*
X149822380Y-88515238D01*
X149870000Y-88610476D01*
X149917619Y-88658095D01*
X150012857Y-88705714D01*
X150108095Y-88705714D01*
X150250952Y-88658095D01*
X150822380Y-88086666D01*
X150822380Y-88705714D01*
X228562380Y-101398095D02*
X229562380Y-102064761D01*
X228562380Y-102064761D02*
X229562380Y-101398095D01*
X229562380Y-103017142D02*
X229086190Y-102683809D01*
X229562380Y-102445714D02*
X228562380Y-102445714D01*
X228562380Y-102826666D01*
X228610000Y-102921904D01*
X228657619Y-102969523D01*
X228752857Y-103017142D01*
X228895714Y-103017142D01*
X228990952Y-102969523D01*
X229038571Y-102921904D01*
X229086190Y-102826666D01*
X229086190Y-102445714D01*
X229562380Y-103445714D02*
X228562380Y-103445714D01*
X228562380Y-103683809D01*
X228610000Y-103826666D01*
X228705238Y-103921904D01*
X228800476Y-103969523D01*
X228990952Y-104017142D01*
X229133809Y-104017142D01*
X229324285Y-103969523D01*
X229419523Y-103921904D01*
X229514761Y-103826666D01*
X229562380Y-103683809D01*
X229562380Y-103445714D01*
X229086190Y-104636190D02*
X229562380Y-104636190D01*
X228562380Y-104302857D02*
X229086190Y-104636190D01*
X228562380Y-104969523D01*
X224196666Y-87205714D02*
X224196666Y-87681904D01*
X224482380Y-87110476D02*
X223482380Y-87443809D01*
X224482380Y-87777142D01*
X223482380Y-88586666D02*
X223482380Y-88110476D01*
X223958571Y-88062857D01*
X223910952Y-88110476D01*
X223863333Y-88205714D01*
X223863333Y-88443809D01*
X223910952Y-88539047D01*
X223958571Y-88586666D01*
X224053809Y-88634285D01*
X224291904Y-88634285D01*
X224387142Y-88586666D01*
X224434761Y-88539047D01*
X224482380Y-88443809D01*
X224482380Y-88205714D01*
X224434761Y-88110476D01*
X224387142Y-88062857D01*
X155902380Y-87181904D02*
X154902380Y-87181904D01*
X154902380Y-87420000D01*
X154950000Y-87562857D01*
X155045238Y-87658095D01*
X155140476Y-87705714D01*
X155330952Y-87753333D01*
X155473809Y-87753333D01*
X155664285Y-87705714D01*
X155759523Y-87658095D01*
X155854761Y-87562857D01*
X155902380Y-87420000D01*
X155902380Y-87181904D01*
X154902380Y-88372380D02*
X154902380Y-88467619D01*
X154950000Y-88562857D01*
X154997619Y-88610476D01*
X155092857Y-88658095D01*
X155283333Y-88705714D01*
X155521428Y-88705714D01*
X155711904Y-88658095D01*
X155807142Y-88610476D01*
X155854761Y-88562857D01*
X155902380Y-88467619D01*
X155902380Y-88372380D01*
X155854761Y-88277142D01*
X155807142Y-88229523D01*
X155711904Y-88181904D01*
X155521428Y-88134285D01*
X155283333Y-88134285D01*
X155092857Y-88181904D01*
X154997619Y-88229523D01*
X154950000Y-88277142D01*
X154902380Y-88372380D01*
X166062380Y-102088571D02*
X165586190Y-101755238D01*
X166062380Y-101517142D02*
X165062380Y-101517142D01*
X165062380Y-101898095D01*
X165110000Y-101993333D01*
X165157619Y-102040952D01*
X165252857Y-102088571D01*
X165395714Y-102088571D01*
X165490952Y-102040952D01*
X165538571Y-101993333D01*
X165586190Y-101898095D01*
X165586190Y-101517142D01*
X165538571Y-102517142D02*
X165538571Y-102850476D01*
X166062380Y-102993333D02*
X166062380Y-102517142D01*
X165062380Y-102517142D01*
X165062380Y-102993333D01*
X165776666Y-103374285D02*
X165776666Y-103850476D01*
X166062380Y-103279047D02*
X165062380Y-103612380D01*
X166062380Y-103945714D01*
X166062380Y-104279047D02*
X165062380Y-104279047D01*
X165062380Y-104517142D01*
X165110000Y-104660000D01*
X165205238Y-104755238D01*
X165300476Y-104802857D01*
X165490952Y-104850476D01*
X165633809Y-104850476D01*
X165824285Y-104802857D01*
X165919523Y-104755238D01*
X166014761Y-104660000D01*
X166062380Y-104517142D01*
X166062380Y-104279047D01*
X124470000Y-102398095D02*
X124422380Y-102302857D01*
X124422380Y-102160000D01*
X124470000Y-102017142D01*
X124565238Y-101921904D01*
X124660476Y-101874285D01*
X124850952Y-101826666D01*
X124993809Y-101826666D01*
X125184285Y-101874285D01*
X125279523Y-101921904D01*
X125374761Y-102017142D01*
X125422380Y-102160000D01*
X125422380Y-102255238D01*
X125374761Y-102398095D01*
X125327142Y-102445714D01*
X124993809Y-102445714D01*
X124993809Y-102255238D01*
X125422380Y-102874285D02*
X124422380Y-102874285D01*
X125422380Y-103445714D01*
X124422380Y-103445714D01*
X125422380Y-103921904D02*
X124422380Y-103921904D01*
X124422380Y-104160000D01*
X124470000Y-104302857D01*
X124565238Y-104398095D01*
X124660476Y-104445714D01*
X124850952Y-104493333D01*
X124993809Y-104493333D01*
X125184285Y-104445714D01*
X125279523Y-104398095D01*
X125374761Y-104302857D01*
X125422380Y-104160000D01*
X125422380Y-103921904D01*
X153362380Y-87181904D02*
X152362380Y-87181904D01*
X152362380Y-87420000D01*
X152410000Y-87562857D01*
X152505238Y-87658095D01*
X152600476Y-87705714D01*
X152790952Y-87753333D01*
X152933809Y-87753333D01*
X153124285Y-87705714D01*
X153219523Y-87658095D01*
X153314761Y-87562857D01*
X153362380Y-87420000D01*
X153362380Y-87181904D01*
X153362380Y-88705714D02*
X153362380Y-88134285D01*
X153362380Y-88420000D02*
X152362380Y-88420000D01*
X152505238Y-88324761D01*
X152600476Y-88229523D01*
X152648095Y-88134285D01*
X211258571Y-87086666D02*
X211258571Y-86753333D01*
X211782380Y-86753333D02*
X210782380Y-86753333D01*
X210782380Y-87229523D01*
X211687142Y-88181904D02*
X211734761Y-88134285D01*
X211782380Y-87991428D01*
X211782380Y-87896190D01*
X211734761Y-87753333D01*
X211639523Y-87658095D01*
X211544285Y-87610476D01*
X211353809Y-87562857D01*
X211210952Y-87562857D01*
X211020476Y-87610476D01*
X210925238Y-87658095D01*
X210830000Y-87753333D01*
X210782380Y-87896190D01*
X210782380Y-87991428D01*
X210830000Y-88134285D01*
X210877619Y-88181904D01*
X210782380Y-88800952D02*
X210782380Y-88896190D01*
X210830000Y-88991428D01*
X210877619Y-89039047D01*
X210972857Y-89086666D01*
X211163333Y-89134285D01*
X211401428Y-89134285D01*
X211591904Y-89086666D01*
X211687142Y-89039047D01*
X211734761Y-88991428D01*
X211782380Y-88896190D01*
X211782380Y-88800952D01*
X211734761Y-88705714D01*
X211687142Y-88658095D01*
X211591904Y-88610476D01*
X211401428Y-88562857D01*
X211163333Y-88562857D01*
X210972857Y-88610476D01*
X210877619Y-88658095D01*
X210830000Y-88705714D01*
X210782380Y-88800952D01*
X230820000Y-102183809D02*
X230820000Y-103183809D01*
X232007142Y-102993333D02*
X232054761Y-102945714D01*
X232102380Y-102802857D01*
X232102380Y-102707619D01*
X232054761Y-102564761D01*
X231959523Y-102469523D01*
X231864285Y-102421904D01*
X231673809Y-102374285D01*
X231530952Y-102374285D01*
X231340476Y-102421904D01*
X231245238Y-102469523D01*
X231150000Y-102564761D01*
X231102380Y-102707619D01*
X231102380Y-102802857D01*
X231150000Y-102945714D01*
X231197619Y-102993333D01*
X230820000Y-103183809D02*
X230820000Y-104136190D01*
X232102380Y-103945714D02*
X232102380Y-103374285D01*
X232102380Y-103660000D02*
X231102380Y-103660000D01*
X231245238Y-103564761D01*
X231340476Y-103469523D01*
X231388095Y-103374285D01*
X232007142Y-86800952D02*
X232054761Y-86753333D01*
X232102380Y-86610476D01*
X232102380Y-86515238D01*
X232054761Y-86372380D01*
X231959523Y-86277142D01*
X231864285Y-86229523D01*
X231673809Y-86181904D01*
X231530952Y-86181904D01*
X231340476Y-86229523D01*
X231245238Y-86277142D01*
X231150000Y-86372380D01*
X231102380Y-86515238D01*
X231102380Y-86610476D01*
X231150000Y-86753333D01*
X231197619Y-86800952D01*
X232102380Y-87229523D02*
X231102380Y-87229523D01*
X231102380Y-87467619D01*
X231150000Y-87610476D01*
X231245238Y-87705714D01*
X231340476Y-87753333D01*
X231530952Y-87800952D01*
X231673809Y-87800952D01*
X231864285Y-87753333D01*
X231959523Y-87705714D01*
X232054761Y-87610476D01*
X232102380Y-87467619D01*
X232102380Y-87229523D01*
X231816666Y-88181904D02*
X231816666Y-88658095D01*
X232102380Y-88086666D02*
X231102380Y-88420000D01*
X232102380Y-88753333D01*
X232007142Y-89658095D02*
X232054761Y-89610476D01*
X232102380Y-89467619D01*
X232102380Y-89372380D01*
X232054761Y-89229523D01*
X231959523Y-89134285D01*
X231864285Y-89086666D01*
X231673809Y-89039047D01*
X231530952Y-89039047D01*
X231340476Y-89086666D01*
X231245238Y-89134285D01*
X231150000Y-89229523D01*
X231102380Y-89372380D01*
X231102380Y-89467619D01*
X231150000Y-89610476D01*
X231197619Y-89658095D01*
X137170000Y-102398095D02*
X137122380Y-102302857D01*
X137122380Y-102160000D01*
X137170000Y-102017142D01*
X137265238Y-101921904D01*
X137360476Y-101874285D01*
X137550952Y-101826666D01*
X137693809Y-101826666D01*
X137884285Y-101874285D01*
X137979523Y-101921904D01*
X138074761Y-102017142D01*
X138122380Y-102160000D01*
X138122380Y-102255238D01*
X138074761Y-102398095D01*
X138027142Y-102445714D01*
X137693809Y-102445714D01*
X137693809Y-102255238D01*
X138122380Y-102874285D02*
X137122380Y-102874285D01*
X138122380Y-103445714D01*
X137122380Y-103445714D01*
X138122380Y-103921904D02*
X137122380Y-103921904D01*
X137122380Y-104160000D01*
X137170000Y-104302857D01*
X137265238Y-104398095D01*
X137360476Y-104445714D01*
X137550952Y-104493333D01*
X137693809Y-104493333D01*
X137884285Y-104445714D01*
X137979523Y-104398095D01*
X138074761Y-104302857D01*
X138122380Y-104160000D01*
X138122380Y-103921904D01*
X188398571Y-102945714D02*
X188398571Y-103279047D01*
X188922380Y-103421904D02*
X188922380Y-102945714D01*
X187922380Y-102945714D01*
X187922380Y-103421904D01*
X145742380Y-102421904D02*
X144742380Y-102421904D01*
X144742380Y-102660000D01*
X144790000Y-102802857D01*
X144885238Y-102898095D01*
X144980476Y-102945714D01*
X145170952Y-102993333D01*
X145313809Y-102993333D01*
X145504285Y-102945714D01*
X145599523Y-102898095D01*
X145694761Y-102802857D01*
X145742380Y-102660000D01*
X145742380Y-102421904D01*
X144742380Y-103850476D02*
X144742380Y-103660000D01*
X144790000Y-103564761D01*
X144837619Y-103517142D01*
X144980476Y-103421904D01*
X145170952Y-103374285D01*
X145551904Y-103374285D01*
X145647142Y-103421904D01*
X145694761Y-103469523D01*
X145742380Y-103564761D01*
X145742380Y-103755238D01*
X145694761Y-103850476D01*
X145647142Y-103898095D01*
X145551904Y-103945714D01*
X145313809Y-103945714D01*
X145218571Y-103898095D01*
X145170952Y-103850476D01*
X145123333Y-103755238D01*
X145123333Y-103564761D01*
X145170952Y-103469523D01*
X145218571Y-103421904D01*
X145313809Y-103374285D01*
X183556666Y-101969523D02*
X183556666Y-102445714D01*
X183842380Y-101874285D02*
X182842380Y-102207619D01*
X183842380Y-102540952D01*
X183842380Y-103398095D02*
X183842380Y-102826666D01*
X183842380Y-103112380D02*
X182842380Y-103112380D01*
X182985238Y-103017142D01*
X183080476Y-102921904D01*
X183128095Y-102826666D01*
X183842380Y-103874285D02*
X183842380Y-104064761D01*
X183794761Y-104160000D01*
X183747142Y-104207619D01*
X183604285Y-104302857D01*
X183413809Y-104350476D01*
X183032857Y-104350476D01*
X182937619Y-104302857D01*
X182890000Y-104255238D01*
X182842380Y-104160000D01*
X182842380Y-103969523D01*
X182890000Y-103874285D01*
X182937619Y-103826666D01*
X183032857Y-103779047D01*
X183270952Y-103779047D01*
X183366190Y-103826666D01*
X183413809Y-103874285D01*
X183461428Y-103969523D01*
X183461428Y-104160000D01*
X183413809Y-104255238D01*
X183366190Y-104302857D01*
X183270952Y-104350476D01*
X181016666Y-101969523D02*
X181016666Y-102445714D01*
X181302380Y-101874285D02*
X180302380Y-102207619D01*
X181302380Y-102540952D01*
X180397619Y-102826666D02*
X180350000Y-102874285D01*
X180302380Y-102969523D01*
X180302380Y-103207619D01*
X180350000Y-103302857D01*
X180397619Y-103350476D01*
X180492857Y-103398095D01*
X180588095Y-103398095D01*
X180730952Y-103350476D01*
X181302380Y-102779047D01*
X181302380Y-103398095D01*
X180302380Y-104017142D02*
X180302380Y-104112380D01*
X180350000Y-104207619D01*
X180397619Y-104255238D01*
X180492857Y-104302857D01*
X180683333Y-104350476D01*
X180921428Y-104350476D01*
X181111904Y-104302857D01*
X181207142Y-104255238D01*
X181254761Y-104207619D01*
X181302380Y-104112380D01*
X181302380Y-104017142D01*
X181254761Y-103921904D01*
X181207142Y-103874285D01*
X181111904Y-103826666D01*
X180921428Y-103779047D01*
X180683333Y-103779047D01*
X180492857Y-103826666D01*
X180397619Y-103874285D01*
X180350000Y-103921904D01*
X180302380Y-104017142D01*
X216576666Y-87205714D02*
X216576666Y-87681904D01*
X216862380Y-87110476D02*
X215862380Y-87443809D01*
X216862380Y-87777142D01*
X215957619Y-88062857D02*
X215910000Y-88110476D01*
X215862380Y-88205714D01*
X215862380Y-88443809D01*
X215910000Y-88539047D01*
X215957619Y-88586666D01*
X216052857Y-88634285D01*
X216148095Y-88634285D01*
X216290952Y-88586666D01*
X216862380Y-88015238D01*
X216862380Y-88634285D01*
%TO.C,CON2*%
X247874285Y-80752380D02*
X248445714Y-80752380D01*
X248160000Y-80752380D02*
X248160000Y-79752380D01*
X248255238Y-79895238D01*
X248350476Y-79990476D01*
X248445714Y-80038095D01*
X187485714Y-80085714D02*
X187485714Y-80752380D01*
X187723809Y-79704761D02*
X187961904Y-80419047D01*
X187342857Y-80419047D01*
X186914285Y-80752380D02*
X186723809Y-80752380D01*
X186628571Y-80704761D01*
X186580952Y-80657142D01*
X186485714Y-80514285D01*
X186438095Y-80323809D01*
X186438095Y-79942857D01*
X186485714Y-79847619D01*
X186533333Y-79800000D01*
X186628571Y-79752380D01*
X186819047Y-79752380D01*
X186914285Y-79800000D01*
X186961904Y-79847619D01*
X187009523Y-79942857D01*
X187009523Y-80180952D01*
X186961904Y-80276190D01*
X186914285Y-80323809D01*
X186819047Y-80371428D01*
X186628571Y-80371428D01*
X186533333Y-80323809D01*
X186485714Y-80276190D01*
X186438095Y-80180952D01*
X124366666Y-80752380D02*
X124176190Y-80752380D01*
X124080952Y-80704761D01*
X124033333Y-80657142D01*
X123938095Y-80514285D01*
X123890476Y-80323809D01*
X123890476Y-79942857D01*
X123938095Y-79847619D01*
X123985714Y-79800000D01*
X124080952Y-79752380D01*
X124271428Y-79752380D01*
X124366666Y-79800000D01*
X124414285Y-79847619D01*
X124461904Y-79942857D01*
X124461904Y-80180952D01*
X124414285Y-80276190D01*
X124366666Y-80323809D01*
X124271428Y-80371428D01*
X124080952Y-80371428D01*
X123985714Y-80323809D01*
X123938095Y-80276190D01*
X123890476Y-80180952D01*
X123414285Y-80752380D02*
X123223809Y-80752380D01*
X123128571Y-80704761D01*
X123080952Y-80657142D01*
X122985714Y-80514285D01*
X122938095Y-80323809D01*
X122938095Y-79942857D01*
X122985714Y-79847619D01*
X123033333Y-79800000D01*
X123128571Y-79752380D01*
X123319047Y-79752380D01*
X123414285Y-79800000D01*
X123461904Y-79847619D01*
X123509523Y-79942857D01*
X123509523Y-80180952D01*
X123461904Y-80276190D01*
X123414285Y-80323809D01*
X123319047Y-80371428D01*
X123128571Y-80371428D01*
X123033333Y-80323809D01*
X122985714Y-80276190D01*
X122938095Y-80180952D01*
%TO.C,CON1*%
X247874292Y-113772372D02*
X248445721Y-113772372D01*
X248160007Y-113772372D02*
X248160007Y-112772372D01*
X248255245Y-112915230D01*
X248350483Y-113010468D01*
X248445721Y-113058087D01*
X187485721Y-113105706D02*
X187485721Y-113772372D01*
X187723816Y-112724753D02*
X187961911Y-113439039D01*
X187342864Y-113439039D01*
X186914292Y-113772372D02*
X186723816Y-113772372D01*
X186628578Y-113724753D01*
X186580959Y-113677134D01*
X186485721Y-113534277D01*
X186438102Y-113343801D01*
X186438102Y-112962849D01*
X186485721Y-112867611D01*
X186533340Y-112819992D01*
X186628578Y-112772372D01*
X186819054Y-112772372D01*
X186914292Y-112819992D01*
X186961911Y-112867611D01*
X187009530Y-112962849D01*
X187009530Y-113200944D01*
X186961911Y-113296182D01*
X186914292Y-113343801D01*
X186819054Y-113391420D01*
X186628578Y-113391420D01*
X186533340Y-113343801D01*
X186485721Y-113296182D01*
X186438102Y-113200944D01*
X124366673Y-113772372D02*
X124176197Y-113772372D01*
X124080959Y-113724753D01*
X124033340Y-113677134D01*
X123938102Y-113534277D01*
X123890483Y-113343801D01*
X123890483Y-112962849D01*
X123938102Y-112867611D01*
X123985721Y-112819992D01*
X124080959Y-112772372D01*
X124271435Y-112772372D01*
X124366673Y-112819992D01*
X124414292Y-112867611D01*
X124461911Y-112962849D01*
X124461911Y-113200944D01*
X124414292Y-113296182D01*
X124366673Y-113343801D01*
X124271435Y-113391420D01*
X124080959Y-113391420D01*
X123985721Y-113343801D01*
X123938102Y-113296182D01*
X123890483Y-113200944D01*
X123414292Y-113772372D02*
X123223816Y-113772372D01*
X123128578Y-113724753D01*
X123080959Y-113677134D01*
X122985721Y-113534277D01*
X122938102Y-113343801D01*
X122938102Y-112962849D01*
X122985721Y-112867611D01*
X123033340Y-112819992D01*
X123128578Y-112772372D01*
X123319054Y-112772372D01*
X123414292Y-112819992D01*
X123461911Y-112867611D01*
X123509530Y-112962849D01*
X123509530Y-113200944D01*
X123461911Y-113296182D01*
X123414292Y-113343801D01*
X123319054Y-113391420D01*
X123128578Y-113391420D01*
X123033340Y-113343801D01*
X122985721Y-113296182D01*
X122938102Y-113200944D01*
%TD*%
M02*
