%TF.GenerationSoftware,KiCad,Pcbnew,(6.0.0)*%
%TF.CreationDate,2022-04-24T20:10:25+02:00*%
%TF.ProjectId,ZorroDebug,5a6f7272-6f44-4656-9275-672e6b696361,rev?*%
%TF.SameCoordinates,Original*%
%TF.FileFunction,Legend,Top*%
%TF.FilePolarity,Positive*%
%FSLAX46Y46*%
G04 Gerber Fmt 4.6, Leading zero omitted, Abs format (unit mm)*
G04 Created by KiCad (PCBNEW (6.0.0)) date 2022-04-24 20:10:25*
%MOMM*%
%LPD*%
G01*
G04 APERTURE LIST*
%ADD10C,0.150000*%
%ADD11C,0.600000*%
G04 APERTURE END LIST*
D10*
X211152464Y-102412133D02*
X211152464Y-102888323D01*
X210866750Y-102316895D02*
X211866750Y-102650228D01*
X210866750Y-102983561D01*
X210866750Y-103364514D02*
X210866750Y-103554990D01*
X210914369Y-103650228D01*
X210961988Y-103697847D01*
X211104845Y-103793085D01*
X211295321Y-103840704D01*
X211676273Y-103840704D01*
X211771511Y-103793085D01*
X211819131Y-103745466D01*
X211866750Y-103650228D01*
X211866750Y-103459752D01*
X211819131Y-103364514D01*
X211771511Y-103316895D01*
X211676273Y-103269276D01*
X211438178Y-103269276D01*
X211342940Y-103316895D01*
X211295321Y-103364514D01*
X211247702Y-103459752D01*
X211247702Y-103650228D01*
X211295321Y-103745466D01*
X211342940Y-103793085D01*
X211438178Y-103840704D01*
X211401428Y-87086666D02*
X211401428Y-86753333D01*
X210877619Y-86753333D02*
X211877619Y-86753333D01*
X211877619Y-87229523D01*
X210972857Y-88181904D02*
X210925238Y-88134285D01*
X210877619Y-87991428D01*
X210877619Y-87896190D01*
X210925238Y-87753333D01*
X211020476Y-87658095D01*
X211115714Y-87610476D01*
X211306190Y-87562857D01*
X211449047Y-87562857D01*
X211639523Y-87610476D01*
X211734761Y-87658095D01*
X211830000Y-87753333D01*
X211877619Y-87896190D01*
X211877619Y-87991428D01*
X211830000Y-88134285D01*
X211782380Y-88181904D01*
X211877619Y-88800952D02*
X211877619Y-88896190D01*
X211830000Y-88991428D01*
X211782380Y-89039047D01*
X211687142Y-89086666D01*
X211496666Y-89134285D01*
X211258571Y-89134285D01*
X211068095Y-89086666D01*
X210972857Y-89039047D01*
X210925238Y-88991428D01*
X210877619Y-88896190D01*
X210877619Y-88800952D01*
X210925238Y-88705714D01*
X210972857Y-88658095D01*
X211068095Y-88610476D01*
X211258571Y-88562857D01*
X211496666Y-88562857D01*
X211687142Y-88610476D01*
X211782380Y-88658095D01*
X211830000Y-88705714D01*
X211877619Y-88800952D01*
X194380000Y-101207619D02*
X194380000Y-102207619D01*
X193621428Y-101779047D02*
X193573809Y-101921904D01*
X193526190Y-101969523D01*
X193430952Y-102017142D01*
X193288095Y-102017142D01*
X193192857Y-101969523D01*
X193145238Y-101921904D01*
X193097619Y-101826666D01*
X193097619Y-101445714D01*
X194097619Y-101445714D01*
X194097619Y-101779047D01*
X194050000Y-101874285D01*
X194002380Y-101921904D01*
X193907142Y-101969523D01*
X193811904Y-101969523D01*
X193716666Y-101921904D01*
X193669047Y-101874285D01*
X193621428Y-101779047D01*
X193621428Y-101445714D01*
X194380000Y-102207619D02*
X194380000Y-103112380D01*
X193621428Y-102445714D02*
X193621428Y-102779047D01*
X193097619Y-102921904D02*
X193097619Y-102445714D01*
X194097619Y-102445714D01*
X194097619Y-102921904D01*
X194380000Y-103112380D02*
X194380000Y-104112380D01*
X193097619Y-103921904D02*
X193573809Y-103588571D01*
X193097619Y-103350476D02*
X194097619Y-103350476D01*
X194097619Y-103731428D01*
X194050000Y-103826666D01*
X194002380Y-103874285D01*
X193907142Y-103921904D01*
X193764285Y-103921904D01*
X193669047Y-103874285D01*
X193621428Y-103826666D01*
X193573809Y-103731428D01*
X193573809Y-103350476D01*
X194380000Y-104112380D02*
X194380000Y-105112380D01*
X193097619Y-104921904D02*
X193573809Y-104588571D01*
X193097619Y-104350476D02*
X194097619Y-104350476D01*
X194097619Y-104731428D01*
X194050000Y-104826666D01*
X194002380Y-104874285D01*
X193907142Y-104921904D01*
X193764285Y-104921904D01*
X193669047Y-104874285D01*
X193621428Y-104826666D01*
X193573809Y-104731428D01*
X193573809Y-104350476D01*
X142297619Y-102421904D02*
X143297619Y-102421904D01*
X143297619Y-102660000D01*
X143250000Y-102802857D01*
X143154761Y-102898095D01*
X143059523Y-102945714D01*
X142869047Y-102993333D01*
X142726190Y-102993333D01*
X142535714Y-102945714D01*
X142440476Y-102898095D01*
X142345238Y-102802857D01*
X142297619Y-102660000D01*
X142297619Y-102421904D01*
X143297619Y-103898095D02*
X143297619Y-103421904D01*
X142821428Y-103374285D01*
X142869047Y-103421904D01*
X142916666Y-103517142D01*
X142916666Y-103755238D01*
X142869047Y-103850476D01*
X142821428Y-103898095D01*
X142726190Y-103945714D01*
X142488095Y-103945714D01*
X142392857Y-103898095D01*
X142345238Y-103850476D01*
X142297619Y-103755238D01*
X142297619Y-103517142D01*
X142345238Y-103421904D01*
X142392857Y-103374285D01*
X152457619Y-87181904D02*
X153457619Y-87181904D01*
X153457619Y-87420000D01*
X153410000Y-87562857D01*
X153314761Y-87658095D01*
X153219523Y-87705714D01*
X153029047Y-87753333D01*
X152886190Y-87753333D01*
X152695714Y-87705714D01*
X152600476Y-87658095D01*
X152505238Y-87562857D01*
X152457619Y-87420000D01*
X152457619Y-87181904D01*
X152457619Y-88705714D02*
X152457619Y-88134285D01*
X152457619Y-88420000D02*
X153457619Y-88420000D01*
X153314761Y-88324761D01*
X153219523Y-88229523D01*
X153171904Y-88134285D01*
X221323333Y-102445714D02*
X221323333Y-102921904D01*
X221037619Y-102350476D02*
X222037619Y-102683809D01*
X221037619Y-103017142D01*
X221704285Y-103779047D02*
X221037619Y-103779047D01*
X222085238Y-103540952D02*
X221370952Y-103302857D01*
X221370952Y-103921904D01*
X196920000Y-101088571D02*
X196920000Y-101993333D01*
X196161428Y-101326666D02*
X196161428Y-101660000D01*
X195637619Y-101802857D02*
X195637619Y-101326666D01*
X196637619Y-101326666D01*
X196637619Y-101802857D01*
X196920000Y-101993333D02*
X196920000Y-102469523D01*
X195637619Y-102231428D02*
X196637619Y-102231428D01*
X196920000Y-102469523D02*
X196920000Y-103517142D01*
X195637619Y-102707619D02*
X196637619Y-102707619D01*
X195637619Y-103279047D01*
X196637619Y-103279047D01*
X196920000Y-103517142D02*
X196920000Y-104279047D01*
X196637619Y-103612380D02*
X196637619Y-104183809D01*
X195637619Y-103898095D02*
X196637619Y-103898095D01*
X196920000Y-104279047D02*
X196920000Y-105231428D01*
X196304285Y-104945714D02*
X195637619Y-104945714D01*
X196685238Y-104707619D02*
X195970952Y-104469523D01*
X195970952Y-105088571D01*
X208861428Y-87086666D02*
X208861428Y-86753333D01*
X208337619Y-86753333D02*
X209337619Y-86753333D01*
X209337619Y-87229523D01*
X208432857Y-88181904D02*
X208385238Y-88134285D01*
X208337619Y-87991428D01*
X208337619Y-87896190D01*
X208385238Y-87753333D01*
X208480476Y-87658095D01*
X208575714Y-87610476D01*
X208766190Y-87562857D01*
X208909047Y-87562857D01*
X209099523Y-87610476D01*
X209194761Y-87658095D01*
X209290000Y-87753333D01*
X209337619Y-87896190D01*
X209337619Y-87991428D01*
X209290000Y-88134285D01*
X209242380Y-88181904D01*
X208337619Y-89134285D02*
X208337619Y-88562857D01*
X208337619Y-88848571D02*
X209337619Y-88848571D01*
X209194761Y-88753333D01*
X209099523Y-88658095D01*
X209051904Y-88562857D01*
X144837619Y-87181904D02*
X145837619Y-87181904D01*
X145837619Y-87420000D01*
X145790000Y-87562857D01*
X145694761Y-87658095D01*
X145599523Y-87705714D01*
X145409047Y-87753333D01*
X145266190Y-87753333D01*
X145075714Y-87705714D01*
X144980476Y-87658095D01*
X144885238Y-87562857D01*
X144837619Y-87420000D01*
X144837619Y-87181904D01*
X145504285Y-88610476D02*
X144837619Y-88610476D01*
X145885238Y-88372380D02*
X145170952Y-88134285D01*
X145170952Y-88753333D01*
X203543333Y-101969523D02*
X203543333Y-102445714D01*
X203257619Y-101874285D02*
X204257619Y-102207619D01*
X203257619Y-102540952D01*
X203257619Y-103398095D02*
X203257619Y-102826666D01*
X203257619Y-103112380D02*
X204257619Y-103112380D01*
X204114761Y-103017142D01*
X204019523Y-102921904D01*
X203971904Y-102826666D01*
X204162380Y-103779047D02*
X204210000Y-103826666D01*
X204257619Y-103921904D01*
X204257619Y-104160000D01*
X204210000Y-104255238D01*
X204162380Y-104302857D01*
X204067142Y-104350476D01*
X203971904Y-104350476D01*
X203829047Y-104302857D01*
X203257619Y-103731428D01*
X203257619Y-104350476D01*
X235020000Y-102183809D02*
X235020000Y-103183809D01*
X233832857Y-102993333D02*
X233785238Y-102945714D01*
X233737619Y-102802857D01*
X233737619Y-102707619D01*
X233785238Y-102564761D01*
X233880476Y-102469523D01*
X233975714Y-102421904D01*
X234166190Y-102374285D01*
X234309047Y-102374285D01*
X234499523Y-102421904D01*
X234594761Y-102469523D01*
X234690000Y-102564761D01*
X234737619Y-102707619D01*
X234737619Y-102802857D01*
X234690000Y-102945714D01*
X234642380Y-102993333D01*
X235020000Y-103183809D02*
X235020000Y-104136190D01*
X234737619Y-103326666D02*
X234737619Y-103945714D01*
X234356666Y-103612380D01*
X234356666Y-103755238D01*
X234309047Y-103850476D01*
X234261428Y-103898095D01*
X234166190Y-103945714D01*
X233928095Y-103945714D01*
X233832857Y-103898095D01*
X233785238Y-103850476D01*
X233737619Y-103755238D01*
X233737619Y-103469523D01*
X233785238Y-103374285D01*
X233832857Y-103326666D01*
X147377619Y-87181904D02*
X148377619Y-87181904D01*
X148377619Y-87420000D01*
X148330000Y-87562857D01*
X148234761Y-87658095D01*
X148139523Y-87705714D01*
X147949047Y-87753333D01*
X147806190Y-87753333D01*
X147615714Y-87705714D01*
X147520476Y-87658095D01*
X147425238Y-87562857D01*
X147377619Y-87420000D01*
X147377619Y-87181904D01*
X148377619Y-88086666D02*
X148377619Y-88705714D01*
X147996666Y-88372380D01*
X147996666Y-88515238D01*
X147949047Y-88610476D01*
X147901428Y-88658095D01*
X147806190Y-88705714D01*
X147568095Y-88705714D01*
X147472857Y-88658095D01*
X147425238Y-88610476D01*
X147377619Y-88515238D01*
X147377619Y-88229523D01*
X147425238Y-88134285D01*
X147472857Y-88086666D01*
X191557619Y-101898095D02*
X190557619Y-102231428D01*
X191557619Y-102564761D01*
X190557619Y-102898095D02*
X191557619Y-102898095D01*
X191557619Y-103279047D01*
X191510000Y-103374285D01*
X191462380Y-103421904D01*
X191367142Y-103469523D01*
X191224285Y-103469523D01*
X191129047Y-103421904D01*
X191081428Y-103374285D01*
X191033809Y-103279047D01*
X191033809Y-102898095D01*
X190843333Y-103850476D02*
X190843333Y-104326666D01*
X190557619Y-103755238D02*
X191557619Y-104088571D01*
X190557619Y-104421904D01*
X237560000Y-100969523D02*
X237560000Y-101969523D01*
X236372857Y-101779047D02*
X236325238Y-101731428D01*
X236277619Y-101588571D01*
X236277619Y-101493333D01*
X236325238Y-101350476D01*
X236420476Y-101255238D01*
X236515714Y-101207619D01*
X236706190Y-101160000D01*
X236849047Y-101160000D01*
X237039523Y-101207619D01*
X237134761Y-101255238D01*
X237230000Y-101350476D01*
X237277619Y-101493333D01*
X237277619Y-101588571D01*
X237230000Y-101731428D01*
X237182380Y-101779047D01*
X237560000Y-101969523D02*
X237560000Y-102826666D01*
X236801428Y-102540952D02*
X236801428Y-102207619D01*
X236277619Y-102207619D02*
X237277619Y-102207619D01*
X237277619Y-102683809D01*
X237560000Y-102826666D02*
X237560000Y-103826666D01*
X237230000Y-103588571D02*
X237277619Y-103493333D01*
X237277619Y-103350476D01*
X237230000Y-103207619D01*
X237134761Y-103112380D01*
X237039523Y-103064761D01*
X236849047Y-103017142D01*
X236706190Y-103017142D01*
X236515714Y-103064761D01*
X236420476Y-103112380D01*
X236325238Y-103207619D01*
X236277619Y-103350476D01*
X236277619Y-103445714D01*
X236325238Y-103588571D01*
X236372857Y-103636190D01*
X236706190Y-103636190D01*
X236706190Y-103445714D01*
X237560000Y-103826666D02*
X237560000Y-104302857D01*
X236277619Y-104064761D02*
X237277619Y-104064761D01*
X237560000Y-104302857D02*
X237560000Y-105350476D01*
X236277619Y-104540952D02*
X237277619Y-104540952D01*
X236277619Y-105112380D01*
X237277619Y-105112380D01*
X130880000Y-101088571D02*
X130880000Y-101993333D01*
X130121428Y-101326666D02*
X130121428Y-101660000D01*
X129597619Y-101802857D02*
X129597619Y-101326666D01*
X130597619Y-101326666D01*
X130597619Y-101802857D01*
X130880000Y-101993333D02*
X130880000Y-102469523D01*
X129597619Y-102231428D02*
X130597619Y-102231428D01*
X130880000Y-102469523D02*
X130880000Y-103517142D01*
X129597619Y-102707619D02*
X130597619Y-102707619D01*
X129597619Y-103279047D01*
X130597619Y-103279047D01*
X130880000Y-103517142D02*
X130880000Y-104279047D01*
X130597619Y-103612380D02*
X130597619Y-104183809D01*
X129597619Y-103898095D02*
X130597619Y-103898095D01*
X130880000Y-104279047D02*
X130880000Y-105231428D01*
X129597619Y-105040952D02*
X129597619Y-104469523D01*
X129597619Y-104755238D02*
X130597619Y-104755238D01*
X130454761Y-104660000D01*
X130359523Y-104564761D01*
X130311904Y-104469523D01*
X204210000Y-87158095D02*
X204257619Y-87062857D01*
X204257619Y-86920000D01*
X204210000Y-86777142D01*
X204114761Y-86681904D01*
X204019523Y-86634285D01*
X203829047Y-86586666D01*
X203686190Y-86586666D01*
X203495714Y-86634285D01*
X203400476Y-86681904D01*
X203305238Y-86777142D01*
X203257619Y-86920000D01*
X203257619Y-87015238D01*
X203305238Y-87158095D01*
X203352857Y-87205714D01*
X203686190Y-87205714D01*
X203686190Y-87015238D01*
X203257619Y-87634285D02*
X204257619Y-87634285D01*
X203257619Y-88205714D01*
X204257619Y-88205714D01*
X203257619Y-88681904D02*
X204257619Y-88681904D01*
X204257619Y-88920000D01*
X204210000Y-89062857D01*
X204114761Y-89158095D01*
X204019523Y-89205714D01*
X203829047Y-89253333D01*
X203686190Y-89253333D01*
X203495714Y-89205714D01*
X203400476Y-89158095D01*
X203305238Y-89062857D01*
X203257619Y-88920000D01*
X203257619Y-88681904D01*
X178143333Y-101969523D02*
X178143333Y-102445714D01*
X177857619Y-101874285D02*
X178857619Y-102207619D01*
X177857619Y-102540952D01*
X178762380Y-102826666D02*
X178810000Y-102874285D01*
X178857619Y-102969523D01*
X178857619Y-103207619D01*
X178810000Y-103302857D01*
X178762380Y-103350476D01*
X178667142Y-103398095D01*
X178571904Y-103398095D01*
X178429047Y-103350476D01*
X177857619Y-102779047D01*
X177857619Y-103398095D01*
X177857619Y-104350476D02*
X177857619Y-103779047D01*
X177857619Y-104064761D02*
X178857619Y-104064761D01*
X178714761Y-103969523D01*
X178619523Y-103874285D01*
X178571904Y-103779047D01*
X143250000Y-87158095D02*
X143297619Y-87062857D01*
X143297619Y-86920000D01*
X143250000Y-86777142D01*
X143154761Y-86681904D01*
X143059523Y-86634285D01*
X142869047Y-86586666D01*
X142726190Y-86586666D01*
X142535714Y-86634285D01*
X142440476Y-86681904D01*
X142345238Y-86777142D01*
X142297619Y-86920000D01*
X142297619Y-87015238D01*
X142345238Y-87158095D01*
X142392857Y-87205714D01*
X142726190Y-87205714D01*
X142726190Y-87015238D01*
X142297619Y-87634285D02*
X143297619Y-87634285D01*
X142297619Y-88205714D01*
X143297619Y-88205714D01*
X142297619Y-88681904D02*
X143297619Y-88681904D01*
X143297619Y-88920000D01*
X143250000Y-89062857D01*
X143154761Y-89158095D01*
X143059523Y-89205714D01*
X142869047Y-89253333D01*
X142726190Y-89253333D01*
X142535714Y-89205714D01*
X142440476Y-89158095D01*
X142345238Y-89062857D01*
X142297619Y-88920000D01*
X142297619Y-88681904D01*
X163900000Y-101779047D02*
X163900000Y-102588571D01*
X162617619Y-102493333D02*
X162617619Y-102017142D01*
X163617619Y-102017142D01*
X163900000Y-102588571D02*
X163900000Y-103588571D01*
X162617619Y-102826666D02*
X163617619Y-102826666D01*
X163617619Y-103064761D01*
X163570000Y-103207619D01*
X163474761Y-103302857D01*
X163379523Y-103350476D01*
X163189047Y-103398095D01*
X163046190Y-103398095D01*
X162855714Y-103350476D01*
X162760476Y-103302857D01*
X162665238Y-103207619D01*
X162617619Y-103064761D01*
X162617619Y-102826666D01*
X163900000Y-103588571D02*
X163900000Y-104540952D01*
X162665238Y-103779047D02*
X162617619Y-103921904D01*
X162617619Y-104160000D01*
X162665238Y-104255238D01*
X162712857Y-104302857D01*
X162808095Y-104350476D01*
X162903333Y-104350476D01*
X162998571Y-104302857D01*
X163046190Y-104255238D01*
X163093809Y-104160000D01*
X163141428Y-103969523D01*
X163189047Y-103874285D01*
X163236666Y-103826666D01*
X163331904Y-103779047D01*
X163427142Y-103779047D01*
X163522380Y-103826666D01*
X163570000Y-103874285D01*
X163617619Y-103969523D01*
X163617619Y-104207619D01*
X163570000Y-104350476D01*
X186477619Y-86586666D02*
X185477619Y-86920000D01*
X186477619Y-87253333D01*
X185477619Y-87586666D02*
X186477619Y-87586666D01*
X185763333Y-87920000D01*
X186477619Y-88253333D01*
X185477619Y-88253333D01*
X185763333Y-88681904D02*
X185763333Y-89158095D01*
X185477619Y-88586666D02*
X186477619Y-88920000D01*
X185477619Y-89253333D01*
X206083333Y-101969523D02*
X206083333Y-102445714D01*
X205797619Y-101874285D02*
X206797619Y-102207619D01*
X205797619Y-102540952D01*
X205797619Y-103398095D02*
X205797619Y-102826666D01*
X205797619Y-103112380D02*
X206797619Y-103112380D01*
X206654761Y-103017142D01*
X206559523Y-102921904D01*
X206511904Y-102826666D01*
X205797619Y-104350476D02*
X205797619Y-103779047D01*
X205797619Y-104064761D02*
X206797619Y-104064761D01*
X206654761Y-103969523D01*
X206559523Y-103874285D01*
X206511904Y-103779047D01*
X133420000Y-100302857D02*
X133420000Y-101302857D01*
X132661428Y-100874285D02*
X132613809Y-101017142D01*
X132566190Y-101064761D01*
X132470952Y-101112380D01*
X132328095Y-101112380D01*
X132232857Y-101064761D01*
X132185238Y-101017142D01*
X132137619Y-100921904D01*
X132137619Y-100540952D01*
X133137619Y-100540952D01*
X133137619Y-100874285D01*
X133090000Y-100969523D01*
X133042380Y-101017142D01*
X132947142Y-101064761D01*
X132851904Y-101064761D01*
X132756666Y-101017142D01*
X132709047Y-100969523D01*
X132661428Y-100874285D01*
X132661428Y-100540952D01*
X133420000Y-101302857D02*
X133420000Y-102350476D01*
X133137619Y-101540952D02*
X132328095Y-101540952D01*
X132232857Y-101588571D01*
X132185238Y-101636190D01*
X132137619Y-101731428D01*
X132137619Y-101921904D01*
X132185238Y-102017142D01*
X132232857Y-102064761D01*
X132328095Y-102112380D01*
X133137619Y-102112380D01*
X133420000Y-102350476D02*
X133420000Y-103302857D01*
X132185238Y-102540952D02*
X132137619Y-102683809D01*
X132137619Y-102921904D01*
X132185238Y-103017142D01*
X132232857Y-103064761D01*
X132328095Y-103112380D01*
X132423333Y-103112380D01*
X132518571Y-103064761D01*
X132566190Y-103017142D01*
X132613809Y-102921904D01*
X132661428Y-102731428D01*
X132709047Y-102636190D01*
X132756666Y-102588571D01*
X132851904Y-102540952D01*
X132947142Y-102540952D01*
X133042380Y-102588571D01*
X133090000Y-102636190D01*
X133137619Y-102731428D01*
X133137619Y-102969523D01*
X133090000Y-103112380D01*
X133420000Y-103302857D02*
X133420000Y-104302857D01*
X132137619Y-104112380D02*
X132613809Y-103779047D01*
X132137619Y-103540952D02*
X133137619Y-103540952D01*
X133137619Y-103921904D01*
X133090000Y-104017142D01*
X133042380Y-104064761D01*
X132947142Y-104112380D01*
X132804285Y-104112380D01*
X132709047Y-104064761D01*
X132661428Y-104017142D01*
X132613809Y-103921904D01*
X132613809Y-103540952D01*
X133420000Y-104302857D02*
X133420000Y-105255238D01*
X132185238Y-104493333D02*
X132137619Y-104636190D01*
X132137619Y-104874285D01*
X132185238Y-104969523D01*
X132232857Y-105017142D01*
X132328095Y-105064761D01*
X132423333Y-105064761D01*
X132518571Y-105017142D01*
X132566190Y-104969523D01*
X132613809Y-104874285D01*
X132661428Y-104683809D01*
X132709047Y-104588571D01*
X132756666Y-104540952D01*
X132851904Y-104493333D01*
X132947142Y-104493333D01*
X133042380Y-104540952D01*
X133090000Y-104588571D01*
X133137619Y-104683809D01*
X133137619Y-104921904D01*
X133090000Y-105064761D01*
X133420000Y-105255238D02*
X133420000Y-106017142D01*
X133137619Y-105350476D02*
X133137619Y-105921904D01*
X132137619Y-105636190D02*
X133137619Y-105636190D01*
X195923333Y-86729523D02*
X195923333Y-87205714D01*
X195637619Y-86634285D02*
X196637619Y-86967619D01*
X195637619Y-87300952D01*
X195637619Y-88158095D02*
X195637619Y-87586666D01*
X195637619Y-87872380D02*
X196637619Y-87872380D01*
X196494761Y-87777142D01*
X196399523Y-87681904D01*
X196351904Y-87586666D01*
X196637619Y-89062857D02*
X196637619Y-88586666D01*
X196161428Y-88539047D01*
X196209047Y-88586666D01*
X196256666Y-88681904D01*
X196256666Y-88920000D01*
X196209047Y-89015238D01*
X196161428Y-89062857D01*
X196066190Y-89110476D01*
X195828095Y-89110476D01*
X195732857Y-89062857D01*
X195685238Y-89015238D01*
X195637619Y-88920000D01*
X195637619Y-88681904D01*
X195685238Y-88586666D01*
X195732857Y-88539047D01*
X224860000Y-101540952D02*
X224860000Y-102017142D01*
X223577619Y-101779047D02*
X224577619Y-101779047D01*
X224860000Y-102017142D02*
X224860000Y-103064761D01*
X223577619Y-102255238D02*
X224577619Y-102255238D01*
X223577619Y-102826666D01*
X224577619Y-102826666D01*
X224860000Y-103064761D02*
X224860000Y-103826666D01*
X224577619Y-103160000D02*
X224577619Y-103731428D01*
X223577619Y-103445714D02*
X224577619Y-103445714D01*
X224860000Y-103826666D02*
X224860000Y-104779047D01*
X224577619Y-104493333D02*
X224577619Y-104302857D01*
X224530000Y-104207619D01*
X224482380Y-104160000D01*
X224339523Y-104064761D01*
X224149047Y-104017142D01*
X223768095Y-104017142D01*
X223672857Y-104064761D01*
X223625238Y-104112380D01*
X223577619Y-104207619D01*
X223577619Y-104398095D01*
X223625238Y-104493333D01*
X223672857Y-104540952D01*
X223768095Y-104588571D01*
X224006190Y-104588571D01*
X224101428Y-104540952D01*
X224149047Y-104493333D01*
X224196666Y-104398095D01*
X224196666Y-104207619D01*
X224149047Y-104112380D01*
X224101428Y-104064761D01*
X224006190Y-104017142D01*
X147377619Y-102421904D02*
X148377619Y-102421904D01*
X148377619Y-102660000D01*
X148330000Y-102802857D01*
X148234761Y-102898095D01*
X148139523Y-102945714D01*
X147949047Y-102993333D01*
X147806190Y-102993333D01*
X147615714Y-102945714D01*
X147520476Y-102898095D01*
X147425238Y-102802857D01*
X147377619Y-102660000D01*
X147377619Y-102421904D01*
X148377619Y-103326666D02*
X148377619Y-103993333D01*
X147377619Y-103564761D01*
X181680000Y-86181904D02*
X181680000Y-87229523D01*
X180397619Y-86420000D02*
X181397619Y-86420000D01*
X180921428Y-86420000D02*
X180921428Y-86991428D01*
X180397619Y-86991428D02*
X181397619Y-86991428D01*
X181680000Y-87229523D02*
X181680000Y-88086666D01*
X180683333Y-87420000D02*
X180683333Y-87896190D01*
X180397619Y-87324761D02*
X181397619Y-87658095D01*
X180397619Y-87991428D01*
X181680000Y-88086666D02*
X181680000Y-88896190D01*
X180397619Y-88800952D02*
X180397619Y-88324761D01*
X181397619Y-88324761D01*
X181680000Y-88896190D02*
X181680000Y-89658095D01*
X181397619Y-88991428D02*
X181397619Y-89562857D01*
X180397619Y-89277142D02*
X181397619Y-89277142D01*
X234690000Y-87158095D02*
X234737619Y-87062857D01*
X234737619Y-86920000D01*
X234690000Y-86777142D01*
X234594761Y-86681904D01*
X234499523Y-86634285D01*
X234309047Y-86586666D01*
X234166190Y-86586666D01*
X233975714Y-86634285D01*
X233880476Y-86681904D01*
X233785238Y-86777142D01*
X233737619Y-86920000D01*
X233737619Y-87015238D01*
X233785238Y-87158095D01*
X233832857Y-87205714D01*
X234166190Y-87205714D01*
X234166190Y-87015238D01*
X233737619Y-87634285D02*
X234737619Y-87634285D01*
X233737619Y-88205714D01*
X234737619Y-88205714D01*
X233737619Y-88681904D02*
X234737619Y-88681904D01*
X234737619Y-88920000D01*
X234690000Y-89062857D01*
X234594761Y-89158095D01*
X234499523Y-89205714D01*
X234309047Y-89253333D01*
X234166190Y-89253333D01*
X233975714Y-89205714D01*
X233880476Y-89158095D01*
X233785238Y-89062857D01*
X233737619Y-88920000D01*
X233737619Y-88681904D01*
X165157619Y-86705714D02*
X166157619Y-86705714D01*
X166157619Y-86943809D01*
X166110000Y-87086666D01*
X166014761Y-87181904D01*
X165919523Y-87229523D01*
X165729047Y-87277142D01*
X165586190Y-87277142D01*
X165395714Y-87229523D01*
X165300476Y-87181904D01*
X165205238Y-87086666D01*
X165157619Y-86943809D01*
X165157619Y-86705714D01*
X165157619Y-88229523D02*
X165157619Y-87658095D01*
X165157619Y-87943809D02*
X166157619Y-87943809D01*
X166014761Y-87848571D01*
X165919523Y-87753333D01*
X165871904Y-87658095D01*
X166157619Y-88562857D02*
X166157619Y-89181904D01*
X165776666Y-88848571D01*
X165776666Y-88991428D01*
X165729047Y-89086666D01*
X165681428Y-89134285D01*
X165586190Y-89181904D01*
X165348095Y-89181904D01*
X165252857Y-89134285D01*
X165205238Y-89086666D01*
X165157619Y-88991428D01*
X165157619Y-88705714D01*
X165205238Y-88610476D01*
X165252857Y-88562857D01*
X190843333Y-86729523D02*
X190843333Y-87205714D01*
X190557619Y-86634285D02*
X191557619Y-86967619D01*
X190557619Y-87300952D01*
X190557619Y-88158095D02*
X190557619Y-87586666D01*
X190557619Y-87872380D02*
X191557619Y-87872380D01*
X191414761Y-87777142D01*
X191319523Y-87681904D01*
X191271904Y-87586666D01*
X191557619Y-88491428D02*
X191557619Y-89158095D01*
X190557619Y-88729523D01*
X208623333Y-101969523D02*
X208623333Y-102445714D01*
X208337619Y-101874285D02*
X209337619Y-102207619D01*
X208337619Y-102540952D01*
X208337619Y-103398095D02*
X208337619Y-102826666D01*
X208337619Y-103112380D02*
X209337619Y-103112380D01*
X209194761Y-103017142D01*
X209099523Y-102921904D01*
X209051904Y-102826666D01*
X209337619Y-104017142D02*
X209337619Y-104112380D01*
X209290000Y-104207619D01*
X209242380Y-104255238D01*
X209147142Y-104302857D01*
X208956666Y-104350476D01*
X208718571Y-104350476D01*
X208528095Y-104302857D01*
X208432857Y-104255238D01*
X208385238Y-104207619D01*
X208337619Y-104112380D01*
X208337619Y-104017142D01*
X208385238Y-103921904D01*
X208432857Y-103874285D01*
X208528095Y-103826666D01*
X208718571Y-103779047D01*
X208956666Y-103779047D01*
X209147142Y-103826666D01*
X209242380Y-103874285D01*
X209290000Y-103921904D01*
X209337619Y-104017142D01*
X154997619Y-87181904D02*
X155997619Y-87181904D01*
X155997619Y-87420000D01*
X155950000Y-87562857D01*
X155854761Y-87658095D01*
X155759523Y-87705714D01*
X155569047Y-87753333D01*
X155426190Y-87753333D01*
X155235714Y-87705714D01*
X155140476Y-87658095D01*
X155045238Y-87562857D01*
X154997619Y-87420000D01*
X154997619Y-87181904D01*
X155997619Y-88372380D02*
X155997619Y-88467619D01*
X155950000Y-88562857D01*
X155902380Y-88610476D01*
X155807142Y-88658095D01*
X155616666Y-88705714D01*
X155378571Y-88705714D01*
X155188095Y-88658095D01*
X155092857Y-88610476D01*
X155045238Y-88562857D01*
X154997619Y-88467619D01*
X154997619Y-88372380D01*
X155045238Y-88277142D01*
X155092857Y-88229523D01*
X155188095Y-88181904D01*
X155378571Y-88134285D01*
X155616666Y-88134285D01*
X155807142Y-88181904D01*
X155902380Y-88229523D01*
X155950000Y-88277142D01*
X155997619Y-88372380D01*
X193383333Y-86729523D02*
X193383333Y-87205714D01*
X193097619Y-86634285D02*
X194097619Y-86967619D01*
X193097619Y-87300952D01*
X193097619Y-88158095D02*
X193097619Y-87586666D01*
X193097619Y-87872380D02*
X194097619Y-87872380D01*
X193954761Y-87777142D01*
X193859523Y-87681904D01*
X193811904Y-87586666D01*
X194097619Y-89015238D02*
X194097619Y-88824761D01*
X194050000Y-88729523D01*
X194002380Y-88681904D01*
X193859523Y-88586666D01*
X193669047Y-88539047D01*
X193288095Y-88539047D01*
X193192857Y-88586666D01*
X193145238Y-88634285D01*
X193097619Y-88729523D01*
X193097619Y-88920000D01*
X193145238Y-89015238D01*
X193192857Y-89062857D01*
X193288095Y-89110476D01*
X193526190Y-89110476D01*
X193621428Y-89062857D01*
X193669047Y-89015238D01*
X193716666Y-88920000D01*
X193716666Y-88729523D01*
X193669047Y-88634285D01*
X193621428Y-88586666D01*
X193526190Y-88539047D01*
X198463333Y-86729523D02*
X198463333Y-87205714D01*
X198177619Y-86634285D02*
X199177619Y-86967619D01*
X198177619Y-87300952D01*
X198177619Y-88158095D02*
X198177619Y-87586666D01*
X198177619Y-87872380D02*
X199177619Y-87872380D01*
X199034761Y-87777142D01*
X198939523Y-87681904D01*
X198891904Y-87586666D01*
X198844285Y-89015238D02*
X198177619Y-89015238D01*
X199225238Y-88777142D02*
X198510952Y-88539047D01*
X198510952Y-89158095D01*
D11*
X130598571Y-110137142D02*
X128312857Y-110994285D01*
X130598571Y-111851428D01*
X135312857Y-110565714D02*
X134312857Y-110565714D01*
X134312857Y-112137142D02*
X134312857Y-109137142D01*
X135741428Y-109137142D01*
X138598571Y-112137142D02*
X137598571Y-110708571D01*
X136884285Y-112137142D02*
X136884285Y-109137142D01*
X138027142Y-109137142D01*
X138312857Y-109280000D01*
X138455714Y-109422857D01*
X138598571Y-109708571D01*
X138598571Y-110137142D01*
X138455714Y-110422857D01*
X138312857Y-110565714D01*
X138027142Y-110708571D01*
X136884285Y-110708571D01*
X140455714Y-109137142D02*
X141027142Y-109137142D01*
X141312857Y-109280000D01*
X141598571Y-109565714D01*
X141741428Y-110137142D01*
X141741428Y-111137142D01*
X141598571Y-111708571D01*
X141312857Y-111994285D01*
X141027142Y-112137142D01*
X140455714Y-112137142D01*
X140170000Y-111994285D01*
X139884285Y-111708571D01*
X139741428Y-111137142D01*
X139741428Y-110137142D01*
X139884285Y-109565714D01*
X140170000Y-109280000D01*
X140455714Y-109137142D01*
X143027142Y-112137142D02*
X143027142Y-109137142D01*
X144741428Y-112137142D01*
X144741428Y-109137142D01*
X145741428Y-109137142D02*
X147455714Y-109137142D01*
X146598571Y-112137142D02*
X146598571Y-109137142D01*
D10*
X218783333Y-102445714D02*
X218783333Y-102921904D01*
X218497619Y-102350476D02*
X219497619Y-102683809D01*
X218497619Y-103017142D01*
X219497619Y-103255238D02*
X219497619Y-103874285D01*
X219116666Y-103540952D01*
X219116666Y-103683809D01*
X219069047Y-103779047D01*
X219021428Y-103826666D01*
X218926190Y-103874285D01*
X218688095Y-103874285D01*
X218592857Y-103826666D01*
X218545238Y-103779047D01*
X218497619Y-103683809D01*
X218497619Y-103398095D01*
X218545238Y-103302857D01*
X218592857Y-103255238D01*
X144837619Y-102421904D02*
X145837619Y-102421904D01*
X145837619Y-102660000D01*
X145790000Y-102802857D01*
X145694761Y-102898095D01*
X145599523Y-102945714D01*
X145409047Y-102993333D01*
X145266190Y-102993333D01*
X145075714Y-102945714D01*
X144980476Y-102898095D01*
X144885238Y-102802857D01*
X144837619Y-102660000D01*
X144837619Y-102421904D01*
X145837619Y-103850476D02*
X145837619Y-103660000D01*
X145790000Y-103564761D01*
X145742380Y-103517142D01*
X145599523Y-103421904D01*
X145409047Y-103374285D01*
X145028095Y-103374285D01*
X144932857Y-103421904D01*
X144885238Y-103469523D01*
X144837619Y-103564761D01*
X144837619Y-103755238D01*
X144885238Y-103850476D01*
X144932857Y-103898095D01*
X145028095Y-103945714D01*
X145266190Y-103945714D01*
X145361428Y-103898095D01*
X145409047Y-103850476D01*
X145456666Y-103755238D01*
X145456666Y-103564761D01*
X145409047Y-103469523D01*
X145361428Y-103421904D01*
X145266190Y-103374285D01*
X216243333Y-87205714D02*
X216243333Y-87681904D01*
X215957619Y-87110476D02*
X216957619Y-87443809D01*
X215957619Y-87777142D01*
X216862380Y-88062857D02*
X216910000Y-88110476D01*
X216957619Y-88205714D01*
X216957619Y-88443809D01*
X216910000Y-88539047D01*
X216862380Y-88586666D01*
X216767142Y-88634285D01*
X216671904Y-88634285D01*
X216529047Y-88586666D01*
X215957619Y-88015238D01*
X215957619Y-88634285D01*
X127057626Y-87253325D02*
X127057626Y-87443801D01*
X127105245Y-87539039D01*
X127152864Y-87586658D01*
X127295721Y-87681896D01*
X127486197Y-87729515D01*
X127867149Y-87729515D01*
X127962387Y-87681896D01*
X128010007Y-87634277D01*
X128057626Y-87539039D01*
X128057626Y-87348563D01*
X128010007Y-87253325D01*
X127962387Y-87205706D01*
X127867149Y-87158087D01*
X127629054Y-87158087D01*
X127533816Y-87205706D01*
X127486197Y-87253325D01*
X127438578Y-87348563D01*
X127438578Y-87539039D01*
X127486197Y-87634277D01*
X127533816Y-87681896D01*
X127629054Y-87729515D01*
X128057626Y-88062849D02*
X128057626Y-88729515D01*
X127057626Y-88300944D01*
X232480000Y-102183809D02*
X232480000Y-103183809D01*
X231292857Y-102993333D02*
X231245238Y-102945714D01*
X231197619Y-102802857D01*
X231197619Y-102707619D01*
X231245238Y-102564761D01*
X231340476Y-102469523D01*
X231435714Y-102421904D01*
X231626190Y-102374285D01*
X231769047Y-102374285D01*
X231959523Y-102421904D01*
X232054761Y-102469523D01*
X232150000Y-102564761D01*
X232197619Y-102707619D01*
X232197619Y-102802857D01*
X232150000Y-102945714D01*
X232102380Y-102993333D01*
X232480000Y-103183809D02*
X232480000Y-104136190D01*
X231197619Y-103945714D02*
X231197619Y-103374285D01*
X231197619Y-103660000D02*
X232197619Y-103660000D01*
X232054761Y-103564761D01*
X231959523Y-103469523D01*
X231911904Y-103374285D01*
X223863333Y-87205714D02*
X223863333Y-87681904D01*
X223577619Y-87110476D02*
X224577619Y-87443809D01*
X223577619Y-87777142D01*
X224577619Y-88586666D02*
X224577619Y-88110476D01*
X224101428Y-88062857D01*
X224149047Y-88110476D01*
X224196666Y-88205714D01*
X224196666Y-88443809D01*
X224149047Y-88539047D01*
X224101428Y-88586666D01*
X224006190Y-88634285D01*
X223768095Y-88634285D01*
X223672857Y-88586666D01*
X223625238Y-88539047D01*
X223577619Y-88443809D01*
X223577619Y-88205714D01*
X223625238Y-88110476D01*
X223672857Y-88062857D01*
X199460000Y-101088571D02*
X199460000Y-101993333D01*
X198701428Y-101326666D02*
X198701428Y-101660000D01*
X198177619Y-101802857D02*
X198177619Y-101326666D01*
X199177619Y-101326666D01*
X199177619Y-101802857D01*
X199460000Y-101993333D02*
X199460000Y-102469523D01*
X198177619Y-102231428D02*
X199177619Y-102231428D01*
X199460000Y-102469523D02*
X199460000Y-103517142D01*
X198177619Y-102707619D02*
X199177619Y-102707619D01*
X198177619Y-103279047D01*
X199177619Y-103279047D01*
X199460000Y-103517142D02*
X199460000Y-104279047D01*
X199177619Y-103612380D02*
X199177619Y-104183809D01*
X198177619Y-103898095D02*
X199177619Y-103898095D01*
X199460000Y-104279047D02*
X199460000Y-105231428D01*
X199177619Y-104993333D02*
X199177619Y-104517142D01*
X198701428Y-104469523D01*
X198749047Y-104517142D01*
X198796666Y-104612380D01*
X198796666Y-104850476D01*
X198749047Y-104945714D01*
X198701428Y-104993333D01*
X198606190Y-105040952D01*
X198368095Y-105040952D01*
X198272857Y-104993333D01*
X198225238Y-104945714D01*
X198177619Y-104850476D01*
X198177619Y-104612380D01*
X198225238Y-104517142D01*
X198272857Y-104469523D01*
X244278571Y-101874285D02*
X244278571Y-102636190D01*
X243897619Y-102255238D02*
X244659523Y-102255238D01*
X244897619Y-103588571D02*
X244897619Y-103112380D01*
X244421428Y-103064761D01*
X244469047Y-103112380D01*
X244516666Y-103207619D01*
X244516666Y-103445714D01*
X244469047Y-103540952D01*
X244421428Y-103588571D01*
X244326190Y-103636190D01*
X244088095Y-103636190D01*
X243992857Y-103588571D01*
X243945238Y-103540952D01*
X243897619Y-103445714D01*
X243897619Y-103207619D01*
X243945238Y-103112380D01*
X243992857Y-103064761D01*
X244897619Y-103921904D02*
X243897619Y-104255238D01*
X244897619Y-104588571D01*
X140710000Y-102398095D02*
X140757619Y-102302857D01*
X140757619Y-102160000D01*
X140710000Y-102017142D01*
X140614761Y-101921904D01*
X140519523Y-101874285D01*
X140329047Y-101826666D01*
X140186190Y-101826666D01*
X139995714Y-101874285D01*
X139900476Y-101921904D01*
X139805238Y-102017142D01*
X139757619Y-102160000D01*
X139757619Y-102255238D01*
X139805238Y-102398095D01*
X139852857Y-102445714D01*
X140186190Y-102445714D01*
X140186190Y-102255238D01*
X139757619Y-102874285D02*
X140757619Y-102874285D01*
X139757619Y-103445714D01*
X140757619Y-103445714D01*
X139757619Y-103921904D02*
X140757619Y-103921904D01*
X140757619Y-104160000D01*
X140710000Y-104302857D01*
X140614761Y-104398095D01*
X140519523Y-104445714D01*
X140329047Y-104493333D01*
X140186190Y-104493333D01*
X139995714Y-104445714D01*
X139900476Y-104398095D01*
X139805238Y-104302857D01*
X139757619Y-104160000D01*
X139757619Y-103921904D01*
X138170000Y-87158095D02*
X138217619Y-87062857D01*
X138217619Y-86920000D01*
X138170000Y-86777142D01*
X138074761Y-86681904D01*
X137979523Y-86634285D01*
X137789047Y-86586666D01*
X137646190Y-86586666D01*
X137455714Y-86634285D01*
X137360476Y-86681904D01*
X137265238Y-86777142D01*
X137217619Y-86920000D01*
X137217619Y-87015238D01*
X137265238Y-87158095D01*
X137312857Y-87205714D01*
X137646190Y-87205714D01*
X137646190Y-87015238D01*
X137217619Y-87634285D02*
X138217619Y-87634285D01*
X137217619Y-88205714D01*
X138217619Y-88205714D01*
X137217619Y-88681904D02*
X138217619Y-88681904D01*
X138217619Y-88920000D01*
X138170000Y-89062857D01*
X138074761Y-89158095D01*
X137979523Y-89205714D01*
X137789047Y-89253333D01*
X137646190Y-89253333D01*
X137455714Y-89205714D01*
X137360476Y-89158095D01*
X137265238Y-89062857D01*
X137217619Y-88920000D01*
X137217619Y-88681904D01*
X183223333Y-101969523D02*
X183223333Y-102445714D01*
X182937619Y-101874285D02*
X183937619Y-102207619D01*
X182937619Y-102540952D01*
X182937619Y-103398095D02*
X182937619Y-102826666D01*
X182937619Y-103112380D02*
X183937619Y-103112380D01*
X183794761Y-103017142D01*
X183699523Y-102921904D01*
X183651904Y-102826666D01*
X182937619Y-103874285D02*
X182937619Y-104064761D01*
X182985238Y-104160000D01*
X183032857Y-104207619D01*
X183175714Y-104302857D01*
X183366190Y-104350476D01*
X183747142Y-104350476D01*
X183842380Y-104302857D01*
X183890000Y-104255238D01*
X183937619Y-104160000D01*
X183937619Y-103969523D01*
X183890000Y-103874285D01*
X183842380Y-103826666D01*
X183747142Y-103779047D01*
X183509047Y-103779047D01*
X183413809Y-103826666D01*
X183366190Y-103874285D01*
X183318571Y-103969523D01*
X183318571Y-104160000D01*
X183366190Y-104255238D01*
X183413809Y-104302857D01*
X183509047Y-104350476D01*
X165157619Y-102088571D02*
X165633809Y-101755238D01*
X165157619Y-101517142D02*
X166157619Y-101517142D01*
X166157619Y-101898095D01*
X166110000Y-101993333D01*
X166062380Y-102040952D01*
X165967142Y-102088571D01*
X165824285Y-102088571D01*
X165729047Y-102040952D01*
X165681428Y-101993333D01*
X165633809Y-101898095D01*
X165633809Y-101517142D01*
X165681428Y-102517142D02*
X165681428Y-102850476D01*
X165157619Y-102993333D02*
X165157619Y-102517142D01*
X166157619Y-102517142D01*
X166157619Y-102993333D01*
X165443333Y-103374285D02*
X165443333Y-103850476D01*
X165157619Y-103279047D02*
X166157619Y-103612380D01*
X165157619Y-103945714D01*
X165157619Y-104279047D02*
X166157619Y-104279047D01*
X166157619Y-104517142D01*
X166110000Y-104660000D01*
X166014761Y-104755238D01*
X165919523Y-104802857D01*
X165729047Y-104850476D01*
X165586190Y-104850476D01*
X165395714Y-104802857D01*
X165300476Y-104755238D01*
X165205238Y-104660000D01*
X165157619Y-104517142D01*
X165157619Y-104279047D01*
X188970000Y-87158095D02*
X189017619Y-87062857D01*
X189017619Y-86920000D01*
X188970000Y-86777142D01*
X188874761Y-86681904D01*
X188779523Y-86634285D01*
X188589047Y-86586666D01*
X188446190Y-86586666D01*
X188255714Y-86634285D01*
X188160476Y-86681904D01*
X188065238Y-86777142D01*
X188017619Y-86920000D01*
X188017619Y-87015238D01*
X188065238Y-87158095D01*
X188112857Y-87205714D01*
X188446190Y-87205714D01*
X188446190Y-87015238D01*
X188017619Y-87634285D02*
X189017619Y-87634285D01*
X188017619Y-88205714D01*
X189017619Y-88205714D01*
X188017619Y-88681904D02*
X189017619Y-88681904D01*
X189017619Y-88920000D01*
X188970000Y-89062857D01*
X188874761Y-89158095D01*
X188779523Y-89205714D01*
X188589047Y-89253333D01*
X188446190Y-89253333D01*
X188255714Y-89205714D01*
X188160476Y-89158095D01*
X188065238Y-89062857D01*
X188017619Y-88920000D01*
X188017619Y-88681904D01*
X178143333Y-86729523D02*
X178143333Y-87205714D01*
X177857619Y-86634285D02*
X178857619Y-86967619D01*
X177857619Y-87300952D01*
X178762380Y-87586666D02*
X178810000Y-87634285D01*
X178857619Y-87729523D01*
X178857619Y-87967619D01*
X178810000Y-88062857D01*
X178762380Y-88110476D01*
X178667142Y-88158095D01*
X178571904Y-88158095D01*
X178429047Y-88110476D01*
X177857619Y-87539047D01*
X177857619Y-88158095D01*
X178762380Y-88539047D02*
X178810000Y-88586666D01*
X178857619Y-88681904D01*
X178857619Y-88920000D01*
X178810000Y-89015238D01*
X178762380Y-89062857D01*
X178667142Y-89110476D01*
X178571904Y-89110476D01*
X178429047Y-89062857D01*
X177857619Y-88491428D01*
X177857619Y-89110476D01*
X176600000Y-102160000D02*
X176600000Y-103160000D01*
X175841428Y-102731428D02*
X175793809Y-102874285D01*
X175746190Y-102921904D01*
X175650952Y-102969523D01*
X175508095Y-102969523D01*
X175412857Y-102921904D01*
X175365238Y-102874285D01*
X175317619Y-102779047D01*
X175317619Y-102398095D01*
X176317619Y-102398095D01*
X176317619Y-102731428D01*
X176270000Y-102826666D01*
X176222380Y-102874285D01*
X176127142Y-102921904D01*
X176031904Y-102921904D01*
X175936666Y-102874285D01*
X175889047Y-102826666D01*
X175841428Y-102731428D01*
X175841428Y-102398095D01*
X176600000Y-103160000D02*
X176600000Y-104160000D01*
X175317619Y-103969523D02*
X175793809Y-103636190D01*
X175317619Y-103398095D02*
X176317619Y-103398095D01*
X176317619Y-103779047D01*
X176270000Y-103874285D01*
X176222380Y-103921904D01*
X176127142Y-103969523D01*
X175984285Y-103969523D01*
X175889047Y-103921904D01*
X175841428Y-103874285D01*
X175793809Y-103779047D01*
X175793809Y-103398095D01*
X247390000Y-102398095D02*
X247437619Y-102302857D01*
X247437619Y-102160000D01*
X247390000Y-102017142D01*
X247294761Y-101921904D01*
X247199523Y-101874285D01*
X247009047Y-101826666D01*
X246866190Y-101826666D01*
X246675714Y-101874285D01*
X246580476Y-101921904D01*
X246485238Y-102017142D01*
X246437619Y-102160000D01*
X246437619Y-102255238D01*
X246485238Y-102398095D01*
X246532857Y-102445714D01*
X246866190Y-102445714D01*
X246866190Y-102255238D01*
X246437619Y-102874285D02*
X247437619Y-102874285D01*
X246437619Y-103445714D01*
X247437619Y-103445714D01*
X246437619Y-103921904D02*
X247437619Y-103921904D01*
X247437619Y-104160000D01*
X247390000Y-104302857D01*
X247294761Y-104398095D01*
X247199523Y-104445714D01*
X247009047Y-104493333D01*
X246866190Y-104493333D01*
X246675714Y-104445714D01*
X246580476Y-104398095D01*
X246485238Y-104302857D01*
X246437619Y-104160000D01*
X246437619Y-103921904D01*
X152457619Y-102421904D02*
X153457619Y-102421904D01*
X153457619Y-102660000D01*
X153410000Y-102802857D01*
X153314761Y-102898095D01*
X153219523Y-102945714D01*
X153029047Y-102993333D01*
X152886190Y-102993333D01*
X152695714Y-102945714D01*
X152600476Y-102898095D01*
X152505238Y-102802857D01*
X152457619Y-102660000D01*
X152457619Y-102421904D01*
X152457619Y-103469523D02*
X152457619Y-103660000D01*
X152505238Y-103755238D01*
X152552857Y-103802857D01*
X152695714Y-103898095D01*
X152886190Y-103945714D01*
X153267142Y-103945714D01*
X153362380Y-103898095D01*
X153410000Y-103850476D01*
X153457619Y-103755238D01*
X153457619Y-103564761D01*
X153410000Y-103469523D01*
X153362380Y-103421904D01*
X153267142Y-103374285D01*
X153029047Y-103374285D01*
X152933809Y-103421904D01*
X152886190Y-103469523D01*
X152838571Y-103564761D01*
X152838571Y-103755238D01*
X152886190Y-103850476D01*
X152933809Y-103898095D01*
X153029047Y-103945714D01*
X240100000Y-85729523D02*
X240100000Y-86681904D01*
X238865238Y-85920000D02*
X238817619Y-86062857D01*
X238817619Y-86300952D01*
X238865238Y-86396190D01*
X238912857Y-86443809D01*
X239008095Y-86491428D01*
X239103333Y-86491428D01*
X239198571Y-86443809D01*
X239246190Y-86396190D01*
X239293809Y-86300952D01*
X239341428Y-86110476D01*
X239389047Y-86015238D01*
X239436666Y-85967619D01*
X239531904Y-85920000D01*
X239627142Y-85920000D01*
X239722380Y-85967619D01*
X239770000Y-86015238D01*
X239817619Y-86110476D01*
X239817619Y-86348571D01*
X239770000Y-86491428D01*
X240100000Y-86681904D02*
X240100000Y-87491428D01*
X238817619Y-87396190D02*
X238817619Y-86920000D01*
X239817619Y-86920000D01*
X240100000Y-87491428D02*
X240100000Y-88348571D01*
X239103333Y-87681904D02*
X239103333Y-88158095D01*
X238817619Y-87586666D02*
X239817619Y-87920000D01*
X238817619Y-88253333D01*
X240100000Y-88348571D02*
X240100000Y-89205714D01*
X239817619Y-88443809D02*
X238817619Y-88777142D01*
X239817619Y-89110476D01*
X240100000Y-89205714D02*
X240100000Y-90110476D01*
X239341428Y-89443809D02*
X239341428Y-89777142D01*
X238817619Y-89920000D02*
X238817619Y-89443809D01*
X239817619Y-89443809D01*
X239817619Y-89920000D01*
X161360000Y-101660000D02*
X161360000Y-102707619D01*
X161077619Y-101898095D02*
X160268095Y-101898095D01*
X160172857Y-101945714D01*
X160125238Y-101993333D01*
X160077619Y-102088571D01*
X160077619Y-102279047D01*
X160125238Y-102374285D01*
X160172857Y-102421904D01*
X160268095Y-102469523D01*
X161077619Y-102469523D01*
X161360000Y-102707619D02*
X161360000Y-103707619D01*
X160077619Y-102945714D02*
X161077619Y-102945714D01*
X161077619Y-103183809D01*
X161030000Y-103326666D01*
X160934761Y-103421904D01*
X160839523Y-103469523D01*
X160649047Y-103517142D01*
X160506190Y-103517142D01*
X160315714Y-103469523D01*
X160220476Y-103421904D01*
X160125238Y-103326666D01*
X160077619Y-103183809D01*
X160077619Y-102945714D01*
X161360000Y-103707619D02*
X161360000Y-104660000D01*
X160125238Y-103898095D02*
X160077619Y-104040952D01*
X160077619Y-104279047D01*
X160125238Y-104374285D01*
X160172857Y-104421904D01*
X160268095Y-104469523D01*
X160363333Y-104469523D01*
X160458571Y-104421904D01*
X160506190Y-104374285D01*
X160553809Y-104279047D01*
X160601428Y-104088571D01*
X160649047Y-103993333D01*
X160696666Y-103945714D01*
X160791904Y-103898095D01*
X160887142Y-103898095D01*
X160982380Y-103945714D01*
X161030000Y-103993333D01*
X161077619Y-104088571D01*
X161077619Y-104326666D01*
X161030000Y-104469523D01*
X219450000Y-87158095D02*
X219497619Y-87062857D01*
X219497619Y-86920000D01*
X219450000Y-86777142D01*
X219354761Y-86681904D01*
X219259523Y-86634285D01*
X219069047Y-86586666D01*
X218926190Y-86586666D01*
X218735714Y-86634285D01*
X218640476Y-86681904D01*
X218545238Y-86777142D01*
X218497619Y-86920000D01*
X218497619Y-87015238D01*
X218545238Y-87158095D01*
X218592857Y-87205714D01*
X218926190Y-87205714D01*
X218926190Y-87015238D01*
X218497619Y-87634285D02*
X219497619Y-87634285D01*
X218497619Y-88205714D01*
X219497619Y-88205714D01*
X218497619Y-88681904D02*
X219497619Y-88681904D01*
X219497619Y-88920000D01*
X219450000Y-89062857D01*
X219354761Y-89158095D01*
X219259523Y-89205714D01*
X219069047Y-89253333D01*
X218926190Y-89253333D01*
X218735714Y-89205714D01*
X218640476Y-89158095D01*
X218545238Y-89062857D01*
X218497619Y-88920000D01*
X218497619Y-88681904D01*
X244278571Y-86634285D02*
X244278571Y-87396190D01*
X243897619Y-87015238D02*
X244659523Y-87015238D01*
X244897619Y-88348571D02*
X244897619Y-87872380D01*
X244421428Y-87824761D01*
X244469047Y-87872380D01*
X244516666Y-87967619D01*
X244516666Y-88205714D01*
X244469047Y-88300952D01*
X244421428Y-88348571D01*
X244326190Y-88396190D01*
X244088095Y-88396190D01*
X243992857Y-88348571D01*
X243945238Y-88300952D01*
X243897619Y-88205714D01*
X243897619Y-87967619D01*
X243945238Y-87872380D01*
X243992857Y-87824761D01*
X244897619Y-88681904D02*
X243897619Y-89015238D01*
X244897619Y-89348571D01*
X127057626Y-102239325D02*
X127057626Y-102429801D01*
X127105245Y-102525039D01*
X127152864Y-102572658D01*
X127295721Y-102667896D01*
X127486197Y-102715515D01*
X127867149Y-102715515D01*
X127962387Y-102667896D01*
X128010007Y-102620277D01*
X128057626Y-102525039D01*
X128057626Y-102334563D01*
X128010007Y-102239325D01*
X127962387Y-102191706D01*
X127867149Y-102144087D01*
X127629054Y-102144087D01*
X127533816Y-102191706D01*
X127486197Y-102239325D01*
X127438578Y-102334563D01*
X127438578Y-102525039D01*
X127486197Y-102620277D01*
X127533816Y-102667896D01*
X127629054Y-102715515D01*
X127629054Y-103286944D02*
X127676673Y-103191706D01*
X127724292Y-103144087D01*
X127819530Y-103096468D01*
X127867149Y-103096468D01*
X127962387Y-103144087D01*
X128010007Y-103191706D01*
X128057626Y-103286944D01*
X128057626Y-103477420D01*
X128010007Y-103572658D01*
X127962387Y-103620277D01*
X127867149Y-103667896D01*
X127819530Y-103667896D01*
X127724292Y-103620277D01*
X127676673Y-103572658D01*
X127629054Y-103477420D01*
X127629054Y-103286944D01*
X127581435Y-103191706D01*
X127533816Y-103144087D01*
X127438578Y-103096468D01*
X127248102Y-103096468D01*
X127152864Y-103144087D01*
X127105245Y-103191706D01*
X127057626Y-103286944D01*
X127057626Y-103477420D01*
X127105245Y-103572658D01*
X127152864Y-103620277D01*
X127248102Y-103667896D01*
X127438578Y-103667896D01*
X127533816Y-103620277D01*
X127581435Y-103572658D01*
X127629054Y-103477420D01*
X213703333Y-87205714D02*
X213703333Y-87681904D01*
X213417619Y-87110476D02*
X214417619Y-87443809D01*
X213417619Y-87777142D01*
X213417619Y-88634285D02*
X213417619Y-88062857D01*
X213417619Y-88348571D02*
X214417619Y-88348571D01*
X214274761Y-88253333D01*
X214179523Y-88158095D01*
X214131904Y-88062857D01*
X130880000Y-86420000D02*
X130880000Y-87420000D01*
X130550000Y-87181904D02*
X130597619Y-87086666D01*
X130597619Y-86943809D01*
X130550000Y-86800952D01*
X130454761Y-86705714D01*
X130359523Y-86658095D01*
X130169047Y-86610476D01*
X130026190Y-86610476D01*
X129835714Y-86658095D01*
X129740476Y-86705714D01*
X129645238Y-86800952D01*
X129597619Y-86943809D01*
X129597619Y-87039047D01*
X129645238Y-87181904D01*
X129692857Y-87229523D01*
X130026190Y-87229523D01*
X130026190Y-87039047D01*
X130880000Y-87420000D02*
X130880000Y-88420000D01*
X130121428Y-87991428D02*
X130073809Y-88134285D01*
X130026190Y-88181904D01*
X129930952Y-88229523D01*
X129788095Y-88229523D01*
X129692857Y-88181904D01*
X129645238Y-88134285D01*
X129597619Y-88039047D01*
X129597619Y-87658095D01*
X130597619Y-87658095D01*
X130597619Y-87991428D01*
X130550000Y-88086666D01*
X130502380Y-88134285D01*
X130407142Y-88181904D01*
X130311904Y-88181904D01*
X130216666Y-88134285D01*
X130169047Y-88086666D01*
X130121428Y-87991428D01*
X130121428Y-87658095D01*
X130880000Y-88420000D02*
X130880000Y-89420000D01*
X130550000Y-89181904D02*
X130597619Y-89086666D01*
X130597619Y-88943809D01*
X130550000Y-88800952D01*
X130454761Y-88705714D01*
X130359523Y-88658095D01*
X130169047Y-88610476D01*
X130026190Y-88610476D01*
X129835714Y-88658095D01*
X129740476Y-88705714D01*
X129645238Y-88800952D01*
X129597619Y-88943809D01*
X129597619Y-89039047D01*
X129645238Y-89181904D01*
X129692857Y-89229523D01*
X130026190Y-89229523D01*
X130026190Y-89039047D01*
X221323333Y-87205714D02*
X221323333Y-87681904D01*
X221037619Y-87110476D02*
X222037619Y-87443809D01*
X221037619Y-87777142D01*
X222037619Y-88539047D02*
X222037619Y-88348571D01*
X221990000Y-88253333D01*
X221942380Y-88205714D01*
X221799523Y-88110476D01*
X221609047Y-88062857D01*
X221228095Y-88062857D01*
X221132857Y-88110476D01*
X221085238Y-88158095D01*
X221037619Y-88253333D01*
X221037619Y-88443809D01*
X221085238Y-88539047D01*
X221132857Y-88586666D01*
X221228095Y-88634285D01*
X221466190Y-88634285D01*
X221561428Y-88586666D01*
X221609047Y-88539047D01*
X221656666Y-88443809D01*
X221656666Y-88253333D01*
X221609047Y-88158095D01*
X221561428Y-88110476D01*
X221466190Y-88062857D01*
X174060000Y-100731428D02*
X174060000Y-101731428D01*
X173301428Y-101302857D02*
X173253809Y-101445714D01*
X173206190Y-101493333D01*
X173110952Y-101540952D01*
X172968095Y-101540952D01*
X172872857Y-101493333D01*
X172825238Y-101445714D01*
X172777619Y-101350476D01*
X172777619Y-100969523D01*
X173777619Y-100969523D01*
X173777619Y-101302857D01*
X173730000Y-101398095D01*
X173682380Y-101445714D01*
X173587142Y-101493333D01*
X173491904Y-101493333D01*
X173396666Y-101445714D01*
X173349047Y-101398095D01*
X173301428Y-101302857D01*
X173301428Y-100969523D01*
X174060000Y-101731428D02*
X174060000Y-102731428D01*
X173730000Y-102493333D02*
X173777619Y-102398095D01*
X173777619Y-102255238D01*
X173730000Y-102112380D01*
X173634761Y-102017142D01*
X173539523Y-101969523D01*
X173349047Y-101921904D01*
X173206190Y-101921904D01*
X173015714Y-101969523D01*
X172920476Y-102017142D01*
X172825238Y-102112380D01*
X172777619Y-102255238D01*
X172777619Y-102350476D01*
X172825238Y-102493333D01*
X172872857Y-102540952D01*
X173206190Y-102540952D01*
X173206190Y-102350476D01*
X174060000Y-102731428D02*
X174060000Y-103588571D01*
X173063333Y-102921904D02*
X173063333Y-103398095D01*
X172777619Y-102826666D02*
X173777619Y-103160000D01*
X172777619Y-103493333D01*
X174060000Y-103588571D02*
X174060000Y-104588571D01*
X172872857Y-104398095D02*
X172825238Y-104350476D01*
X172777619Y-104207619D01*
X172777619Y-104112380D01*
X172825238Y-103969523D01*
X172920476Y-103874285D01*
X173015714Y-103826666D01*
X173206190Y-103779047D01*
X173349047Y-103779047D01*
X173539523Y-103826666D01*
X173634761Y-103874285D01*
X173730000Y-103969523D01*
X173777619Y-104112380D01*
X173777619Y-104207619D01*
X173730000Y-104350476D01*
X173682380Y-104398095D01*
X174060000Y-104588571D02*
X174060000Y-105588571D01*
X172777619Y-104826666D02*
X173777619Y-104826666D01*
X172777619Y-105398095D02*
X173349047Y-104969523D01*
X173777619Y-105398095D02*
X173206190Y-104826666D01*
X201003333Y-86729523D02*
X201003333Y-87205714D01*
X200717619Y-86634285D02*
X201717619Y-86967619D01*
X200717619Y-87300952D01*
X200717619Y-88158095D02*
X200717619Y-87586666D01*
X200717619Y-87872380D02*
X201717619Y-87872380D01*
X201574761Y-87777142D01*
X201479523Y-87681904D01*
X201431904Y-87586666D01*
X201717619Y-88491428D02*
X201717619Y-89110476D01*
X201336666Y-88777142D01*
X201336666Y-88920000D01*
X201289047Y-89015238D01*
X201241428Y-89062857D01*
X201146190Y-89110476D01*
X200908095Y-89110476D01*
X200812857Y-89062857D01*
X200765238Y-89015238D01*
X200717619Y-88920000D01*
X200717619Y-88634285D01*
X200765238Y-88539047D01*
X200812857Y-88491428D01*
X213703333Y-102445714D02*
X213703333Y-102921904D01*
X213417619Y-102350476D02*
X214417619Y-102683809D01*
X213417619Y-103017142D01*
X213989047Y-103493333D02*
X214036666Y-103398095D01*
X214084285Y-103350476D01*
X214179523Y-103302857D01*
X214227142Y-103302857D01*
X214322380Y-103350476D01*
X214370000Y-103398095D01*
X214417619Y-103493333D01*
X214417619Y-103683809D01*
X214370000Y-103779047D01*
X214322380Y-103826666D01*
X214227142Y-103874285D01*
X214179523Y-103874285D01*
X214084285Y-103826666D01*
X214036666Y-103779047D01*
X213989047Y-103683809D01*
X213989047Y-103493333D01*
X213941428Y-103398095D01*
X213893809Y-103350476D01*
X213798571Y-103302857D01*
X213608095Y-103302857D01*
X213512857Y-103350476D01*
X213465238Y-103398095D01*
X213417619Y-103493333D01*
X213417619Y-103683809D01*
X213465238Y-103779047D01*
X213512857Y-103826666D01*
X213608095Y-103874285D01*
X213798571Y-103874285D01*
X213893809Y-103826666D01*
X213941428Y-103779047D01*
X213989047Y-103683809D01*
X202129878Y-101027763D02*
X202129878Y-101932525D01*
X201371306Y-101265858D02*
X201371306Y-101599192D01*
X200847497Y-101742049D02*
X200847497Y-101265858D01*
X201847497Y-101265858D01*
X201847497Y-101742049D01*
X202129878Y-101932525D02*
X202129878Y-102408715D01*
X200847497Y-102170620D02*
X201847497Y-102170620D01*
X202129878Y-102408715D02*
X202129878Y-103456334D01*
X200847497Y-102646811D02*
X201847497Y-102646811D01*
X200847497Y-103218239D01*
X201847497Y-103218239D01*
X202129878Y-103456334D02*
X202129878Y-104218239D01*
X201847497Y-103551572D02*
X201847497Y-104123001D01*
X200847497Y-103837287D02*
X201847497Y-103837287D01*
X202129878Y-104218239D02*
X202129878Y-105170620D01*
X201847497Y-104361096D02*
X201847497Y-105027763D01*
X200847497Y-104599192D01*
X134772857Y-101517142D02*
X134725238Y-101469523D01*
X134677619Y-101326666D01*
X134677619Y-101231428D01*
X134725238Y-101088571D01*
X134820476Y-100993333D01*
X134915714Y-100945714D01*
X135106190Y-100898095D01*
X135249047Y-100898095D01*
X135439523Y-100945714D01*
X135534761Y-100993333D01*
X135630000Y-101088571D01*
X135677619Y-101231428D01*
X135677619Y-101326666D01*
X135630000Y-101469523D01*
X135582380Y-101517142D01*
X134677619Y-102421904D02*
X134677619Y-101945714D01*
X135677619Y-101945714D01*
X134677619Y-102755238D02*
X135677619Y-102755238D01*
X134677619Y-103326666D02*
X135249047Y-102898095D01*
X135677619Y-103326666D02*
X135106190Y-102755238D01*
X135677619Y-103660000D02*
X135677619Y-104326666D01*
X134677619Y-103898095D01*
X134677619Y-104707619D02*
X135677619Y-104707619D01*
X134963333Y-105040952D01*
X135677619Y-105374285D01*
X134677619Y-105374285D01*
X167697619Y-86705714D02*
X168697619Y-86705714D01*
X168697619Y-86943809D01*
X168650000Y-87086666D01*
X168554761Y-87181904D01*
X168459523Y-87229523D01*
X168269047Y-87277142D01*
X168126190Y-87277142D01*
X167935714Y-87229523D01*
X167840476Y-87181904D01*
X167745238Y-87086666D01*
X167697619Y-86943809D01*
X167697619Y-86705714D01*
X167697619Y-88229523D02*
X167697619Y-87658095D01*
X167697619Y-87943809D02*
X168697619Y-87943809D01*
X168554761Y-87848571D01*
X168459523Y-87753333D01*
X168411904Y-87658095D01*
X168364285Y-89086666D02*
X167697619Y-89086666D01*
X168745238Y-88848571D02*
X168030952Y-88610476D01*
X168030952Y-89229523D01*
X154997619Y-101945714D02*
X155997619Y-101945714D01*
X155997619Y-102183809D01*
X155950000Y-102326666D01*
X155854761Y-102421904D01*
X155759523Y-102469523D01*
X155569047Y-102517142D01*
X155426190Y-102517142D01*
X155235714Y-102469523D01*
X155140476Y-102421904D01*
X155045238Y-102326666D01*
X154997619Y-102183809D01*
X154997619Y-101945714D01*
X154997619Y-103469523D02*
X154997619Y-102898095D01*
X154997619Y-103183809D02*
X155997619Y-103183809D01*
X155854761Y-103088571D01*
X155759523Y-102993333D01*
X155711904Y-102898095D01*
X155997619Y-104088571D02*
X155997619Y-104183809D01*
X155950000Y-104279047D01*
X155902380Y-104326666D01*
X155807142Y-104374285D01*
X155616666Y-104421904D01*
X155378571Y-104421904D01*
X155188095Y-104374285D01*
X155092857Y-104326666D01*
X155045238Y-104279047D01*
X154997619Y-104183809D01*
X154997619Y-104088571D01*
X155045238Y-103993333D01*
X155092857Y-103945714D01*
X155188095Y-103898095D01*
X155378571Y-103850476D01*
X155616666Y-103850476D01*
X155807142Y-103898095D01*
X155902380Y-103945714D01*
X155950000Y-103993333D01*
X155997619Y-104088571D01*
X241738571Y-101874285D02*
X241738571Y-102636190D01*
X242357619Y-103588571D02*
X242357619Y-103112380D01*
X241881428Y-103064761D01*
X241929047Y-103112380D01*
X241976666Y-103207619D01*
X241976666Y-103445714D01*
X241929047Y-103540952D01*
X241881428Y-103588571D01*
X241786190Y-103636190D01*
X241548095Y-103636190D01*
X241452857Y-103588571D01*
X241405238Y-103540952D01*
X241357619Y-103445714D01*
X241357619Y-103207619D01*
X241405238Y-103112380D01*
X241452857Y-103064761D01*
X242357619Y-103921904D02*
X241357619Y-104255238D01*
X242357619Y-104588571D01*
X242640000Y-86300952D02*
X242640000Y-87348571D01*
X242357619Y-86729523D02*
X242357619Y-86920000D01*
X242310000Y-87015238D01*
X242214761Y-87110476D01*
X242024285Y-87158095D01*
X241690952Y-87158095D01*
X241500476Y-87110476D01*
X241405238Y-87015238D01*
X241357619Y-86920000D01*
X241357619Y-86729523D01*
X241405238Y-86634285D01*
X241500476Y-86539047D01*
X241690952Y-86491428D01*
X242024285Y-86491428D01*
X242214761Y-86539047D01*
X242310000Y-86634285D01*
X242357619Y-86729523D01*
X242640000Y-87348571D02*
X242640000Y-88491428D01*
X242357619Y-87491428D02*
X241357619Y-87729523D01*
X242071904Y-87920000D01*
X241357619Y-88110476D01*
X242357619Y-88348571D01*
X242640000Y-88491428D02*
X242640000Y-89539047D01*
X241357619Y-88729523D02*
X242357619Y-88729523D01*
X241357619Y-89300952D01*
X242357619Y-89300952D01*
X173593504Y-87151041D02*
X173641123Y-87055803D01*
X173641123Y-86912946D01*
X173593504Y-86770088D01*
X173498265Y-86674850D01*
X173403027Y-86627231D01*
X173212551Y-86579612D01*
X173069694Y-86579612D01*
X172879218Y-86627231D01*
X172783980Y-86674850D01*
X172688742Y-86770088D01*
X172641123Y-86912946D01*
X172641123Y-87008184D01*
X172688742Y-87151041D01*
X172736361Y-87198660D01*
X173069694Y-87198660D01*
X173069694Y-87008184D01*
X172641123Y-87627231D02*
X173641123Y-87627231D01*
X172641123Y-88198660D01*
X173641123Y-88198660D01*
X172641123Y-88674850D02*
X173641123Y-88674850D01*
X173641123Y-88912946D01*
X173593504Y-89055803D01*
X173498265Y-89151041D01*
X173403027Y-89198660D01*
X173212551Y-89246279D01*
X173069694Y-89246279D01*
X172879218Y-89198660D01*
X172783980Y-89151041D01*
X172688742Y-89055803D01*
X172641123Y-88912946D01*
X172641123Y-88674850D01*
X229657619Y-101398095D02*
X228657619Y-102064761D01*
X229657619Y-102064761D02*
X228657619Y-101398095D01*
X228657619Y-103017142D02*
X229133809Y-102683809D01*
X228657619Y-102445714D02*
X229657619Y-102445714D01*
X229657619Y-102826666D01*
X229610000Y-102921904D01*
X229562380Y-102969523D01*
X229467142Y-103017142D01*
X229324285Y-103017142D01*
X229229047Y-102969523D01*
X229181428Y-102921904D01*
X229133809Y-102826666D01*
X229133809Y-102445714D01*
X228657619Y-103445714D02*
X229657619Y-103445714D01*
X229657619Y-103683809D01*
X229610000Y-103826666D01*
X229514761Y-103921904D01*
X229419523Y-103969523D01*
X229229047Y-104017142D01*
X229086190Y-104017142D01*
X228895714Y-103969523D01*
X228800476Y-103921904D01*
X228705238Y-103826666D01*
X228657619Y-103683809D01*
X228657619Y-103445714D01*
X229133809Y-104636190D02*
X228657619Y-104636190D01*
X229657619Y-104302857D02*
X229133809Y-104636190D01*
X229657619Y-104969523D01*
X149771090Y-102394312D02*
X150771090Y-102394312D01*
X150771090Y-102632408D01*
X150723471Y-102775265D01*
X150628232Y-102870503D01*
X150532994Y-102918122D01*
X150342518Y-102965741D01*
X150199661Y-102965741D01*
X150009185Y-102918122D01*
X149913947Y-102870503D01*
X149818709Y-102775265D01*
X149771090Y-102632408D01*
X149771090Y-102394312D01*
X150342518Y-103537169D02*
X150390137Y-103441931D01*
X150437756Y-103394312D01*
X150532994Y-103346693D01*
X150580613Y-103346693D01*
X150675851Y-103394312D01*
X150723471Y-103441931D01*
X150771090Y-103537169D01*
X150771090Y-103727646D01*
X150723471Y-103822884D01*
X150675851Y-103870503D01*
X150580613Y-103918122D01*
X150532994Y-103918122D01*
X150437756Y-103870503D01*
X150390137Y-103822884D01*
X150342518Y-103727646D01*
X150342518Y-103537169D01*
X150294899Y-103441931D01*
X150247280Y-103394312D01*
X150152042Y-103346693D01*
X149961566Y-103346693D01*
X149866328Y-103394312D01*
X149818709Y-103441931D01*
X149771090Y-103537169D01*
X149771090Y-103727646D01*
X149818709Y-103822884D01*
X149866328Y-103870503D01*
X149961566Y-103918122D01*
X150152042Y-103918122D01*
X150247280Y-103870503D01*
X150294899Y-103822884D01*
X150342518Y-103727646D01*
X231292857Y-86800952D02*
X231245238Y-86753333D01*
X231197619Y-86610476D01*
X231197619Y-86515238D01*
X231245238Y-86372380D01*
X231340476Y-86277142D01*
X231435714Y-86229523D01*
X231626190Y-86181904D01*
X231769047Y-86181904D01*
X231959523Y-86229523D01*
X232054761Y-86277142D01*
X232150000Y-86372380D01*
X232197619Y-86515238D01*
X232197619Y-86610476D01*
X232150000Y-86753333D01*
X232102380Y-86800952D01*
X231197619Y-87229523D02*
X232197619Y-87229523D01*
X232197619Y-87467619D01*
X232150000Y-87610476D01*
X232054761Y-87705714D01*
X231959523Y-87753333D01*
X231769047Y-87800952D01*
X231626190Y-87800952D01*
X231435714Y-87753333D01*
X231340476Y-87705714D01*
X231245238Y-87610476D01*
X231197619Y-87467619D01*
X231197619Y-87229523D01*
X231483333Y-88181904D02*
X231483333Y-88658095D01*
X231197619Y-88086666D02*
X232197619Y-88420000D01*
X231197619Y-88753333D01*
X231292857Y-89658095D02*
X231245238Y-89610476D01*
X231197619Y-89467619D01*
X231197619Y-89372380D01*
X231245238Y-89229523D01*
X231340476Y-89134285D01*
X231435714Y-89086666D01*
X231626190Y-89039047D01*
X231769047Y-89039047D01*
X231959523Y-89086666D01*
X232054761Y-89134285D01*
X232150000Y-89229523D01*
X232197619Y-89372380D01*
X232197619Y-89467619D01*
X232150000Y-89610476D01*
X232102380Y-89658095D01*
X180683333Y-101969523D02*
X180683333Y-102445714D01*
X180397619Y-101874285D02*
X181397619Y-102207619D01*
X180397619Y-102540952D01*
X181302380Y-102826666D02*
X181350000Y-102874285D01*
X181397619Y-102969523D01*
X181397619Y-103207619D01*
X181350000Y-103302857D01*
X181302380Y-103350476D01*
X181207142Y-103398095D01*
X181111904Y-103398095D01*
X180969047Y-103350476D01*
X180397619Y-102779047D01*
X180397619Y-103398095D01*
X181397619Y-104017142D02*
X181397619Y-104112380D01*
X181350000Y-104207619D01*
X181302380Y-104255238D01*
X181207142Y-104302857D01*
X181016666Y-104350476D01*
X180778571Y-104350476D01*
X180588095Y-104302857D01*
X180492857Y-104255238D01*
X180445238Y-104207619D01*
X180397619Y-104112380D01*
X180397619Y-104017142D01*
X180445238Y-103921904D01*
X180492857Y-103874285D01*
X180588095Y-103826666D01*
X180778571Y-103779047D01*
X181016666Y-103779047D01*
X181207142Y-103826666D01*
X181302380Y-103874285D01*
X181350000Y-103921904D01*
X181397619Y-104017142D01*
X158820000Y-102255238D02*
X158820000Y-103112380D01*
X157823333Y-102445714D02*
X157823333Y-102921904D01*
X157537619Y-102350476D02*
X158537619Y-102683809D01*
X157537619Y-103017142D01*
X158820000Y-103112380D02*
X158820000Y-104064761D01*
X157585238Y-103302857D02*
X157537619Y-103445714D01*
X157537619Y-103683809D01*
X157585238Y-103779047D01*
X157632857Y-103826666D01*
X157728095Y-103874285D01*
X157823333Y-103874285D01*
X157918571Y-103826666D01*
X157966190Y-103779047D01*
X158013809Y-103683809D01*
X158061428Y-103493333D01*
X158109047Y-103398095D01*
X158156666Y-103350476D01*
X158251904Y-103302857D01*
X158347142Y-103302857D01*
X158442380Y-103350476D01*
X158490000Y-103398095D01*
X158537619Y-103493333D01*
X158537619Y-103731428D01*
X158490000Y-103874285D01*
X140710000Y-87158095D02*
X140757619Y-87062857D01*
X140757619Y-86920000D01*
X140710000Y-86777142D01*
X140614761Y-86681904D01*
X140519523Y-86634285D01*
X140329047Y-86586666D01*
X140186190Y-86586666D01*
X139995714Y-86634285D01*
X139900476Y-86681904D01*
X139805238Y-86777142D01*
X139757619Y-86920000D01*
X139757619Y-87015238D01*
X139805238Y-87158095D01*
X139852857Y-87205714D01*
X140186190Y-87205714D01*
X140186190Y-87015238D01*
X139757619Y-87634285D02*
X140757619Y-87634285D01*
X139757619Y-88205714D01*
X140757619Y-88205714D01*
X139757619Y-88681904D02*
X140757619Y-88681904D01*
X140757619Y-88920000D01*
X140710000Y-89062857D01*
X140614761Y-89158095D01*
X140519523Y-89205714D01*
X140329047Y-89253333D01*
X140186190Y-89253333D01*
X139995714Y-89205714D01*
X139900476Y-89158095D01*
X139805238Y-89062857D01*
X139757619Y-88920000D01*
X139757619Y-88681904D01*
X188541428Y-102945714D02*
X188541428Y-103279047D01*
X188017619Y-103421904D02*
X188017619Y-102945714D01*
X189017619Y-102945714D01*
X189017619Y-103421904D01*
X138170000Y-102398095D02*
X138217619Y-102302857D01*
X138217619Y-102160000D01*
X138170000Y-102017142D01*
X138074761Y-101921904D01*
X137979523Y-101874285D01*
X137789047Y-101826666D01*
X137646190Y-101826666D01*
X137455714Y-101874285D01*
X137360476Y-101921904D01*
X137265238Y-102017142D01*
X137217619Y-102160000D01*
X137217619Y-102255238D01*
X137265238Y-102398095D01*
X137312857Y-102445714D01*
X137646190Y-102445714D01*
X137646190Y-102255238D01*
X137217619Y-102874285D02*
X138217619Y-102874285D01*
X137217619Y-103445714D01*
X138217619Y-103445714D01*
X137217619Y-103921904D02*
X138217619Y-103921904D01*
X138217619Y-104160000D01*
X138170000Y-104302857D01*
X138074761Y-104398095D01*
X137979523Y-104445714D01*
X137789047Y-104493333D01*
X137646190Y-104493333D01*
X137455714Y-104445714D01*
X137360476Y-104398095D01*
X137265238Y-104302857D01*
X137217619Y-104160000D01*
X137217619Y-103921904D01*
X216243333Y-102445714D02*
X216243333Y-102921904D01*
X215957619Y-102350476D02*
X216957619Y-102683809D01*
X215957619Y-103017142D01*
X216957619Y-103255238D02*
X216957619Y-103921904D01*
X215957619Y-103493333D01*
X171520000Y-102160000D02*
X171520000Y-103160000D01*
X170761428Y-102731428D02*
X170713809Y-102874285D01*
X170666190Y-102921904D01*
X170570952Y-102969523D01*
X170428095Y-102969523D01*
X170332857Y-102921904D01*
X170285238Y-102874285D01*
X170237619Y-102779047D01*
X170237619Y-102398095D01*
X171237619Y-102398095D01*
X171237619Y-102731428D01*
X171190000Y-102826666D01*
X171142380Y-102874285D01*
X171047142Y-102921904D01*
X170951904Y-102921904D01*
X170856666Y-102874285D01*
X170809047Y-102826666D01*
X170761428Y-102731428D01*
X170761428Y-102398095D01*
X171520000Y-103160000D02*
X171520000Y-104160000D01*
X171190000Y-103921904D02*
X171237619Y-103826666D01*
X171237619Y-103683809D01*
X171190000Y-103540952D01*
X171094761Y-103445714D01*
X170999523Y-103398095D01*
X170809047Y-103350476D01*
X170666190Y-103350476D01*
X170475714Y-103398095D01*
X170380476Y-103445714D01*
X170285238Y-103540952D01*
X170237619Y-103683809D01*
X170237619Y-103779047D01*
X170285238Y-103921904D01*
X170332857Y-103969523D01*
X170666190Y-103969523D01*
X170666190Y-103779047D01*
X206321428Y-87086666D02*
X206321428Y-86753333D01*
X205797619Y-86753333D02*
X206797619Y-86753333D01*
X206797619Y-87229523D01*
X205892857Y-88181904D02*
X205845238Y-88134285D01*
X205797619Y-87991428D01*
X205797619Y-87896190D01*
X205845238Y-87753333D01*
X205940476Y-87658095D01*
X206035714Y-87610476D01*
X206226190Y-87562857D01*
X206369047Y-87562857D01*
X206559523Y-87610476D01*
X206654761Y-87658095D01*
X206750000Y-87753333D01*
X206797619Y-87896190D01*
X206797619Y-87991428D01*
X206750000Y-88134285D01*
X206702380Y-88181904D01*
X206702380Y-88562857D02*
X206750000Y-88610476D01*
X206797619Y-88705714D01*
X206797619Y-88943809D01*
X206750000Y-89039047D01*
X206702380Y-89086666D01*
X206607142Y-89134285D01*
X206511904Y-89134285D01*
X206369047Y-89086666D01*
X205797619Y-88515238D01*
X205797619Y-89134285D01*
X170237619Y-86705714D02*
X171237619Y-86705714D01*
X171237619Y-86943809D01*
X171190000Y-87086666D01*
X171094761Y-87181904D01*
X170999523Y-87229523D01*
X170809047Y-87277142D01*
X170666190Y-87277142D01*
X170475714Y-87229523D01*
X170380476Y-87181904D01*
X170285238Y-87086666D01*
X170237619Y-86943809D01*
X170237619Y-86705714D01*
X170237619Y-88229523D02*
X170237619Y-87658095D01*
X170237619Y-87943809D02*
X171237619Y-87943809D01*
X171094761Y-87848571D01*
X170999523Y-87753333D01*
X170951904Y-87658095D01*
X171237619Y-89134285D02*
X171237619Y-88658095D01*
X170761428Y-88610476D01*
X170809047Y-88658095D01*
X170856666Y-88753333D01*
X170856666Y-88991428D01*
X170809047Y-89086666D01*
X170761428Y-89134285D01*
X170666190Y-89181904D01*
X170428095Y-89181904D01*
X170332857Y-89134285D01*
X170285238Y-89086666D01*
X170237619Y-88991428D01*
X170237619Y-88753333D01*
X170285238Y-88658095D01*
X170332857Y-88610476D01*
X132137619Y-86681904D02*
X133137619Y-86681904D01*
X133137619Y-86920000D01*
X133090000Y-87062857D01*
X132994761Y-87158095D01*
X132899523Y-87205714D01*
X132709047Y-87253333D01*
X132566190Y-87253333D01*
X132375714Y-87205714D01*
X132280476Y-87158095D01*
X132185238Y-87062857D01*
X132137619Y-86920000D01*
X132137619Y-86681904D01*
X133137619Y-87872380D02*
X133137619Y-88062857D01*
X133090000Y-88158095D01*
X132994761Y-88253333D01*
X132804285Y-88300952D01*
X132470952Y-88300952D01*
X132280476Y-88253333D01*
X132185238Y-88158095D01*
X132137619Y-88062857D01*
X132137619Y-87872380D01*
X132185238Y-87777142D01*
X132280476Y-87681904D01*
X132470952Y-87634285D01*
X132804285Y-87634285D01*
X132994761Y-87681904D01*
X133090000Y-87777142D01*
X133137619Y-87872380D01*
X132661428Y-88729523D02*
X132661428Y-89062857D01*
X132137619Y-89205714D02*
X132137619Y-88729523D01*
X133137619Y-88729523D01*
X133137619Y-89205714D01*
X226498571Y-101398095D02*
X226498571Y-102160000D01*
X226117619Y-103160000D02*
X226117619Y-102588571D01*
X226117619Y-102874285D02*
X227117619Y-102874285D01*
X226974761Y-102779047D01*
X226879523Y-102683809D01*
X226831904Y-102588571D01*
X227022380Y-103540952D02*
X227070000Y-103588571D01*
X227117619Y-103683809D01*
X227117619Y-103921904D01*
X227070000Y-104017142D01*
X227022380Y-104064761D01*
X226927142Y-104112380D01*
X226831904Y-104112380D01*
X226689047Y-104064761D01*
X226117619Y-103493333D01*
X226117619Y-104112380D01*
X227117619Y-104398095D02*
X226117619Y-104731428D01*
X227117619Y-105064761D01*
X247390000Y-87158095D02*
X247437619Y-87062857D01*
X247437619Y-86920000D01*
X247390000Y-86777142D01*
X247294761Y-86681904D01*
X247199523Y-86634285D01*
X247009047Y-86586666D01*
X246866190Y-86586666D01*
X246675714Y-86634285D01*
X246580476Y-86681904D01*
X246485238Y-86777142D01*
X246437619Y-86920000D01*
X246437619Y-87015238D01*
X246485238Y-87158095D01*
X246532857Y-87205714D01*
X246866190Y-87205714D01*
X246866190Y-87015238D01*
X246437619Y-87634285D02*
X247437619Y-87634285D01*
X246437619Y-88205714D01*
X247437619Y-88205714D01*
X246437619Y-88681904D02*
X247437619Y-88681904D01*
X247437619Y-88920000D01*
X247390000Y-89062857D01*
X247294761Y-89158095D01*
X247199523Y-89205714D01*
X247009047Y-89253333D01*
X246866190Y-89253333D01*
X246675714Y-89205714D01*
X246580476Y-89158095D01*
X246485238Y-89062857D01*
X246437619Y-88920000D01*
X246437619Y-88681904D01*
X227400000Y-86300952D02*
X227400000Y-86777142D01*
X226117619Y-86539047D02*
X227117619Y-86539047D01*
X227400000Y-86777142D02*
X227400000Y-87824761D01*
X226117619Y-87015238D02*
X227117619Y-87015238D01*
X226117619Y-87586666D01*
X227117619Y-87586666D01*
X227400000Y-87824761D02*
X227400000Y-88586666D01*
X227117619Y-87920000D02*
X227117619Y-88491428D01*
X226117619Y-88205714D02*
X227117619Y-88205714D01*
X227400000Y-88586666D02*
X227400000Y-89539047D01*
X227022380Y-88777142D02*
X227070000Y-88824761D01*
X227117619Y-88920000D01*
X227117619Y-89158095D01*
X227070000Y-89253333D01*
X227022380Y-89300952D01*
X226927142Y-89348571D01*
X226831904Y-89348571D01*
X226689047Y-89300952D01*
X226117619Y-88729523D01*
X226117619Y-89348571D01*
X184220000Y-86562857D02*
X184220000Y-87562857D01*
X182937619Y-87372380D02*
X183413809Y-87039047D01*
X182937619Y-86800952D02*
X183937619Y-86800952D01*
X183937619Y-87181904D01*
X183890000Y-87277142D01*
X183842380Y-87324761D01*
X183747142Y-87372380D01*
X183604285Y-87372380D01*
X183509047Y-87324761D01*
X183461428Y-87277142D01*
X183413809Y-87181904D01*
X183413809Y-86800952D01*
X184220000Y-87562857D02*
X184220000Y-88515238D01*
X182985238Y-87753333D02*
X182937619Y-87896190D01*
X182937619Y-88134285D01*
X182985238Y-88229523D01*
X183032857Y-88277142D01*
X183128095Y-88324761D01*
X183223333Y-88324761D01*
X183318571Y-88277142D01*
X183366190Y-88229523D01*
X183413809Y-88134285D01*
X183461428Y-87943809D01*
X183509047Y-87848571D01*
X183556666Y-87800952D01*
X183651904Y-87753333D01*
X183747142Y-87753333D01*
X183842380Y-87800952D01*
X183890000Y-87848571D01*
X183937619Y-87943809D01*
X183937619Y-88181904D01*
X183890000Y-88324761D01*
X184220000Y-88515238D02*
X184220000Y-89277142D01*
X183937619Y-88610476D02*
X183937619Y-89181904D01*
X182937619Y-88896190D02*
X183937619Y-88896190D01*
X162617619Y-86705714D02*
X163617619Y-86705714D01*
X163617619Y-86943809D01*
X163570000Y-87086666D01*
X163474761Y-87181904D01*
X163379523Y-87229523D01*
X163189047Y-87277142D01*
X163046190Y-87277142D01*
X162855714Y-87229523D01*
X162760476Y-87181904D01*
X162665238Y-87086666D01*
X162617619Y-86943809D01*
X162617619Y-86705714D01*
X162617619Y-88229523D02*
X162617619Y-87658095D01*
X162617619Y-87943809D02*
X163617619Y-87943809D01*
X163474761Y-87848571D01*
X163379523Y-87753333D01*
X163331904Y-87658095D01*
X163522380Y-88610476D02*
X163570000Y-88658095D01*
X163617619Y-88753333D01*
X163617619Y-88991428D01*
X163570000Y-89086666D01*
X163522380Y-89134285D01*
X163427142Y-89181904D01*
X163331904Y-89181904D01*
X163189047Y-89134285D01*
X162617619Y-88562857D01*
X162617619Y-89181904D01*
X168980000Y-100850476D02*
X168980000Y-101850476D01*
X167697619Y-101088571D02*
X168697619Y-101088571D01*
X168697619Y-101326666D01*
X168650000Y-101469523D01*
X168554761Y-101564761D01*
X168459523Y-101612380D01*
X168269047Y-101660000D01*
X168126190Y-101660000D01*
X167935714Y-101612380D01*
X167840476Y-101564761D01*
X167745238Y-101469523D01*
X167697619Y-101326666D01*
X167697619Y-101088571D01*
X168980000Y-101850476D02*
X168980000Y-102612380D01*
X168697619Y-101945714D02*
X168697619Y-102517142D01*
X167697619Y-102231428D02*
X168697619Y-102231428D01*
X168980000Y-102612380D02*
X168980000Y-103469523D01*
X167983333Y-102802857D02*
X167983333Y-103279047D01*
X167697619Y-102707619D02*
X168697619Y-103040952D01*
X167697619Y-103374285D01*
X168980000Y-103469523D02*
X168980000Y-104469523D01*
X167792857Y-104279047D02*
X167745238Y-104231428D01*
X167697619Y-104088571D01*
X167697619Y-103993333D01*
X167745238Y-103850476D01*
X167840476Y-103755238D01*
X167935714Y-103707619D01*
X168126190Y-103660000D01*
X168269047Y-103660000D01*
X168459523Y-103707619D01*
X168554761Y-103755238D01*
X168650000Y-103850476D01*
X168697619Y-103993333D01*
X168697619Y-104088571D01*
X168650000Y-104231428D01*
X168602380Y-104279047D01*
X168980000Y-104469523D02*
X168980000Y-105469523D01*
X167697619Y-104707619D02*
X168697619Y-104707619D01*
X167697619Y-105279047D02*
X168269047Y-104850476D01*
X168697619Y-105279047D02*
X168126190Y-104707619D01*
X125470000Y-87158095D02*
X125517619Y-87062857D01*
X125517619Y-86920000D01*
X125470000Y-86777142D01*
X125374761Y-86681904D01*
X125279523Y-86634285D01*
X125089047Y-86586666D01*
X124946190Y-86586666D01*
X124755714Y-86634285D01*
X124660476Y-86681904D01*
X124565238Y-86777142D01*
X124517619Y-86920000D01*
X124517619Y-87015238D01*
X124565238Y-87158095D01*
X124612857Y-87205714D01*
X124946190Y-87205714D01*
X124946190Y-87015238D01*
X124517619Y-87634285D02*
X125517619Y-87634285D01*
X124517619Y-88205714D01*
X125517619Y-88205714D01*
X124517619Y-88681904D02*
X125517619Y-88681904D01*
X125517619Y-88920000D01*
X125470000Y-89062857D01*
X125374761Y-89158095D01*
X125279523Y-89205714D01*
X125089047Y-89253333D01*
X124946190Y-89253333D01*
X124755714Y-89205714D01*
X124660476Y-89158095D01*
X124565238Y-89062857D01*
X124517619Y-88920000D01*
X124517619Y-88681904D01*
X175603333Y-86729523D02*
X175603333Y-87205714D01*
X175317619Y-86634285D02*
X176317619Y-86967619D01*
X175317619Y-87300952D01*
X176222380Y-87586666D02*
X176270000Y-87634285D01*
X176317619Y-87729523D01*
X176317619Y-87967619D01*
X176270000Y-88062857D01*
X176222380Y-88110476D01*
X176127142Y-88158095D01*
X176031904Y-88158095D01*
X175889047Y-88110476D01*
X175317619Y-87539047D01*
X175317619Y-88158095D01*
X176317619Y-88491428D02*
X176317619Y-89110476D01*
X175936666Y-88777142D01*
X175936666Y-88920000D01*
X175889047Y-89015238D01*
X175841428Y-89062857D01*
X175746190Y-89110476D01*
X175508095Y-89110476D01*
X175412857Y-89062857D01*
X175365238Y-89015238D01*
X175317619Y-88920000D01*
X175317619Y-88634285D01*
X175365238Y-88539047D01*
X175412857Y-88491428D01*
X134725238Y-86681904D02*
X134677619Y-86824761D01*
X134677619Y-87062857D01*
X134725238Y-87158095D01*
X134772857Y-87205714D01*
X134868095Y-87253333D01*
X134963333Y-87253333D01*
X135058571Y-87205714D01*
X135106190Y-87158095D01*
X135153809Y-87062857D01*
X135201428Y-86872380D01*
X135249047Y-86777142D01*
X135296666Y-86729523D01*
X135391904Y-86681904D01*
X135487142Y-86681904D01*
X135582380Y-86729523D01*
X135630000Y-86777142D01*
X135677619Y-86872380D01*
X135677619Y-87110476D01*
X135630000Y-87253333D01*
X135677619Y-87586666D02*
X135677619Y-88253333D01*
X134677619Y-87586666D01*
X134677619Y-88253333D01*
X135677619Y-88539047D02*
X135677619Y-89158095D01*
X135296666Y-88824761D01*
X135296666Y-88967619D01*
X135249047Y-89062857D01*
X135201428Y-89110476D01*
X135106190Y-89158095D01*
X134868095Y-89158095D01*
X134772857Y-89110476D01*
X134725238Y-89062857D01*
X134677619Y-88967619D01*
X134677619Y-88681904D01*
X134725238Y-88586666D01*
X134772857Y-88539047D01*
X158490000Y-87158095D02*
X158537619Y-87062857D01*
X158537619Y-86920000D01*
X158490000Y-86777142D01*
X158394761Y-86681904D01*
X158299523Y-86634285D01*
X158109047Y-86586666D01*
X157966190Y-86586666D01*
X157775714Y-86634285D01*
X157680476Y-86681904D01*
X157585238Y-86777142D01*
X157537619Y-86920000D01*
X157537619Y-87015238D01*
X157585238Y-87158095D01*
X157632857Y-87205714D01*
X157966190Y-87205714D01*
X157966190Y-87015238D01*
X157537619Y-87634285D02*
X158537619Y-87634285D01*
X157537619Y-88205714D01*
X158537619Y-88205714D01*
X157537619Y-88681904D02*
X158537619Y-88681904D01*
X158537619Y-88920000D01*
X158490000Y-89062857D01*
X158394761Y-89158095D01*
X158299523Y-89205714D01*
X158109047Y-89253333D01*
X157966190Y-89253333D01*
X157775714Y-89205714D01*
X157680476Y-89158095D01*
X157585238Y-89062857D01*
X157537619Y-88920000D01*
X157537619Y-88681904D01*
X229940000Y-86467619D02*
X229940000Y-87515238D01*
X229657619Y-86896190D02*
X229657619Y-87086666D01*
X229610000Y-87181904D01*
X229514761Y-87277142D01*
X229324285Y-87324761D01*
X228990952Y-87324761D01*
X228800476Y-87277142D01*
X228705238Y-87181904D01*
X228657619Y-87086666D01*
X228657619Y-86896190D01*
X228705238Y-86800952D01*
X228800476Y-86705714D01*
X228990952Y-86658095D01*
X229324285Y-86658095D01*
X229514761Y-86705714D01*
X229610000Y-86800952D01*
X229657619Y-86896190D01*
X229940000Y-87515238D02*
X229940000Y-88372380D01*
X229657619Y-87610476D02*
X228657619Y-87943809D01*
X229657619Y-88277142D01*
X229940000Y-88372380D02*
X229940000Y-89372380D01*
X228657619Y-89181904D02*
X229133809Y-88848571D01*
X228657619Y-88610476D02*
X229657619Y-88610476D01*
X229657619Y-88991428D01*
X229610000Y-89086666D01*
X229562380Y-89134285D01*
X229467142Y-89181904D01*
X229324285Y-89181904D01*
X229229047Y-89134285D01*
X229181428Y-89086666D01*
X229133809Y-88991428D01*
X229133809Y-88610476D01*
X125470000Y-102398095D02*
X125517619Y-102302857D01*
X125517619Y-102160000D01*
X125470000Y-102017142D01*
X125374761Y-101921904D01*
X125279523Y-101874285D01*
X125089047Y-101826666D01*
X124946190Y-101826666D01*
X124755714Y-101874285D01*
X124660476Y-101921904D01*
X124565238Y-102017142D01*
X124517619Y-102160000D01*
X124517619Y-102255238D01*
X124565238Y-102398095D01*
X124612857Y-102445714D01*
X124946190Y-102445714D01*
X124946190Y-102255238D01*
X124517619Y-102874285D02*
X125517619Y-102874285D01*
X124517619Y-103445714D01*
X125517619Y-103445714D01*
X124517619Y-103921904D02*
X125517619Y-103921904D01*
X125517619Y-104160000D01*
X125470000Y-104302857D01*
X125374761Y-104398095D01*
X125279523Y-104445714D01*
X125089047Y-104493333D01*
X124946190Y-104493333D01*
X124755714Y-104445714D01*
X124660476Y-104398095D01*
X124565238Y-104302857D01*
X124517619Y-104160000D01*
X124517619Y-103921904D01*
X149917619Y-87181904D02*
X150917619Y-87181904D01*
X150917619Y-87420000D01*
X150870000Y-87562857D01*
X150774761Y-87658095D01*
X150679523Y-87705714D01*
X150489047Y-87753333D01*
X150346190Y-87753333D01*
X150155714Y-87705714D01*
X150060476Y-87658095D01*
X149965238Y-87562857D01*
X149917619Y-87420000D01*
X149917619Y-87181904D01*
X150822380Y-88134285D02*
X150870000Y-88181904D01*
X150917619Y-88277142D01*
X150917619Y-88515238D01*
X150870000Y-88610476D01*
X150822380Y-88658095D01*
X150727142Y-88705714D01*
X150631904Y-88705714D01*
X150489047Y-88658095D01*
X149917619Y-88086666D01*
X149917619Y-88705714D01*
X185763333Y-101969523D02*
X185763333Y-102445714D01*
X185477619Y-101874285D02*
X186477619Y-102207619D01*
X185477619Y-102540952D01*
X185477619Y-103398095D02*
X185477619Y-102826666D01*
X185477619Y-103112380D02*
X186477619Y-103112380D01*
X186334761Y-103017142D01*
X186239523Y-102921904D01*
X186191904Y-102826666D01*
X186049047Y-103969523D02*
X186096666Y-103874285D01*
X186144285Y-103826666D01*
X186239523Y-103779047D01*
X186287142Y-103779047D01*
X186382380Y-103826666D01*
X186430000Y-103874285D01*
X186477619Y-103969523D01*
X186477619Y-104160000D01*
X186430000Y-104255238D01*
X186382380Y-104302857D01*
X186287142Y-104350476D01*
X186239523Y-104350476D01*
X186144285Y-104302857D01*
X186096666Y-104255238D01*
X186049047Y-104160000D01*
X186049047Y-103969523D01*
X186001428Y-103874285D01*
X185953809Y-103826666D01*
X185858571Y-103779047D01*
X185668095Y-103779047D01*
X185572857Y-103826666D01*
X185525238Y-103874285D01*
X185477619Y-103969523D01*
X185477619Y-104160000D01*
X185525238Y-104255238D01*
X185572857Y-104302857D01*
X185668095Y-104350476D01*
X185858571Y-104350476D01*
X185953809Y-104302857D01*
X186001428Y-104255238D01*
X186049047Y-104160000D01*
X239198571Y-101398095D02*
X239198571Y-102160000D01*
X238817619Y-101779047D02*
X239579523Y-101779047D01*
X238817619Y-103160000D02*
X238817619Y-102588571D01*
X238817619Y-102874285D02*
X239817619Y-102874285D01*
X239674761Y-102779047D01*
X239579523Y-102683809D01*
X239531904Y-102588571D01*
X239722380Y-103540952D02*
X239770000Y-103588571D01*
X239817619Y-103683809D01*
X239817619Y-103921904D01*
X239770000Y-104017142D01*
X239722380Y-104064761D01*
X239627142Y-104112380D01*
X239531904Y-104112380D01*
X239389047Y-104064761D01*
X238817619Y-103493333D01*
X238817619Y-104112380D01*
X239817619Y-104398095D02*
X238817619Y-104731428D01*
X239817619Y-105064761D01*
X160077619Y-86705714D02*
X161077619Y-86705714D01*
X161077619Y-86943809D01*
X161030000Y-87086666D01*
X160934761Y-87181904D01*
X160839523Y-87229523D01*
X160649047Y-87277142D01*
X160506190Y-87277142D01*
X160315714Y-87229523D01*
X160220476Y-87181904D01*
X160125238Y-87086666D01*
X160077619Y-86943809D01*
X160077619Y-86705714D01*
X160077619Y-88229523D02*
X160077619Y-87658095D01*
X160077619Y-87943809D02*
X161077619Y-87943809D01*
X160934761Y-87848571D01*
X160839523Y-87753333D01*
X160791904Y-87658095D01*
X160077619Y-89181904D02*
X160077619Y-88610476D01*
X160077619Y-88896190D02*
X161077619Y-88896190D01*
X160934761Y-88800952D01*
X160839523Y-88705714D01*
X160791904Y-88610476D01*
X237560000Y-85062857D02*
X237560000Y-86062857D01*
X236372857Y-85872380D02*
X236325238Y-85824761D01*
X236277619Y-85681904D01*
X236277619Y-85586666D01*
X236325238Y-85443809D01*
X236420476Y-85348571D01*
X236515714Y-85300952D01*
X236706190Y-85253333D01*
X236849047Y-85253333D01*
X237039523Y-85300952D01*
X237134761Y-85348571D01*
X237230000Y-85443809D01*
X237277619Y-85586666D01*
X237277619Y-85681904D01*
X237230000Y-85824761D01*
X237182380Y-85872380D01*
X237560000Y-86062857D02*
X237560000Y-86920000D01*
X236801428Y-86634285D02*
X236801428Y-86300952D01*
X236277619Y-86300952D02*
X237277619Y-86300952D01*
X237277619Y-86777142D01*
X237560000Y-86920000D02*
X237560000Y-87920000D01*
X237230000Y-87681904D02*
X237277619Y-87586666D01*
X237277619Y-87443809D01*
X237230000Y-87300952D01*
X237134761Y-87205714D01*
X237039523Y-87158095D01*
X236849047Y-87110476D01*
X236706190Y-87110476D01*
X236515714Y-87158095D01*
X236420476Y-87205714D01*
X236325238Y-87300952D01*
X236277619Y-87443809D01*
X236277619Y-87539047D01*
X236325238Y-87681904D01*
X236372857Y-87729523D01*
X236706190Y-87729523D01*
X236706190Y-87539047D01*
X237560000Y-87920000D02*
X237560000Y-88967619D01*
X237277619Y-88348571D02*
X237277619Y-88539047D01*
X237230000Y-88634285D01*
X237134761Y-88729523D01*
X236944285Y-88777142D01*
X236610952Y-88777142D01*
X236420476Y-88729523D01*
X236325238Y-88634285D01*
X236277619Y-88539047D01*
X236277619Y-88348571D01*
X236325238Y-88253333D01*
X236420476Y-88158095D01*
X236610952Y-88110476D01*
X236944285Y-88110476D01*
X237134761Y-88158095D01*
X237230000Y-88253333D01*
X237277619Y-88348571D01*
X237560000Y-88967619D02*
X237560000Y-90015238D01*
X237277619Y-89205714D02*
X236468095Y-89205714D01*
X236372857Y-89253333D01*
X236325238Y-89300952D01*
X236277619Y-89396190D01*
X236277619Y-89586666D01*
X236325238Y-89681904D01*
X236372857Y-89729523D01*
X236468095Y-89777142D01*
X237277619Y-89777142D01*
X237560000Y-90015238D02*
X237560000Y-90777142D01*
X237277619Y-90110476D02*
X237277619Y-90681904D01*
X236277619Y-90396190D02*
X237277619Y-90396190D01*
%TO.C,CON2*%
X186961904Y-79752380D02*
X186485714Y-79752380D01*
X186438095Y-80228571D01*
X186485714Y-80180952D01*
X186580952Y-80133333D01*
X186819047Y-80133333D01*
X186914285Y-80180952D01*
X186961904Y-80228571D01*
X187009523Y-80323809D01*
X187009523Y-80561904D01*
X186961904Y-80657142D01*
X186914285Y-80704761D01*
X186819047Y-80752380D01*
X186580952Y-80752380D01*
X186485714Y-80704761D01*
X186438095Y-80657142D01*
X187628571Y-79752380D02*
X187723809Y-79752380D01*
X187819047Y-79800000D01*
X187866666Y-79847619D01*
X187914285Y-79942857D01*
X187961904Y-80133333D01*
X187961904Y-80371428D01*
X187914285Y-80561904D01*
X187866666Y-80657142D01*
X187819047Y-80704761D01*
X187723809Y-80752380D01*
X187628571Y-80752380D01*
X187533333Y-80704761D01*
X187485714Y-80657142D01*
X187438095Y-80561904D01*
X187390476Y-80371428D01*
X187390476Y-80133333D01*
X187438095Y-79942857D01*
X187485714Y-79847619D01*
X187533333Y-79800000D01*
X187628571Y-79752380D01*
X247874285Y-79847619D02*
X247921904Y-79800000D01*
X248017142Y-79752380D01*
X248255238Y-79752380D01*
X248350476Y-79800000D01*
X248398095Y-79847619D01*
X248445714Y-79942857D01*
X248445714Y-80038095D01*
X248398095Y-80180952D01*
X247826666Y-80752380D01*
X248445714Y-80752380D01*
X123033333Y-80752380D02*
X122461904Y-80752380D01*
X122747619Y-80752380D02*
X122747619Y-79752380D01*
X122652380Y-79895238D01*
X122557142Y-79990476D01*
X122461904Y-80038095D01*
X123652380Y-79752380D02*
X123747619Y-79752380D01*
X123842857Y-79800000D01*
X123890476Y-79847619D01*
X123938095Y-79942857D01*
X123985714Y-80133333D01*
X123985714Y-80371428D01*
X123938095Y-80561904D01*
X123890476Y-80657142D01*
X123842857Y-80704761D01*
X123747619Y-80752380D01*
X123652380Y-80752380D01*
X123557142Y-80704761D01*
X123509523Y-80657142D01*
X123461904Y-80561904D01*
X123414285Y-80371428D01*
X123414285Y-80133333D01*
X123461904Y-79942857D01*
X123509523Y-79847619D01*
X123557142Y-79800000D01*
X123652380Y-79752380D01*
X124604761Y-79752380D02*
X124700000Y-79752380D01*
X124795238Y-79800000D01*
X124842857Y-79847619D01*
X124890476Y-79942857D01*
X124938095Y-80133333D01*
X124938095Y-80371428D01*
X124890476Y-80561904D01*
X124842857Y-80657142D01*
X124795238Y-80704761D01*
X124700000Y-80752380D01*
X124604761Y-80752380D01*
X124509523Y-80704761D01*
X124461904Y-80657142D01*
X124414285Y-80561904D01*
X124366666Y-80371428D01*
X124366666Y-80133333D01*
X124414285Y-79942857D01*
X124461904Y-79847619D01*
X124509523Y-79800000D01*
X124604761Y-79752380D01*
%TO.C,CON1*%
X247874292Y-112867611D02*
X247921911Y-112819992D01*
X248017149Y-112772372D01*
X248255245Y-112772372D01*
X248350483Y-112819992D01*
X248398102Y-112867611D01*
X248445721Y-112962849D01*
X248445721Y-113058087D01*
X248398102Y-113200944D01*
X247826673Y-113772372D01*
X248445721Y-113772372D01*
X123033340Y-113772372D02*
X122461911Y-113772372D01*
X122747626Y-113772372D02*
X122747626Y-112772372D01*
X122652387Y-112915230D01*
X122557149Y-113010468D01*
X122461911Y-113058087D01*
X123652387Y-112772372D02*
X123747626Y-112772372D01*
X123842864Y-112819992D01*
X123890483Y-112867611D01*
X123938102Y-112962849D01*
X123985721Y-113153325D01*
X123985721Y-113391420D01*
X123938102Y-113581896D01*
X123890483Y-113677134D01*
X123842864Y-113724753D01*
X123747626Y-113772372D01*
X123652387Y-113772372D01*
X123557149Y-113724753D01*
X123509530Y-113677134D01*
X123461911Y-113581896D01*
X123414292Y-113391420D01*
X123414292Y-113153325D01*
X123461911Y-112962849D01*
X123509530Y-112867611D01*
X123557149Y-112819992D01*
X123652387Y-112772372D01*
X124604768Y-112772372D02*
X124700007Y-112772372D01*
X124795245Y-112819992D01*
X124842864Y-112867611D01*
X124890483Y-112962849D01*
X124938102Y-113153325D01*
X124938102Y-113391420D01*
X124890483Y-113581896D01*
X124842864Y-113677134D01*
X124795245Y-113724753D01*
X124700007Y-113772372D01*
X124604768Y-113772372D01*
X124509530Y-113724753D01*
X124461911Y-113677134D01*
X124414292Y-113581896D01*
X124366673Y-113391420D01*
X124366673Y-113153325D01*
X124414292Y-112962849D01*
X124461911Y-112867611D01*
X124509530Y-112819992D01*
X124604768Y-112772372D01*
X186961911Y-112772372D02*
X186485721Y-112772372D01*
X186438102Y-113248563D01*
X186485721Y-113200944D01*
X186580959Y-113153325D01*
X186819054Y-113153325D01*
X186914292Y-113200944D01*
X186961911Y-113248563D01*
X187009530Y-113343801D01*
X187009530Y-113581896D01*
X186961911Y-113677134D01*
X186914292Y-113724753D01*
X186819054Y-113772372D01*
X186580959Y-113772372D01*
X186485721Y-113724753D01*
X186438102Y-113677134D01*
X187628578Y-112772372D02*
X187723816Y-112772372D01*
X187819054Y-112819992D01*
X187866673Y-112867611D01*
X187914292Y-112962849D01*
X187961911Y-113153325D01*
X187961911Y-113391420D01*
X187914292Y-113581896D01*
X187866673Y-113677134D01*
X187819054Y-113724753D01*
X187723816Y-113772372D01*
X187628578Y-113772372D01*
X187533340Y-113724753D01*
X187485721Y-113677134D01*
X187438102Y-113581896D01*
X187390483Y-113391420D01*
X187390483Y-113153325D01*
X187438102Y-112962849D01*
X187485721Y-112867611D01*
X187533340Y-112819992D01*
X187628578Y-112772372D01*
%TO.C,CON3*%
X254152857Y-86705714D02*
X254105238Y-86658095D01*
X254057619Y-86515238D01*
X254057619Y-86420000D01*
X254105238Y-86277142D01*
X254200476Y-86181904D01*
X254295714Y-86134285D01*
X254486190Y-86086666D01*
X254629047Y-86086666D01*
X254819523Y-86134285D01*
X254914761Y-86181904D01*
X255010000Y-86277142D01*
X255057619Y-86420000D01*
X255057619Y-86515238D01*
X255010000Y-86658095D01*
X254962380Y-86705714D01*
X255057619Y-87324761D02*
X255057619Y-87515238D01*
X255010000Y-87610476D01*
X254914761Y-87705714D01*
X254724285Y-87753333D01*
X254390952Y-87753333D01*
X254200476Y-87705714D01*
X254105238Y-87610476D01*
X254057619Y-87515238D01*
X254057619Y-87324761D01*
X254105238Y-87229523D01*
X254200476Y-87134285D01*
X254390952Y-87086666D01*
X254724285Y-87086666D01*
X254914761Y-87134285D01*
X255010000Y-87229523D01*
X255057619Y-87324761D01*
X254057619Y-88181904D02*
X255057619Y-88181904D01*
X254057619Y-88753333D01*
X255057619Y-88753333D01*
X255057619Y-89134285D02*
X255057619Y-89753333D01*
X254676666Y-89420000D01*
X254676666Y-89562857D01*
X254629047Y-89658095D01*
X254581428Y-89705714D01*
X254486190Y-89753333D01*
X254248095Y-89753333D01*
X254152857Y-89705714D01*
X254105238Y-89658095D01*
X254057619Y-89562857D01*
X254057619Y-89277142D01*
X254105238Y-89181904D01*
X254152857Y-89134285D01*
%TD*%
M02*
