%TF.GenerationSoftware,KiCad,Pcbnew,(6.0.0)*%
%TF.CreationDate,2022-04-24T20:10:25+02:00*%
%TF.ProjectId,ZorroDebug,5a6f7272-6f44-4656-9275-672e6b696361,rev?*%
%TF.SameCoordinates,Original*%
%TF.FileFunction,Soldermask,Bot*%
%TF.FilePolarity,Negative*%
%FSLAX46Y46*%
G04 Gerber Fmt 4.6, Leading zero omitted, Abs format (unit mm)*
G04 Created by KiCad (PCBNEW (6.0.0)) date 2022-04-24 20:10:25*
%MOMM*%
%LPD*%
G01*
G04 APERTURE LIST*
%ADD10C,0.100000*%
%ADD11R,1.524000X7.500000*%
%ADD12C,1.524000*%
G04 APERTURE END LIST*
D10*
%TO.C,CON1*%
X251970007Y-123479992D02*
X119890007Y-123479992D01*
X119890007Y-123479992D02*
X119890007Y-114691592D01*
X119890007Y-114691592D02*
X251970007Y-114691592D01*
X251970007Y-114691592D02*
X251970007Y-123479992D01*
G36*
X251970007Y-123479992D02*
G01*
X119890007Y-123479992D01*
X119890007Y-114691592D01*
X251970007Y-114691592D01*
X251970007Y-123479992D01*
G37*
X251970007Y-123479992D02*
X119890007Y-123479992D01*
X119890007Y-114691592D01*
X251970007Y-114691592D01*
X251970007Y-123479992D01*
%TD*%
D11*
%TO.C,CON2*%
X248160000Y-75220000D03*
X245620000Y-75220000D03*
X243080000Y-75220000D03*
X240540000Y-75220000D03*
X238000000Y-75220000D03*
X235460000Y-75220000D03*
X232920000Y-75220000D03*
X230380000Y-75220000D03*
X227840000Y-75220000D03*
X225300000Y-75220000D03*
X222760000Y-75220000D03*
X220220000Y-75220000D03*
X217680000Y-75220000D03*
X215140000Y-75220000D03*
X212600000Y-75220000D03*
X210060000Y-75220000D03*
X207520000Y-75220000D03*
X204980000Y-75220000D03*
X202440000Y-75220000D03*
X199900000Y-75220000D03*
X197360000Y-75220000D03*
X194820000Y-75220000D03*
X192280000Y-75220000D03*
X189740000Y-75220000D03*
X187200000Y-75220000D03*
X184660000Y-75220000D03*
X182120000Y-75220000D03*
X179580000Y-75220000D03*
X177040000Y-75220000D03*
X174500000Y-75220000D03*
X171960000Y-75220000D03*
X169420000Y-75220000D03*
X166880000Y-75220000D03*
X164340000Y-75220000D03*
X161800000Y-75220000D03*
X159260000Y-75220000D03*
X156720000Y-75220000D03*
X154180000Y-75220000D03*
X151640000Y-75220000D03*
X149100000Y-75220000D03*
X146560000Y-75220000D03*
X144020000Y-75220000D03*
X141480000Y-75220000D03*
X138940000Y-75220000D03*
X136400000Y-75220000D03*
X133860000Y-75220000D03*
X131320000Y-75220000D03*
X128780000Y-75220000D03*
X126240000Y-75220000D03*
X123700000Y-75220000D03*
%TD*%
%TO.C,CON1*%
X248160007Y-118399992D03*
X245620007Y-118399992D03*
X243080007Y-118399992D03*
X240540007Y-118399992D03*
X238000007Y-118399992D03*
X235460007Y-118399992D03*
X232920007Y-118399992D03*
X230380007Y-118399992D03*
X227840007Y-118399992D03*
X225300007Y-118399992D03*
X222760007Y-118399992D03*
X220220007Y-118399992D03*
X217680007Y-118399992D03*
X215140007Y-118399992D03*
X212600007Y-118399992D03*
X210060007Y-118399992D03*
X207520007Y-118399992D03*
X204980007Y-118399992D03*
X202440007Y-118399992D03*
X199900007Y-118399992D03*
X197360007Y-118399992D03*
X194820007Y-118399992D03*
X192280007Y-118399992D03*
X189740007Y-118399992D03*
X187200007Y-118399992D03*
X184660007Y-118399992D03*
X182120007Y-118399992D03*
X179580007Y-118399992D03*
X177040007Y-118399992D03*
X174500007Y-118399992D03*
X171960007Y-118399992D03*
X169420007Y-118399992D03*
X166880007Y-118399992D03*
X164340007Y-118399992D03*
X161800007Y-118399992D03*
X159260007Y-118399992D03*
X156720007Y-118399992D03*
X154180007Y-118399992D03*
X151640007Y-118399992D03*
X149100007Y-118399992D03*
X146560007Y-118399992D03*
X144020007Y-118399992D03*
X141480007Y-118399992D03*
X138940007Y-118399992D03*
X136400007Y-118399992D03*
X133860007Y-118399992D03*
X131320007Y-118399992D03*
X128780007Y-118399992D03*
X126240007Y-118399992D03*
X123700007Y-118399992D03*
%TD*%
D12*
%TO.C,CON3*%
X246890000Y-93000000D03*
X246890000Y-98080000D03*
X244350000Y-93000000D03*
X244350000Y-98080000D03*
X241810000Y-93000000D03*
X241810000Y-98080000D03*
X239270000Y-93000000D03*
X239270000Y-98080000D03*
X236730000Y-93000000D03*
X236730000Y-98080000D03*
X234190000Y-93000000D03*
X234190000Y-98080000D03*
X231650000Y-93000000D03*
X231650000Y-98080000D03*
X229110000Y-93000000D03*
X229110000Y-98080000D03*
X226570000Y-93000000D03*
X226570000Y-98080000D03*
X224030000Y-93000000D03*
X224030000Y-98080000D03*
X221490000Y-93000000D03*
X221490000Y-98080000D03*
X218950000Y-93000000D03*
X218950000Y-98080000D03*
X216410000Y-93000000D03*
X216410000Y-98080000D03*
X213870000Y-93000000D03*
X213870000Y-98080000D03*
X211330000Y-93000000D03*
X211330000Y-98080000D03*
X208790000Y-93000000D03*
X208790000Y-98080000D03*
X206250000Y-93000000D03*
X206250000Y-98080000D03*
X203710000Y-93000000D03*
X203710000Y-98080000D03*
X201170000Y-93000000D03*
X201170000Y-98080000D03*
X198630000Y-93000000D03*
X198630000Y-98080000D03*
X196090000Y-93000000D03*
X196090000Y-98080000D03*
X193550000Y-93000000D03*
X193550000Y-98080000D03*
X191010000Y-93000000D03*
X191010000Y-98080000D03*
X188470000Y-93000000D03*
X188470000Y-98080000D03*
X185930000Y-93000000D03*
X185930000Y-98080000D03*
X183390000Y-93000000D03*
X183390000Y-98080000D03*
X180850000Y-93000000D03*
X180850000Y-98080000D03*
X178310000Y-93000000D03*
X178310000Y-98080000D03*
X175770000Y-93000000D03*
X175770000Y-98080000D03*
X173230000Y-93000000D03*
X173230000Y-98080000D03*
X170690000Y-93000000D03*
X170690000Y-98080000D03*
X168150000Y-93000000D03*
X168150000Y-98080000D03*
X165610000Y-93000000D03*
X165610000Y-98080000D03*
X163070000Y-93000000D03*
X163070000Y-98080000D03*
X160530000Y-93000000D03*
X160530000Y-98080000D03*
X157990000Y-93000000D03*
X157990000Y-98080000D03*
X155450000Y-93000000D03*
X155450000Y-98080000D03*
X152910000Y-93000000D03*
X152910000Y-98080000D03*
X150370000Y-93000000D03*
X150370000Y-98080000D03*
X147830000Y-93000000D03*
X147830000Y-98080000D03*
X145290000Y-93000000D03*
X145290000Y-98080000D03*
X142750000Y-93000000D03*
X142750000Y-98080000D03*
X140210000Y-93000000D03*
X140210000Y-98080000D03*
X137670000Y-93000000D03*
X137670000Y-98080000D03*
X135130000Y-93000000D03*
X135130000Y-98080000D03*
X132590000Y-93000000D03*
X132590000Y-98080000D03*
X130050000Y-93000000D03*
X130050000Y-98080000D03*
X127510000Y-93000000D03*
X127510000Y-98080000D03*
X124970000Y-93000000D03*
X124970000Y-98080000D03*
%TD*%
M02*
