M48
; DRILL file {KiCad (6.0.0)} date 2022 April 24, Sunday 20:10:23
; FORMAT={-:-/ absolute / inch / decimal}
; #@! TF.CreationDate,2022-04-24T20:10:23+02:00
; #@! TF.GenerationSoftware,Kicad,Pcbnew,(6.0.0)
; #@! TF.FileFunction,Plated,1,2,PTH
FMAT,2
INCH
; #@! TA.AperFunction,Plated,PTH,ComponentDrill
T1C0.0300
%
G90
G05
T1
X4.9201Y-3.6614
X4.9201Y-3.8614
X5.0201Y-3.6614
X5.0201Y-3.8614
X5.1201Y-3.6614
X5.1201Y-3.8614
X5.2201Y-3.6614
X5.2201Y-3.8614
X5.3201Y-3.6614
X5.3201Y-3.8614
X5.4201Y-3.6614
X5.4201Y-3.8614
X5.5201Y-3.6614
X5.5201Y-3.8614
X5.6201Y-3.6614
X5.6201Y-3.8614
X5.7201Y-3.6614
X5.7201Y-3.8614
X5.8201Y-3.6614
X5.8201Y-3.8614
X5.9201Y-3.6614
X5.9201Y-3.8614
X6.0201Y-3.6614
X6.0201Y-3.8614
X6.1201Y-3.6614
X6.1201Y-3.8614
X6.2201Y-3.6614
X6.2201Y-3.8614
X6.3201Y-3.6614
X6.3201Y-3.8614
X6.4201Y-3.6614
X6.4201Y-3.8614
X6.5201Y-3.6614
X6.5201Y-3.8614
X6.6201Y-3.6614
X6.6201Y-3.8614
X6.7201Y-3.6614
X6.7201Y-3.8614
X6.8201Y-3.6614
X6.8201Y-3.8614
X6.9201Y-3.6614
X6.9201Y-3.8614
X7.0201Y-3.6614
X7.0201Y-3.8614
X7.1201Y-3.6614
X7.1201Y-3.8614
X7.2201Y-3.6614
X7.2201Y-3.8614
X7.3201Y-3.6614
X7.3201Y-3.8614
X7.4201Y-3.6614
X7.4201Y-3.8614
X7.5201Y-3.6614
X7.5201Y-3.8614
X7.6201Y-3.6614
X7.6201Y-3.8614
X7.7201Y-3.6614
X7.7201Y-3.8614
X7.8201Y-3.6614
X7.8201Y-3.8614
X7.9201Y-3.6614
X7.9201Y-3.8614
X8.0201Y-3.6614
X8.0201Y-3.8614
X8.1201Y-3.6614
X8.1201Y-3.8614
X8.2201Y-3.6614
X8.2201Y-3.8614
X8.3201Y-3.6614
X8.3201Y-3.8614
X8.4201Y-3.6614
X8.4201Y-3.8614
X8.5201Y-3.6614
X8.5201Y-3.8614
X8.6201Y-3.6614
X8.6201Y-3.8614
X8.7201Y-3.6614
X8.7201Y-3.8614
X8.8201Y-3.6614
X8.8201Y-3.8614
X8.9201Y-3.6614
X8.9201Y-3.8614
X9.0201Y-3.6614
X9.0201Y-3.8614
X9.1201Y-3.6614
X9.1201Y-3.8614
X9.2201Y-3.6614
X9.2201Y-3.8614
X9.3201Y-3.6614
X9.3201Y-3.8614
X9.4201Y-3.6614
X9.4201Y-3.8614
X9.5201Y-3.6614
X9.5201Y-3.8614
X9.6201Y-3.6614
X9.6201Y-3.8614
X9.7201Y-3.6614
X9.7201Y-3.8614
T0
M30
