M48
; DRILL file {KiCad (5.99.0-9233-g881cb3182b)} date 07/01/21 22:40:47
; FORMAT={-:-/ absolute / inch / decimal}
; #@! TF.CreationDate,2021-07-01T22:40:47+02:00
; #@! TF.GenerationSoftware,Kicad,Pcbnew,(5.99.0-9233-g881cb3182b)
FMAT,2
INCH
T1C0.0315
T2C0.0394
%
G90
G05
T1
X3.708Y-1.862
X3.708Y-1.962
X3.708Y-2.062
X3.708Y-2.162
X3.708Y-2.262
X3.708Y-2.362
X3.708Y-2.462
X3.708Y-2.562
X3.708Y-2.662
X3.708Y-2.762
X3.708Y-2.862
X3.708Y-2.962
X3.708Y-3.062
X3.708Y-3.162
X3.708Y-3.262
X3.708Y-3.362
X3.8Y-1.862
X3.8Y-1.962
X3.8Y-2.062
X3.8Y-2.162
X3.8Y-2.262
X3.8Y-2.362
X3.8Y-2.462
X3.8Y-2.562
X3.8Y-2.662
X3.8Y-2.762
X3.8Y-2.862
X3.8Y-2.962
X3.8Y-3.062
X3.8Y-3.162
X3.8Y-3.262
X3.8Y-3.362
X4.308Y-1.862
X4.308Y-1.962
X4.308Y-2.062
X4.308Y-2.162
X4.308Y-2.262
X4.308Y-2.362
X4.308Y-2.462
X4.308Y-2.562
X4.308Y-2.662
X4.308Y-2.762
X4.308Y-2.862
X4.308Y-2.962
X4.308Y-3.062
X4.308Y-3.162
X4.308Y-3.262
X4.308Y-3.362
X4.4Y-1.862
X4.4Y-1.962
X4.4Y-2.062
X4.4Y-2.162
X4.4Y-2.262
X4.4Y-2.362
X4.4Y-2.462
X4.4Y-2.562
X4.4Y-2.662
X4.4Y-2.762
X4.4Y-2.862
X4.4Y-2.962
X4.4Y-3.062
X4.4Y-3.162
X4.4Y-3.262
X4.4Y-3.362
X4.6Y-1.862
X4.6Y-1.962
X4.6Y-2.062
X4.6Y-2.162
X4.6Y-2.262
X4.6Y-2.362
X4.6Y-2.462
X4.6Y-2.562
X4.6Y-2.662
X4.6Y-2.762
X4.6Y-2.862
X4.6Y-2.962
X4.6Y-3.062
X4.6Y-3.162
X4.6Y-3.262
X4.6Y-3.362
X4.6998Y-1.862
X4.6998Y-1.962
X4.6998Y-2.062
X4.6998Y-2.162
X4.6998Y-2.262
X4.6998Y-2.362
X4.6998Y-2.462
X4.6998Y-2.562
X4.6998Y-2.662
X4.6998Y-2.762
X4.6998Y-2.862
X4.6998Y-2.962
X4.6998Y-3.062
X4.6998Y-3.162
X4.6998Y-3.262
X4.6998Y-3.362
X5.2Y-1.862
X5.2Y-1.962
X5.2Y-2.062
X5.2Y-2.162
X5.2Y-2.262
X5.2Y-2.362
X5.2Y-2.462
X5.2Y-2.562
X5.2Y-2.662
X5.2Y-2.762
X5.2Y-2.862
X5.2Y-2.962
X5.2Y-3.062
X5.2Y-3.162
X5.2Y-3.262
X5.2Y-3.362
X5.2998Y-1.862
X5.2998Y-1.962
X5.2998Y-2.062
X5.2998Y-2.162
X5.2998Y-2.262
X5.2998Y-2.362
X5.2998Y-2.462
X5.2998Y-2.562
X5.2998Y-2.662
X5.2998Y-2.762
X5.2998Y-2.862
X5.2998Y-2.962
X5.2998Y-3.062
X5.2998Y-3.162
X5.2998Y-3.262
X5.2998Y-3.362
T2
X5.5Y-1.862
X5.5Y-1.962
X5.5Y-2.062
X5.5Y-2.3
X5.5Y-2.4
X5.5Y-2.5
T0
M30
