%TF.GenerationSoftware,KiCad,Pcbnew,(5.99.0-9233-g881cb3182b)*%
%TF.CreationDate,2021-07-01T22:40:51+02:00*%
%TF.ProjectId,cdtv-ext-flash,63647476-2d65-4787-942d-666c6173682e,rev?*%
%TF.SameCoordinates,Original*%
%TF.FileFunction,Legend,Top*%
%TF.FilePolarity,Positive*%
%FSLAX46Y46*%
G04 Gerber Fmt 4.6, Leading zero omitted, Abs format (unit mm)*
G04 Created by KiCad (PCBNEW (5.99.0-9233-g881cb3182b)) date 2021-07-01 22:40:51*
%MOMM*%
%LPD*%
G01*
G04 APERTURE LIST*
%ADD10C,0.508000*%
%ADD11C,0.150000*%
%ADD12C,0.120000*%
G04 APERTURE END LIST*
D10*
X125330857Y-69937085D02*
X125330857Y-69356514D01*
X125476000Y-69066228D01*
X125766285Y-68775942D01*
X126346857Y-68630800D01*
X127362857Y-68630800D01*
X127943428Y-68775942D01*
X128233714Y-69066228D01*
X128378857Y-69356514D01*
X128378857Y-69937085D01*
X128233714Y-70227371D01*
X127943428Y-70517657D01*
X127362857Y-70662800D01*
X126346857Y-70662800D01*
X125766285Y-70517657D01*
X125476000Y-70227371D01*
X125330857Y-69937085D01*
X128378857Y-67324514D02*
X125330857Y-67324514D01*
X125330857Y-66598800D01*
X125476000Y-66163371D01*
X125766285Y-65873085D01*
X126056571Y-65727942D01*
X126637142Y-65582800D01*
X127072571Y-65582800D01*
X127653142Y-65727942D01*
X127943428Y-65873085D01*
X128233714Y-66163371D01*
X128378857Y-66598800D01*
X128378857Y-67324514D01*
X128378857Y-64276514D02*
X125330857Y-64276514D01*
X125330857Y-63550800D01*
X125476000Y-63115371D01*
X125766285Y-62825085D01*
X126056571Y-62679942D01*
X126637142Y-62534800D01*
X127072571Y-62534800D01*
X127653142Y-62679942D01*
X127943428Y-62825085D01*
X128233714Y-63115371D01*
X128378857Y-63550800D01*
X128378857Y-64276514D01*
X101636285Y-71279657D02*
X101636285Y-70263657D01*
X103232857Y-69828228D02*
X103232857Y-71279657D01*
X100184857Y-71279657D01*
X100184857Y-69828228D01*
X100184857Y-68957371D02*
X103232857Y-67941371D01*
X100184857Y-66925371D01*
X101636285Y-65909371D02*
X101636285Y-64893371D01*
X103232857Y-64457942D02*
X103232857Y-65909371D01*
X100184857Y-65909371D01*
X100184857Y-64457942D01*
X103232857Y-63151657D02*
X100184857Y-63151657D01*
X103232857Y-61409942D01*
X100184857Y-61409942D01*
D11*
X139152380Y-65757419D02*
X139152380Y-65662180D01*
X139200000Y-65566942D01*
X139247619Y-65519323D01*
X139342857Y-65471704D01*
X139533333Y-65424085D01*
X139771428Y-65424085D01*
X139961904Y-65471704D01*
X140057142Y-65519323D01*
X140104761Y-65566942D01*
X140152380Y-65662180D01*
X140152380Y-65757419D01*
X140104761Y-65852657D01*
X140057142Y-65900276D01*
X139961904Y-65947895D01*
X139771428Y-65995514D01*
X139533333Y-65995514D01*
X139342857Y-65947895D01*
X139247619Y-65900276D01*
X139200000Y-65852657D01*
X139152380Y-65757419D01*
X140152380Y-55848285D02*
X140152380Y-56419714D01*
X140152380Y-56134000D02*
X139152380Y-56134000D01*
X139295238Y-56229238D01*
X139390476Y-56324476D01*
X139438095Y-56419714D01*
X139152380Y-54657619D02*
X139152380Y-54562380D01*
X139200000Y-54467142D01*
X139247619Y-54419523D01*
X139342857Y-54371904D01*
X139533333Y-54324285D01*
X139771428Y-54324285D01*
X139961904Y-54371904D01*
X140057142Y-54419523D01*
X140104761Y-54467142D01*
X140152380Y-54562380D01*
X140152380Y-54657619D01*
X140104761Y-54752857D01*
X140057142Y-54800476D01*
X139961904Y-54848095D01*
X139771428Y-54895714D01*
X139533333Y-54895714D01*
X139342857Y-54848095D01*
X139247619Y-54800476D01*
X139200000Y-54752857D01*
X139152380Y-54657619D01*
X140152380Y-44672285D02*
X140152380Y-45243714D01*
X140152380Y-44958000D02*
X139152380Y-44958000D01*
X139295238Y-45053238D01*
X139390476Y-45148476D01*
X139438095Y-45243714D01*
%TO.C,U35*%
X100565104Y-44417180D02*
X100565104Y-45226704D01*
X100612723Y-45321942D01*
X100660342Y-45369561D01*
X100755580Y-45417180D01*
X100946057Y-45417180D01*
X101041295Y-45369561D01*
X101088914Y-45321942D01*
X101136533Y-45226704D01*
X101136533Y-44417180D01*
X101517485Y-44417180D02*
X102136533Y-44417180D01*
X101803200Y-44798133D01*
X101946057Y-44798133D01*
X102041295Y-44845752D01*
X102088914Y-44893371D01*
X102136533Y-44988609D01*
X102136533Y-45226704D01*
X102088914Y-45321942D01*
X102041295Y-45369561D01*
X101946057Y-45417180D01*
X101660342Y-45417180D01*
X101565104Y-45369561D01*
X101517485Y-45321942D01*
X103041295Y-44417180D02*
X102565104Y-44417180D01*
X102517485Y-44893371D01*
X102565104Y-44845752D01*
X102660342Y-44798133D01*
X102898438Y-44798133D01*
X102993676Y-44845752D01*
X103041295Y-44893371D01*
X103088914Y-44988609D01*
X103088914Y-45226704D01*
X103041295Y-45321942D01*
X102993676Y-45369561D01*
X102898438Y-45417180D01*
X102660342Y-45417180D01*
X102565104Y-45369561D01*
X102517485Y-45321942D01*
%TO.C,A18*%
X137326666Y-50974476D02*
X137326666Y-50498285D01*
X137612380Y-51069714D02*
X136612380Y-50736380D01*
X137612380Y-50403047D01*
X137612380Y-49545904D02*
X137612380Y-50117333D01*
X137612380Y-49831619D02*
X136612380Y-49831619D01*
X136755238Y-49926857D01*
X136850476Y-50022095D01*
X136898095Y-50117333D01*
X137040952Y-48974476D02*
X136993333Y-49069714D01*
X136945714Y-49117333D01*
X136850476Y-49164952D01*
X136802857Y-49164952D01*
X136707619Y-49117333D01*
X136660000Y-49069714D01*
X136612380Y-48974476D01*
X136612380Y-48784000D01*
X136660000Y-48688761D01*
X136707619Y-48641142D01*
X136802857Y-48593523D01*
X136850476Y-48593523D01*
X136945714Y-48641142D01*
X136993333Y-48688761D01*
X137040952Y-48784000D01*
X137040952Y-48974476D01*
X137088571Y-49069714D01*
X137136190Y-49117333D01*
X137231428Y-49164952D01*
X137421904Y-49164952D01*
X137517142Y-49117333D01*
X137564761Y-49069714D01*
X137612380Y-48974476D01*
X137612380Y-48784000D01*
X137564761Y-48688761D01*
X137517142Y-48641142D01*
X137421904Y-48593523D01*
X137231428Y-48593523D01*
X137136190Y-48641142D01*
X137088571Y-48688761D01*
X137040952Y-48784000D01*
%TO.C,C1*%
X111288533Y-44553142D02*
X111240914Y-44600761D01*
X111098057Y-44648380D01*
X111002819Y-44648380D01*
X110859961Y-44600761D01*
X110764723Y-44505523D01*
X110717104Y-44410285D01*
X110669485Y-44219809D01*
X110669485Y-44076952D01*
X110717104Y-43886476D01*
X110764723Y-43791238D01*
X110859961Y-43696000D01*
X111002819Y-43648380D01*
X111098057Y-43648380D01*
X111240914Y-43696000D01*
X111288533Y-43743619D01*
X112240914Y-44648380D02*
X111669485Y-44648380D01*
X111955200Y-44648380D02*
X111955200Y-43648380D01*
X111859961Y-43791238D01*
X111764723Y-43886476D01*
X111669485Y-43934095D01*
%TO.C,A17*%
X137326666Y-62150476D02*
X137326666Y-61674285D01*
X137612380Y-62245714D02*
X136612380Y-61912380D01*
X137612380Y-61579047D01*
X137612380Y-60721904D02*
X137612380Y-61293333D01*
X137612380Y-61007619D02*
X136612380Y-61007619D01*
X136755238Y-61102857D01*
X136850476Y-61198095D01*
X136898095Y-61293333D01*
X136612380Y-60388571D02*
X136612380Y-59721904D01*
X137612380Y-60150476D01*
%TO.C,U34*%
X125756900Y-44417187D02*
X125756900Y-45226711D01*
X125804519Y-45321949D01*
X125852138Y-45369568D01*
X125947376Y-45417187D01*
X126137853Y-45417187D01*
X126233091Y-45369568D01*
X126280710Y-45321949D01*
X126328329Y-45226711D01*
X126328329Y-44417187D01*
X126709281Y-44417187D02*
X127328329Y-44417187D01*
X126994996Y-44798140D01*
X127137853Y-44798140D01*
X127233091Y-44845759D01*
X127280710Y-44893378D01*
X127328329Y-44988616D01*
X127328329Y-45226711D01*
X127280710Y-45321949D01*
X127233091Y-45369568D01*
X127137853Y-45417187D01*
X126852138Y-45417187D01*
X126756900Y-45369568D01*
X126709281Y-45321949D01*
X128185472Y-44750521D02*
X128185472Y-45417187D01*
X127947376Y-44369568D02*
X127709281Y-45083854D01*
X128328329Y-45083854D01*
%TO.C,C2*%
X130135333Y-44553142D02*
X130087714Y-44600761D01*
X129944857Y-44648380D01*
X129849619Y-44648380D01*
X129706761Y-44600761D01*
X129611523Y-44505523D01*
X129563904Y-44410285D01*
X129516285Y-44219809D01*
X129516285Y-44076952D01*
X129563904Y-43886476D01*
X129611523Y-43791238D01*
X129706761Y-43696000D01*
X129849619Y-43648380D01*
X129944857Y-43648380D01*
X130087714Y-43696000D01*
X130135333Y-43743619D01*
X130516285Y-43743619D02*
X130563904Y-43696000D01*
X130659142Y-43648380D01*
X130897238Y-43648380D01*
X130992476Y-43696000D01*
X131040095Y-43743619D01*
X131087714Y-43838857D01*
X131087714Y-43934095D01*
X131040095Y-44076952D01*
X130468666Y-44648380D01*
X131087714Y-44648380D01*
D12*
%TO.C,U35*%
X92853200Y-86784800D02*
X110753200Y-86784800D01*
X92853200Y-45904800D02*
X92853200Y-86784800D01*
X110753200Y-45904800D02*
X92853200Y-45904800D01*
X110753200Y-86784800D02*
X110753200Y-45904800D01*
X108263200Y-86724800D02*
X108263200Y-45964800D01*
X95343200Y-86724800D02*
X108263200Y-86724800D01*
X95343200Y-45964800D02*
X95343200Y-86724800D01*
X108263200Y-45964800D02*
X102803200Y-45964800D01*
X100803200Y-45964800D02*
X95343200Y-45964800D01*
X102803200Y-45964800D02*
G75*
G02*
X100803200Y-45964800I-1000000J0D01*
G01*
%TO.C,A18*%
X141030000Y-48564800D02*
X141030000Y-53704800D01*
X138370000Y-48564800D02*
X138370000Y-53704800D01*
X138370000Y-48564800D02*
X141030000Y-48564800D01*
X138370000Y-53704800D02*
X141030000Y-53704800D01*
X138370000Y-45964800D02*
X139700000Y-45964800D01*
X138370000Y-47294800D02*
X138370000Y-45964800D01*
%TO.C,C1*%
X108668452Y-44931000D02*
X108145948Y-44931000D01*
X108668452Y-43461000D02*
X108145948Y-43461000D01*
%TO.C,A17*%
X141030000Y-59690000D02*
X141030000Y-64830000D01*
X138370000Y-64830000D02*
X141030000Y-64830000D01*
X138370000Y-57090000D02*
X139700000Y-57090000D01*
X138370000Y-59690000D02*
X138370000Y-64830000D01*
X138370000Y-58420000D02*
X138370000Y-57090000D01*
X138370000Y-59690000D02*
X141030000Y-59690000D01*
%TO.C,U34*%
X127995000Y-45964800D02*
G75*
G02*
X125995000Y-45964800I-1000000J0D01*
G01*
X133455000Y-45964800D02*
X127995000Y-45964800D01*
X135945000Y-86784800D02*
X135945000Y-45904800D01*
X120535000Y-86724800D02*
X133455000Y-86724800D01*
X120535000Y-45964800D02*
X120535000Y-86724800D01*
X118045000Y-45904800D02*
X118045000Y-86784800D01*
X133455000Y-86724800D02*
X133455000Y-45964800D01*
X135945000Y-45904800D02*
X118045000Y-45904800D01*
X118045000Y-86784800D02*
X135945000Y-86784800D01*
X125995000Y-45964800D02*
X120535000Y-45964800D01*
%TO.C,C2*%
X133865252Y-43461000D02*
X133342748Y-43461000D01*
X133865252Y-44931000D02*
X133342748Y-44931000D01*
%TD*%
M02*
