%TF.GenerationSoftware,KiCad,Pcbnew,(5.99.0-9233-g881cb3182b)*%
%TF.CreationDate,2021-07-01T22:40:51+02:00*%
%TF.ProjectId,cdtv-ext-flash,63647476-2d65-4787-942d-666c6173682e,rev?*%
%TF.SameCoordinates,Original*%
%TF.FileFunction,Soldermask,Bot*%
%TF.FilePolarity,Negative*%
%FSLAX46Y46*%
G04 Gerber Fmt 4.6, Leading zero omitted, Abs format (unit mm)*
G04 Created by KiCad (PCBNEW (5.99.0-9233-g881cb3182b)) date 2021-07-01 22:40:51*
%MOMM*%
%LPD*%
G01*
G04 APERTURE LIST*
%ADD10R,1.600000X1.600000*%
%ADD11O,1.600000X1.600000*%
%ADD12R,1.700000X1.700000*%
%ADD13O,1.700000X1.700000*%
G04 APERTURE END LIST*
D10*
%TO.C,U1*%
X116840000Y-47294800D03*
D11*
X116840000Y-49834800D03*
X116840000Y-52374800D03*
X116840000Y-54914800D03*
X116840000Y-57454800D03*
X116840000Y-59994800D03*
X116840000Y-62534800D03*
X116840000Y-65074800D03*
X116840000Y-67614800D03*
X116840000Y-70154800D03*
X116840000Y-72694800D03*
X116840000Y-75234800D03*
X116840000Y-77774800D03*
X116840000Y-80314800D03*
X116840000Y-82854800D03*
X116840000Y-85394800D03*
X132080000Y-85394800D03*
X132080000Y-82854800D03*
X132080000Y-80314800D03*
X132080000Y-77774800D03*
X132080000Y-75234800D03*
X132080000Y-72694800D03*
X132080000Y-70154800D03*
X132080000Y-67614800D03*
X132080000Y-65074800D03*
X132080000Y-62534800D03*
X132080000Y-59994800D03*
X132080000Y-57454800D03*
X132080000Y-54914800D03*
X132080000Y-52374800D03*
X132080000Y-49834800D03*
X132080000Y-47294800D03*
%TD*%
D10*
%TO.C,U2*%
X96520000Y-47294800D03*
D11*
X96520000Y-49834800D03*
X96520000Y-52374800D03*
X96520000Y-54914800D03*
X96520000Y-57454800D03*
X96520000Y-59994800D03*
X96520000Y-62534800D03*
X96520000Y-65074800D03*
X96520000Y-67614800D03*
X96520000Y-70154800D03*
X96520000Y-72694800D03*
X96520000Y-75234800D03*
X96520000Y-77774800D03*
X96520000Y-80314800D03*
X96520000Y-82854800D03*
X96520000Y-85394800D03*
X111760000Y-85394800D03*
X111760000Y-82854800D03*
X111760000Y-80314800D03*
X111760000Y-77774800D03*
X111760000Y-75234800D03*
X111760000Y-72694800D03*
X111760000Y-70154800D03*
X111760000Y-67614800D03*
X111760000Y-65074800D03*
X111760000Y-62534800D03*
X111760000Y-59994800D03*
X111760000Y-57454800D03*
X111760000Y-54914800D03*
X111760000Y-52374800D03*
X111760000Y-49834800D03*
X111760000Y-47294800D03*
%TD*%
D10*
%TO.C,U35*%
X94183200Y-47294800D03*
D11*
X94183200Y-49834800D03*
X94183200Y-52374800D03*
X94183200Y-54914800D03*
X94183200Y-57454800D03*
X94183200Y-59994800D03*
X94183200Y-62534800D03*
X94183200Y-65074800D03*
X94183200Y-67614800D03*
X94183200Y-70154800D03*
X94183200Y-72694800D03*
X94183200Y-75234800D03*
X94183200Y-77774800D03*
X94183200Y-80314800D03*
X94183200Y-82854800D03*
X94183200Y-85394800D03*
X109423200Y-85394800D03*
X109423200Y-82854800D03*
X109423200Y-80314800D03*
X109423200Y-77774800D03*
X109423200Y-75234800D03*
X109423200Y-72694800D03*
X109423200Y-70154800D03*
X109423200Y-67614800D03*
X109423200Y-65074800D03*
X109423200Y-62534800D03*
X109423200Y-59994800D03*
X109423200Y-57454800D03*
X109423200Y-54914800D03*
X109423200Y-52374800D03*
X109423200Y-49834800D03*
X109423200Y-47294800D03*
%TD*%
D12*
%TO.C,A18*%
X139700000Y-47294800D03*
D13*
X139700000Y-49834800D03*
X139700000Y-52374800D03*
%TD*%
D12*
%TO.C,A17*%
X139700000Y-58420000D03*
D13*
X139700000Y-60960000D03*
X139700000Y-63500000D03*
%TD*%
D11*
%TO.C,U34*%
X134615000Y-47294800D03*
X134615000Y-49834800D03*
X134615000Y-52374800D03*
X134615000Y-54914800D03*
X134615000Y-57454800D03*
X134615000Y-59994800D03*
X134615000Y-62534800D03*
X134615000Y-65074800D03*
X134615000Y-67614800D03*
X134615000Y-70154800D03*
X134615000Y-72694800D03*
X134615000Y-75234800D03*
X134615000Y-77774800D03*
X134615000Y-80314800D03*
X134615000Y-82854800D03*
X134615000Y-85394800D03*
X119375000Y-85394800D03*
X119375000Y-82854800D03*
X119375000Y-80314800D03*
X119375000Y-77774800D03*
X119375000Y-75234800D03*
X119375000Y-72694800D03*
X119375000Y-70154800D03*
X119375000Y-67614800D03*
X119375000Y-65074800D03*
X119375000Y-62534800D03*
X119375000Y-59994800D03*
X119375000Y-57454800D03*
X119375000Y-54914800D03*
X119375000Y-52374800D03*
X119375000Y-49834800D03*
D10*
X119375000Y-47294800D03*
%TD*%
M02*
